SplineFontDB: 3.0
FontName: Oxygen
FullName: Oxygen
FamilyName: Oxygen
Weight: Regular
Copyright: Copyright (c) 2011 by vernon adams. All rights reserved.
Version: 1.000
ItalicAngle: 0
UnderlinePosition: -103
UnderlineWidth: 102
Ascent: 1638
Descent: 410
UFOAscent: 1638
UFODescent: -410
LayerCount: 2
Layer: 0 0 "Back"  1
Layer: 1 0 "Fore"  0
FSType: 0
OS2Version: 0
OS2_WeightWidthSlopeOnly: 0
OS2_UseTypoMetrics: 1
CreationTime: 1326352587
ModificationTime: 1326498827
PfmFamily: 17
TTFWeight: 400
TTFWidth: 5
LineGap: 0
VLineGap: 0
Panose: 2 0 5 3 0 0 0 9 0 4
OS2TypoAscent: 1567
OS2TypoAOffset: 0
OS2TypoDescent: -492
OS2TypoDOffset: 0
OS2TypoLinegap: 132
OS2WinAscent: 1901
OS2WinAOffset: 0
OS2WinDescent: 483
OS2WinDOffset: 0
HheadAscent: 1959
HheadAOffset: 0
HheadDescent: -672
HheadDOffset: 0
OS2SubXSize: 1434
OS2SubYSize: 1331
OS2SubXOff: 0
OS2SubYOff: 286
OS2SupXSize: 1434
OS2SupYSize: 1331
OS2SupXOff: 0
OS2SupYOff: 976
OS2StrikeYSize: 102
OS2StrikeYPos: 498
OS2Vendor: 'newt'
OS2CodePages: 20000007.00000000
OS2UnicodeRanges: 00000007.00000000.00000000.00000000
Lookup: 4 0 1 "ligaStandardLigatureslookup0"  {"ligaStandardLigatureslookup0 subtable"  } ['liga' ('latn' <'dflt' > 'grek' <'dflt' > 'cyrl' <'dflt' > 'DFLT' <'dflt' > ) ]
Lookup: 258 0 0 "'kern' Horizontal Kerning lookup 0"  {"'kern' Horizontal Kerning lookup 0 per glyph data 0"  "'kern' Horizontal Kerning lookup 0 kerning class 1"  } ['kern' ('latn' <'dflt' > ) ]
MarkAttachClasses: 1
DEI: 91125
KernClass2: 68 67 "'kern' Horizontal Kerning lookup 0 kerning class 1" 
 89 A Aacute Abreve Acircumflex Adieresis Agrave Amacron Aogonek Aring Atilde uni0200 uni0202
 1 B
 24 C Cacute Ccaron Ccedilla
 1 D
 5 Delta
 69 E Eacute Ecircumflex Edieresis Egrave Emacron Eogonek uni0204 uni0206
 3 Eth
 1 F
 5 Gamma
 76 I Iacute Icircumflex Idieresis Igrave Imacron Iogonek Itilde uni0208 uni020A
 12 Iotadieresis
 1 K
 1 L
 6 Lambda
 6 Lslash
 15 N Nacute Ntilde
 60 O Oacute Ocircumflex Odieresis Ograve Otilde uni020C uni020E

StartChar: A
Encoding: 65 65 1
Width: 1515
VWidth: 0
GlyphClass: 2
Flags: W
PickledData: "(dp1
S'com.fontlab.hintData'
p2
(dp3
S'hhints'
p4
((dp5
S'position'
p6
I0
sS'width'
p7
I21
s(dp8
g6
I473
sg7
I158
s(dp9
g6
I1442
sg7
I20
stp10
ss."
HStem: 0 21G<94 283.78 1233.77 1423> 473 158<518 1008> 1477 20G<660.331 887.255>
LayerCount: 2
Fore
SplineSet
94 0 m 1
 668 1497 l 1
 880 1497 l 1
 1423 0 l 1
 1241 0 l 1
 1070 473 l 1
 460 473 l 1
 276 0 l 1
 94 0 l 1
1008 631 m 1
 775 1294 l 1
 518 631 l 1
 1008 631 l 1
EndSplineSet
EndChar

StartChar: AE
Encoding: 198 198 2
Width: 2092
VWidth: 0
GlyphClass: 2
Flags: W
PickledData: "(dp1
S'com.fontlab.hintData'
p2
(dp3
S'hhints'
p4
((dp5
S'position'
p6
I0
sS'width'
p7
I158
s(dp8
g6
I427
sg7
I162
s(dp9
g6
I724
sg7
I158
s(dp10
g6
I1409
sg7
I159
stp11
ss."
HStem: 0 158<1342 1966> 427 162<564 1130> 724 158<1300 1911> 1409 159<1017 1069 1241 1946>
LayerCount: 2
Fore
SplineSet
1069 1409 m 1
 1017 1409 l 1
 564 589 l 1
 1130 589 l 1
 1069 1409 l 1
85 0 m 1
 905 1568 l 1
 1946 1568 l 1
 1946 1409 l 1
 1241 1409 l 1
 1280 882 l 1
 1911 882 l 1
 1911 724 l 1
 1300 724 l 1
 1342 158 l 1
 1966 158 l 1
 1966 0 l 1
 1183 0 l 1
 1152 427 l 1
 480 427 l 1
 258 0 l 1
 85 0 l 1
EndSplineSet
EndChar

StartChar: B
Encoding: 66 66 12
Width: 1359
VWidth: 0
GlyphClass: 2
Flags: W
PickledData: "(dp1
S'com.fontlab.hintData'
p2
(dp3
S'vhints'
p4
((dp5
S'position'
p6
I199
sS'width'
p7
I196
s(dp8
g6
I1000
sg7
I205
s(dp9
g6
I1062
sg7
I200
stp10
sS'hhints'
p11
((dp12
g6
I0
sg7
I156
s(dp13
g6
I677
sg7
I144
s(dp14
g6
I1306
sg7
I156
stp15
ss."
HStem: 0 156<332 900.394> 677 144<332 875.275> 1306 156<332 870.411>
VStem: 155 177<156 677 821 1306> 974 185<910.81 1213.68> 1041 180<269.234 580.75>
LayerCount: 2
Fore
SplineSet
155 0 m 1xf4
 155 1462 l 1
 591 1462 l 2
 952 1462 1159 1365 1159 1100 c 0xf8
 1159 956 1098 822 947 770 c 1
 1135 729 1221 586 1221 426 c 0
 1221 163 1067 0 678 0 c 2
 155 0 l 1xf4
332 1306 m 1
 332 821 l 1
 676 821 l 2
 815 821 974 855 974 1065 c 0
 974 1290 801 1306 558 1306 c 2
 332 1306 l 1
332 677 m 1
 332 156 l 1
 645 156 l 2
 905 156 1041 227 1041 428 c 0xf4
 1041 617 920 677 696 677 c 2
 332 677 l 1
EndSplineSet
EndChar

StartChar: C
Encoding: 67 67 13
Width: 1374
VWidth: 0
GlyphClass: 2
Flags: W
PickledData: "(dp1
S'com.fontlab.hintData'
p2
(dp3
S'vhints'
p4
((dp5
S'position'
p6
I125
sS'width'
p7
I210
stp8
sS'hhints'
p9
((dp10
g6
I-23
sg7
I162
s(dp11
g6
I1327
sg7
I162
stp12
ss."
HStem: -23 166<619.347 1089.77> 1359 166<619.347 1077.18>
VStem: 121 189<482.859 1012.93>
LayerCount: 2
Fore
SplineSet
121 745 m 0
 121 1165 344 1525 830 1525 c 0
 1026 1525 1167 1481 1268 1394 c 1
 1209 1237 l 1
 1127 1307 998 1359 848 1359 c 0
 470 1359 310 1067 310 745 c 0
 310 432 470 143 848 143 c 0
 998 143 1128 190 1210 253 c 1
 1268 107 l 1
 1167 20 1026 -23 830 -23 c 0
 344 -23 121 334 121 745 c 0
EndSplineSet
EndChar

StartChar: D
Encoding: 68 68 17
Width: 1574
VWidth: 0
GlyphClass: 2
Flags: W
PickledData: "(dp1
S'com.fontlab.hintData'
p2
(dp3
S'vhints'
p4
((dp5
S'position'
p6
I199
sS'width'
p7
I196
s(dp8
g6
I1255
sg7
I214
stp9
sS'hhints'
p10
((dp11
g6
I0
sg7
I156
s(dp12
g6
I1306
sg7
I156
stp13
ss."
HStem: 0 156<332 890.292> 1341 156<332 882.547>
VStem: 155 177<156 1341> 1246 193<491.663 1008.33>
LayerCount: 2
Fore
SplineSet
155 0 m 1
 155 1497 l 1
 521 1497 l 2
 1038 1497 1439 1325 1439 748 c 0
 1439 250 1092 0 620 0 c 2
 155 0 l 1
332 1341 m 1
 332 156 l 1
 638 156 l 2
 994 156 1246 358 1246 744 c 0
 1246 1215 951 1341 542 1341 c 2
 332 1341 l 1
EndSplineSet
EndChar

StartChar: E
Encoding: 69 69 19
Width: 1169
VWidth: 0
GlyphClass: 2
Flags: W
PickledData: "(dp1
S'com.fontlab.hintData'
p2
(dp3
S'vhints'
p4
((dp5
S'position'
p6
I199
sS'width'
p7
I196
stp8
sS'hhints'
p9
((dp10
g6
I0
sg7
I156
s(dp11
g6
I680
sg7
I159
s(dp12
g6
I1306
sg7
I156
stp13
ss."
HStem: 0 156<332 1031> 680 159<332 975> 1341 156<332 1003>
VStem: 155 177<156 680 839 1341>
LayerCount: 2
Fore
SplineSet
975 839 m 1
 975 680 l 1
 332 680 l 1
 332 156 l 1
 1046 156 l 1
 1031 0 l 1
 155 0 l 1
 155 1497 l 1
 1017 1497 l 1
 1003 1341 l 1
 332 1341 l 1
 332 839 l 1
 975 839 l 1
EndSplineSet
EndChar

StartChar: Eth
Encoding: 208 208 26
Width: 1635
VWidth: 0
GlyphClass: 2
Flags: W
PickledData: "(dp1
S'com.fontlab.hintData'
p2
(dp3
S'vhints'
p4
((dp5
S'position'
p6
I188
sS'width'
p7
I169
s(dp8
g6
I1221
sg7
I178
stp9
sS'hhints'
p10
((dp11
g6
I0
sg7
I158
s(dp12
g6
I707
sg7
I149
s(dp13
g6
I1409
sg7
I159
stp14
ss."
HStem: 0 158<421 963.725> 707 149<100 269 421 637> 1409 159<421 942.547>
VStem: 269 152<158 707 856 1409> 1339 160<513.041 1057.72>
LayerCount: 2
Fore
SplineSet
269 0 m 1
 269 707 l 1
 100 707 l 1
 100 856 l 1
 269 856 l 1
 269 1568 l 1
 568 1568 l 2
 1111 1568 1499 1389 1499 781 c 0
 1499 304 1213 0 677 0 c 2
 269 0 l 1
637 707 m 1
 421 707 l 1
 421 158 l 1
 692 158 l 2
 1133 158 1339 416 1339 775 c 0
 1339 1247 1083 1409 591 1409 c 2
 421 1409 l 1
 421 856 l 1
 637 856 l 1
 637 707 l 1
EndSplineSet
EndChar

StartChar: Euro
Encoding: 8364 8364 27
Width: 1210
VWidth: 0
GlyphClass: 2
Flags: W
PickledData: "(dp1
S'com.fontlab.hintData'
p2
(dp3
S'vhints'
p4
((dp5
S'position'
p6
I194
sS'width'
p7
I173
stp8
sS'hhints'
p9
((dp10
g6
I-22
sg7
I157
s(dp11
g6
I556
sg7
I147
s(dp12
g6
I845
sg7
I147
s(dp13
g6
I1403
sg7
I156
stp14
ss."
HStem: -22 157<600.41 944.261> 556 147<124 215 387 936> 845 147<124 213 390 966> 1403 156<624.263 941.186>
VStem: 213 156<703 845>
LayerCount: 2
Fore
SplineSet
106 556 m 1
 124 703 l 1
 215 703 l 1
 215 725 213 749 213 781 c 2
 213 845 l 1
 105 845 l 1
 124 992 l 1
 231 992 l 1
 281 1322 467 1559 796 1559 c 0
 919 1559 1013 1518 1088 1432 c 1
 1057 1229 l 1
 992 1343 901 1403 790 1403 c 0
 564 1403 438 1216 390 992 c 1
 983 992 l 1
 966 845 l 1
 372 845 l 1
 372 833 369 810 369 794 c 0
 369 750 372 703 372 703 c 1
 952 703 l 1
 936 556 l 1
 387 556 l 1
 424 307 538 135 781 135 c 0
 877 135 974 179 1070 274 c 1
 1067 82 l 1
 980 9 880 -22 762 -22 c 0
 425 -22 263 213 227 556 c 1
 106 556 l 1
EndSplineSet
EndChar

StartChar: F
Encoding: 70 70 28
Width: 1095
VWidth: 0
GlyphClass: 2
Flags: W
PickledData: "(dp1
S'com.fontlab.hintData'
p2
(dp3
S'vhints'
p4
((dp5
S'position'
p6
I199
sS'width'
p7
I196
stp8
sS'hhints'
p9
((dp10
g6
I0
sg7
I21
s(dp11
g6
I670
sg7
I160
s(dp12
g6
I1306
sg7
I156
stp13
ss."
HStem: 0 21G<155 331> 670 160<331 947> 1341 156<331 967>
VStem: 155 176<0 670 830 1341>
LayerCount: 2
Fore
SplineSet
947 830 m 1
 947 670 l 1
 331 670 l 1
 331 0 l 1
 155 0 l 1
 155 1497 l 5
 981 1497 l 5
 967 1341 l 5
 331 1341 l 5
 331 830 l 1
 947 830 l 1
EndSplineSet
EndChar

StartChar: G
Encoding: 71 71 29
Width: 1489
VWidth: 0
GlyphClass: 2
Flags: W
PickledData: "(dp1
S'com.fontlab.hintData'
p2
(dp3
S'vhints'
p4
((dp5
S'position'
p6
I125
sS'width'
p7
I210
s(dp8
g6
I1160
sg7
I171
stp9
sS'hhints'
p10
((dp11
g6
I-23
sg7
I162
s(dp12
g6
I615
sg7
I149
s(dp13
g6
I1327
sg7
I162
stp14
ss."
HStem: -23 162<620.676 1082.57> 615 149<817 1187> 1363 162<620.676 1094.96>
VStem: 121 189<481.995 1013.8> 1187 154<211.756 615>
LayerCount: 2
Fore
SplineSet
121 745 m 0
 121 1165 345 1525 831 1525 c 4
 1028 1525 1200 1481 1301 1394 c 5
 1243 1237 l 5
 1156 1309 1000 1363 850 1363 c 4
 472 1363 310 1069 310 745 c 0
 310 430 472 139 850 139 c 0
 975 139 1093 179 1187 234 c 1
 1187 615 l 1
 817 615 l 1
 817 764 l 1
 1341 764 l 1
 1341 131 l 1
 1185 30 1021 -23 831 -23 c 0
 345 -23 121 334 121 745 c 0
EndSplineSet
EndChar

StartChar: H
Encoding: 72 72 32
Width: 1483
VWidth: 0
GlyphClass: 2
Flags: W
PickledData: "(dp1
S'com.fontlab.hintData'
p2
(dp3
S'vhints'
p4
((dp5
S'position'
p6
I199
sS'width'
p7
I196
s(dp8
g6
I1163
sg7
I196
stp9
sS'hhints'
p10
((dp11
g6
I0
sg7
I21
s(dp12
g6
I696
sg7
I152
s(dp13
g6
I1442
sg7
I20
stp14
ss."
HStem: 0 21G<155 331 1148 1324> 696 152<331 1148> 1477 20G<155 331 1148 1324>
VStem: 155 176<0 696 848 1497> 1148 176<0 696 848 1497>
LayerCount: 2
Fore
SplineSet
1148 696 m 1
 331 696 l 1
 331 0 l 1
 155 0 l 1
 155 1497 l 5
 331 1497 l 5
 331 848 l 1
 1148 848 l 1
 1148 1497 l 5
 1324 1497 l 5
 1324 0 l 1
 1148 0 l 1
 1148 696 l 1
EndSplineSet
EndChar

StartChar: I
Encoding: 73 73 33
Width: 490
VWidth: 0
GlyphClass: 2
Flags: W
PickledData: "(dp1
S'com.fontlab.hintData'
p2
(dp3
S'vhints'
p4
((dp5
S'position'
p6
I199
sS'width'
p7
I196
stp8
sS'hhints'
p9
((dp10
g6
I0
sg7
I21
s(dp11
g6
I1442
sg7
I20
stp12
ss."
HStem: 0 21G<155 331> 1477 20G<155 331>
VStem: 155 176<0 1497>
LayerCount: 2
Fore
SplineSet
331 1497 m 5
 331 0 l 1
 155 0 l 1
 155 1497 l 5
 331 1497 l 5
EndSplineSet
EndChar

StartChar: IJ
Encoding: 306 306 34
Width: 1464
VWidth: 0
GlyphClass: 2
Flags: W
PickledData: "(dp1
S'com.fontlab.hintData'
p2
(dp3
S'vhints'
p4
((dp5
S'position'
p6
I190
sS'width'
p7
I199
s(dp8
g6
I1141
sg7
I195
stp9
sS'hhints'
p10
((dp11
g6
I-28
sg7
I167
s(dp12
g6
I0
sg7
I21
stp13
ss."
HStem: -28 167<854 1068.27> 0 21G<155 334>
VStem: 155 179<0 1557> 1133 176<204.287 1557>
LayerCount: 2
Fore
SplineSet
334 1557 m 1x70
 334 0 l 1
 155 0 l 1
 155 1557 l 1
 334 1557 l 1x70
1133 409 m 2
 1133 1557 l 1
 1309 1557 l 1
 1309 461 l 2
 1309 133 1277 -28 887 -28 c 2
 854 -28 l 1
 854 139 l 1
 907 139 l 1xb0
 1121 145 1133 251 1133 409 c 2
EndSplineSet
EndChar

StartChar: J
Encoding: 74 74 43
Width: 665
VWidth: 0
GlyphClass: 2
Flags: W
PickledData: "(dp1
S'com.fontlab.hintData'
p2
(dp3
S'vhints'
p4
((dp5
S'position'
p6
I320
sS'width'
p7
I199
stp8
sS'hhints'
p9
((dp10
g6
I-26
sg7
I157
s(dp11
g6
I1442
sg7
I20
stp12
ss."
HStem: -26 157<94 277.838> 1477 20G<331 510>
VStem: 331 179<181.408 1497>
LayerCount: 2
Fore
SplineSet
331 384 m 2
 331 1497 l 5
 510 1497 l 5
 510 433 l 2
 510 125 475 -26 123 -26 c 2
 94 -26 l 1
 94 131 l 1
 141 131 l 1
 322 137 331 236 331 384 c 2
EndSplineSet
EndChar

StartChar: K
Encoding: 75 75 45
Width: 1340
VWidth: 0
GlyphClass: 2
Flags: W
PickledData: "(dp1
S'com.fontlab.hintData'
p2
(dp3
S'vhints'
p4
((dp5
S'position'
p6
I199
sS'width'
p7
I196
stp8
sS'hhints'
p9
((dp10
g6
I0
sg7
I21
s(dp11
g6
I1442
sg7
I20
stp12
ss."
HStem: 0 21G<155 331 1030.4 1271> 1477 20G<155 331 951.448 1202>
VStem: 155 176<0 581 770 1497>
LayerCount: 2
Fore
SplineSet
590 778 m 1
 1271 0 l 1
 1048 0 l 1
 448 682 l 1
 331 581 l 1
 331 0 l 1
 155 0 l 1
 155 1497 l 1
 331 1497 l 1
 331 770 l 1
 969 1497 l 1
 1202 1497 l 1
 590 778 l 1
EndSplineSet
EndChar

StartChar: L
Encoding: 76 76 46
Width: 1062
VWidth: 0
GlyphClass: 2
Flags: W
PickledData: "(dp1
S'com.fontlab.hintData'
p2
(dp3
S'vhints'
p4
((dp5
S'position'
p6
I199
sS'width'
p7
I196
stp8
sS'hhints'
p9
((dp10
g6
I0
sg7
I156
s(dp11
g6
I1442
sg7
I20
stp12
ss."
HStem: 0 156<332 977> 1477 20G<155 332>
VStem: 155 177<156 1497>
LayerCount: 2
Fore
SplineSet
155 1497 m 5
 332 1497 l 5
 332 156 l 1
 977 156 l 1
 977 0 l 1
 155 0 l 1
 155 1497 l 5
EndSplineSet
EndChar

StartChar: Lslash
Encoding: 321 321 49
Width: 1184
VWidth: 0
GlyphClass: 2
Flags: W
PickledData: "(dp1
S'com.fontlab.hintData'
p2
(dp3
S'vhints'
p4
((dp5
S'position'
p6
I199
sS'width'
p7
I166
stp8
sS'hhints'
p9
((dp10
g6
I0
sg7
I158
s(dp11
g6
I1085
sg7
I20
stp12
ss."
HStem: 0 158<416 1099> 1085 20G<683.526 715>
VStem: 266 150<158 650 915 1568>
LayerCount: 2
Fore
SplineSet
1099 158 m 1
 1099 0 l 1
 266 0 l 1
 266 650 l 1
 100 527 l 1
 100 675 l 1
 266 798 l 1
 266 1568 l 1
 416 1568 l 1
 416 915 l 1
 715 1105 l 1
 715 959 l 1
 416 768 l 1
 416 158 l 1
 1099 158 l 1
EndSplineSet
EndChar

StartChar: M
Encoding: 77 77 50
Width: 1801
VWidth: 0
GlyphClass: 2
Flags: W
PickledData: "(dp1
S'com.fontlab.hintData'
p2
(dp3
S'vhints'
p4
((dp5
S'position'
p6
I199
sS'width'
p7
I186
s(dp8
g6
I1471
sg7
I185
stp9
sS'hhints'
p10
((dp11
g6
I0
sg7
I21
s(dp12
g6
I1442
sg7
I20
stp13
ss."
HStem: 0 21G<155 322 1476 1642> 1477 20G<155 376.72 1429.39 1642>
VStem: 155 167<0 1159> 1476 166<0 1153>
LayerCount: 2
Fore
SplineSet
322 1159 m 5
 322 0 l 1
 155 0 l 1
 155 1497 l 5
 367 1497 l 5
 906 388 l 1
 1439 1497 l 5
 1642 1497 l 5
 1642 0 l 1
 1476 0 l 1
 1476 1153 l 5
 1004 163 l 1
 803 163 l 1
 322 1159 l 5
EndSplineSet
EndChar

StartChar: N
Encoding: 78 78 51
Width: 1508
VWidth: 0
GlyphClass: 2
Flags: W
PickledData: "(dp1
S'com.fontlab.hintData'
p2
(dp3
S'vhints'
p4
((dp5
S'position'
p6
I199
sS'width'
p7
I180
s(dp8
g6
I1199
sg7
I179
stp9
sS'hhints'
p10
((dp11
g6
I0
sg7
I21
s(dp12
g6
I1442
sg7
I20
stp13
ss."
HStem: 0 21G<155 317 1138.31 1349> 1477 20G<155 362.676 1188 1349>
VStem: 155 162<0 1230> 1188 161<261 1497>
LayerCount: 2
Fore
SplineSet
1349 0 m 1
 1152 0 l 1
 408 1087 l 5
 317 1230 l 5
 317 0 l 1
 155 0 l 1
 155 1497 l 5
 349 1497 l 5
 1095 406 l 1
 1188 261 l 1
 1188 1497 l 5
 1349 1497 l 5
 1349 0 l 1
EndSplineSet
EndChar

StartChar: O
Encoding: 79 79 54
Width: 1716
VWidth: 0
GlyphClass: 2
Flags: W
PickledData: "(dp1
S'com.fontlab.hintData'
p2
(dp3
S'vhints'
p4
((dp5
S'position'
p6
I125
sS'width'
p7
I210
s(dp8
g6
I1353
sg7
I210
stp9
sS'hhints'
p10
((dp11
g6
I-23
sg7
I162
s(dp12
g6
I1327
sg7
I162
stp13
ss."
HStem: -23 162<625.25 1076.64> 1363 162<628.492 1073.4>
VStem: 121 189<485.337 1014.48> 1391 189<485.337 1014.48>
LayerCount: 2
Fore
SplineSet
851 -23 m 4
 372 -23 121 298 121 746 c 4
 121 1221 388 1525 851 1525 c 4
 1314 1525 1580 1221 1580 746 c 4
 1580 298 1330 -23 851 -23 c 4
851 1363 m 4
 490 1363 310 1092 310 746 c 4
 310 405 488 139 851 139 c 4
 1214 139 1391 405 1391 746 c 4
 1391 1092 1212 1363 851 1363 c 4
EndSplineSet
EndChar

StartChar: OE
Encoding: 338 338 55
Width: 2025
VWidth: 0
GlyphClass: 2
Flags: W
PickledData: "(dp1
S'com.fontlab.hintData'
p2
(dp3
S'vhints'
p4
((dp5
S'position'
p6
I103
sS'width'
p7
I182
s(dp8
g6
I1117
sg7
I169
stp9
sS'hhints'
p10
((dp11
g6
I-25
sg7
I160
s(dp12
g6
I0
sg7
I158
s(dp13
g6
I724
sg7
I158
s(dp14
g6
I1409
sg7
I159
s(dp15
g6
I1438
sg7
I158
stp16
ss."
HStem: -25 160<613.581 1033.91> 0 158<1322 1905> 724 158<1322 1843> 1409 159<1322 1879> 1438 158<623.602 1048.62>
VStem: 123 163<503.125 1056.32> 1170 152<242.521 724 882 1346.63>
LayerCount: 2
Fore
SplineSet
1905 158 m 1x76
 1905 0 l 1
 1170 0 l 1x76
 1170 112 l 1
 1073 23 962 -25 837 -25 c 0
 374 -25 123 291 123 785 c 0
 123 1254 374 1596 846 1596 c 0xae
 968 1596 1076 1557 1170 1486 c 1
 1170 1568 l 1
 1879 1568 l 1
 1879 1409 l 1
 1322 1409 l 1
 1322 882 l 1
 1843 882 l 1
 1843 724 l 1
 1322 724 l 1
 1322 158 l 1
 1905 158 l 1x76
836 135 m 0xae
 975 135 1084 189 1170 284 c 1
 1170 1312 l 1
 1084 1391 976 1438 837 1438 c 0
 476 1438 286 1129 286 781 c 0
 286 420 473 135 836 135 c 0xae
EndSplineSet
EndChar

StartChar: Omega
Encoding: 937 937 60
Width: 1703
VWidth: 0
GlyphClass: 2
Flags: W
PickledData: "(dp1
S'com.fontlab.hintData'
p2
(dp3
S'vhints'
p4
((dp5
S'position'
p6
I112
sS'width'
p7
I176
s(dp8
g6
I1274
sg7
I175
stp9
sS'hhints'
p10
((dp11
g6
I0
sg7
I148
s(dp12
g6
I1409
sg7
I152
stp13
ss."
HStem: 0 148<169 483 1231 1536> 1409 152<651.954 1077.1>
VStem: 179 158<548.211 1069.63> 1384 157<554.082 1068.15>
LayerCount: 2
Fore
SplineSet
169 0 m 1
 160 148 l 1
 483 148 l 1
 294 298 179 535 179 836 c 0
 179 1278 456 1561 871 1561 c 0
 1301 1561 1541 1246 1541 831 c 0
 1541 523 1402 292 1231 148 c 1
 1543 148 l 1
 1536 0 l 1
 1020 0 l 1
 1015 130 l 1
 1229 278 1384 522 1384 812 c 0
 1384 1132 1207 1409 866 1409 c 0
 552 1409 337 1170 337 818 c 0
 337 528 480 276 697 130 c 1
 699 0 l 1
 169 0 l 1
EndSplineSet
EndChar

StartChar: Oslash
Encoding: 216 216 61
Width: 1717
VWidth: 0
GlyphClass: 2
Flags: W
PickledData: "(dp1
S'com.fontlab.hintData'
p2
(dp3
S'vhints'
p4
((dp5
S'position'
p6
I103
sS'width'
p7
I211
s(dp8
g6
I1330
sg7
I212
stp9
sS'hhints'
p10
((dp11
g6
I-25
sg7
I177
s(dp12
g6
I1409
sg7
I177
stp13
ss."
HStem: -25 177<664.441 1076.61> 1409 177<628.561 1050.89>
VStem: 121 190<509.566 1055.93> 1390 191<509.566 1055.93>
LayerCount: 2
Fore
SplineSet
1178 1745 m 1
 1309 1699 l 1
 544 -180 l 1
 419 -137 l 1
 1178 1745 l 1
851 -25 m 0
 372 -25 121 311 121 778 c 0
 121 1270 388 1586 851 1586 c 0
 1314 1586 1581 1270 1581 778 c 0
 1581 311 1330 -25 851 -25 c 0
851 1409 m 0
 490 1409 311 1133 311 785 c 0
 311 429 488 152 851 152 c 0
 1214 152 1390 429 1390 785 c 0
 1390 1133 1212 1409 851 1409 c 0
EndSplineSet
EndChar

StartChar: P
Encoding: 80 80 63
Width: 1287
VWidth: 0
GlyphClass: 2
Flags: W
PickledData: "(dp1
S'com.fontlab.hintData'
p2
(dp3
S'vhints'
p4
((dp5
S'position'
p6
I199
sS'width'
p7
I196
s(dp8
g6
I1027
sg7
I185
stp9
sS'hhints'
p10
((dp11
g6
I0
sg7
I21
s(dp12
g6
I594
sg7
I155
s(dp13
g6
I1306
sg7
I156
stp14
ss."
HStem: 0 21G<155 331> 629 155<331 862.74> 1341 156<331 867.135>
VStem: 155 176<0 629 784 1341> 1002 166<918.674 1218>
LayerCount: 2
Fore
SplineSet
155 0 m 1
 155 1497 l 5
 637 1497 l 6
 966 1497 1168 1357 1168 1068 c 4
 1168 809 980 629 664 629 c 6
 331 629 l 5
 331 0 l 1
 155 0 l 1
331 1341 m 5
 331 784 l 5
 681 784 l 6
 878 784 1002 903 1002 1066 c 4
 1002 1246 872 1341 656 1341 c 6
 331 1341 l 5
EndSplineSet
EndChar

StartChar: Q
Encoding: 81 81 64
Width: 1715
VWidth: 0
GlyphClass: 2
Flags: W
PickledData: "(dp1
S'com.fontlab.hintData'
p2
(dp3
S'vhints'
p4
((dp5
S'position'
p6
I125
sS'width'
p7
I210
s(dp8
g6
I1353
sg7
I210
stp9
sS'hhints'
p10
((dp11
g6
I-426
sg7
I21
s(dp12
g6
I-23
sg7
I166
s(dp13
g6
I1323
sg7
I166
stp14
ss."
HStem: -426 21G<1256.02 1290.67> -23 162<625.25 1076.64> 1363 162<628.492 1073.4>
VStem: 121 189<485.337 1014.48> 1391 189<485.337 1014.48>
LayerCount: 2
Fore
SplineSet
851 -23 m 4
 372 -23 121 298 121 746 c 4
 121 1221 388 1525 851 1525 c 4
 1314 1525 1580 1221 1580 746 c 4
 1580 298 1330 -23 851 -23 c 4
851 1363 m 4
 490 1363 310 1092 310 746 c 4
 310 405 488 139 851 139 c 4
 1214 139 1391 405 1391 746 c 4
 1391 1092 1212 1363 851 1363 c 4
958 -8 m 1
 1132 21 l 1
 1224 -164 1389 -306 1389 -306 c 1
 1271 -426 l 1
 1271 -426 1068 -233 958 -8 c 1
EndSplineSet
EndChar

StartChar: R
Encoding: 82 82 65
Width: 1389
VWidth: 0
GlyphClass: 2
Flags: W
PickledData: "(dp1
S'com.fontlab.hintData'
p2
(dp3
S'vhints'
p4
((dp5
S'position'
p6
I199
sS'width'
p7
I196
s(dp8
g6
I1058
sg7
I193
stp9
sS'hhints'
p10
((dp11
g6
I0
sg7
I21
s(dp12
g6
I647
sg7
I159
s(dp13
g6
I1306
sg7
I156
stp14
ss."
HStem: 0 21G<155 331 1084.1 1275> 682 159<331 792.516> 1341 156<331 922.703>
VStem: 155 176<0 682 841 1341> 1035 174<951.943 1242.31>
LayerCount: 2
Fore
SplineSet
1275 0 m 1
 1093 0 l 1
 882 474 l 2
 848.015 563.25 799.782 633.5 769 684 c 1
 724 682.5 673 682 616 682 c 2
 331 682 l 1
 331 0 l 1
 155 0 l 1
 155 1497 l 1
 614 1497 l 2
 943 1497 1209 1442 1209 1105 c 0
 1209 920.548 1124.01 771.373 927 724 c 1
 969.632 670 1011.54 611 1039 532 c 2
 1275 0 l 1
331 1341 m 1
 331 841 l 1
 657 841 l 2
 928 841 1035 937 1035 1102 c 0
 1035 1258 928 1341 698 1341 c 2
 331 1341 l 1
EndSplineSet
EndChar

StartChar: R.alt
Encoding: 65537 -1 66
Width: 1318
VWidth: 0
GlyphClass: 2
Flags: W
PickledData: "(dp1
S'com.fontlab.hintData'
p2
(dp3
S'vhints'
p4
((dp5
S'position'
p6
I201
sS'width'
p7
I183
s(dp8
g6
I998
sg7
I187
stp9
sS'hhints'
p10
((dp11
g6
I0
sg7
I21
s(dp12
g6
I647
sg7
I159
s(dp13
g6
I1306
sg7
I160
stp14
ss."
HStem: 0 21G<155 320 1008.84 1198> 647 159<320 675.89> 1306 160<320 850.119>
VStem: 155 165<0 647 806 1306> 971 176<925.453 1200.06>
LayerCount: 2
Fore
SplineSet
1198 0 m 1
 1018 0 l 1
 849 369 l 1
 798 483 745 569 678 639 c 1
 633 645 587 647 530 647 c 2
 320 647 l 1
 320 0 l 1
 155 0 l 1
 155 1466 l 1
 492 1466 l 2
 545 1466 604 1464 664 1464 c 1
 953 1458 1147 1331 1147 1077 c 0
 1147 894 1055 737 832 690 c 1
 990 547 1068 325 1198 0 c 1
320 1306 m 1
 320 806 l 1
 630 806 l 2
 836 806 971 902 971 1067 c 0
 971 1227 841 1306 630 1306 c 2
 320 1306 l 1
EndSplineSet
EndChar

StartChar: R.alt.001
Encoding: 65538 -1 67
Width: 1318
VWidth: 0
GlyphClass: 2
Flags: W
PickledData: "(dp1
S'com.fontlab.hintData'
p2
(dp3
S'vhints'
p4
((dp5
S'position'
p6
I201
sS'width'
p7
I183
s(dp8
g6
I998
sg7
I187
stp9
sS'hhints'
p10
((dp11
g6
I0
sg7
I21
s(dp12
g6
I647
sg7
I159
s(dp13
g6
I1306
sg7
I160
stp14
ss."
HStem: 0 21G<155 320 1008.84 1198> 647 159<320 675.89> 1306 160<320 850.119>
VStem: 155 165<0 647 806 1306> 971 176<925.453 1200.06>
LayerCount: 2
Fore
SplineSet
1198 0 m 1
 1018 0 l 1
 849 369 l 1
 798 483 745 569 678 639 c 1
 633 645 587 647 530 647 c 2
 320 647 l 1
 320 0 l 1
 155 0 l 1
 155 1466 l 1
 492 1466 l 2
 545 1466 604 1464 664 1464 c 1
 953 1458 1147 1331 1147 1077 c 0
 1147 894 1055 737 832 690 c 1
 990 547 1068 325 1198 0 c 1
320 1306 m 1
 320 806 l 1
 630 806 l 2
 836 806 971 902 971 1067 c 0
 971 1227 841 1306 630 1306 c 2
 320 1306 l 1
EndSplineSet
EndChar

StartChar: S
Encoding: 83 83 71
Width: 1335
VWidth: 0
GlyphClass: 2
Flags: W
PickledData: "(dp1
S'com.fontlab.hintData'
p2
(dp3
S'vhints'
p4
((dp5
S'position'
p6
I109
sS'width'
p7
I195
s(dp8
g6
I983
sg7
I198
stp9
sS'hhints'
p10
((dp11
g6
I-23
sg7
I162
s(dp12
g6
I1321
sg7
I168
stp13
ss."
HStem: -23 162<359.728 895.657> 1357 168<442.193 973.535>
VStem: 137 176<1002.38 1252.74> 1022 178<252.547 545.241>
LayerCount: 2
Fore
SplineSet
748 669 m 2
 476 725 l 2
 270 770 137 897 137 1119 c 0
 137 1378 365 1525 689 1525 c 0
 875 1525 1052 1484 1150 1414 c 1
 1090 1261 l 1
 1014 1311 851 1357 689 1357 c 0
 465 1357 313 1284 313 1136 c 0
 313 1011 391 938 546 904 c 2
 822 843 l 2
 1049 789 1200 659 1200 401 c 0
 1200 110 976 -23 672 -23 c 0
 405 -23 227 45 133 100 c 1
 191 261 l 1
 297 184 486 139 680 139 c 0
 882 139 1022 219 1022 392 c 0
 1022 529 958 626 748 669 c 2
EndSplineSet
EndChar

StartChar: Scommaaccent
Encoding: 65539 -1 74
Width: 1218
VWidth: 0
GlyphClass: 2
Flags: W
PickledData: "(dp1
S'com.fontlab.hintData'
p2
(dp3
S'vhints'
p4
((dp5
S'position'
p6
I133
sS'width'
p7
I192
s(dp8
g6
I931
sg7
I201
stp9
sS'hhints'
p10
((dp11
g6
I-23
sg7
I169
s(dp12
g6
I1321
sg7
I168
stp13
ss."
HStem: -23 169<322.614 802.158> 1321 168<397.385 881.215>
VStem: 120 172<978.782 1228.63> 924 181<254.319 518.764>
LayerCount: 2
Fore
SplineSet
640 649 m 2
 446 705 l 2
 257 765 120 870 120 1083 c 0
 120 1342 320 1489 607 1489 c 0
 786 1489 958 1448 1052 1378 c 1
 996 1225 l 1
 923 1275 755 1321 603 1321 c 0
 409 1321 292 1248 292 1100 c 0
 292 984 364 929 514 884 c 1
 713 823 l 1
 947 751 1105 647 1105 401 c 0
 1105 110 882 -23 589 -23 c 0
 350 -23 199 48 113 103 c 1
 173 267 l 1
 267 193 422 146 595 146 c 0
 780 146 924 223 924 392 c 0
 924 519 844 589 640 649 c 2
428 -631 m 1
 540 -163 l 1
 733 -163 l 1
 564 -631 l 1
 428 -631 l 1
EndSplineSet
EndChar

StartChar: T
Encoding: 84 84 75
Width: 1167
VWidth: 0
GlyphClass: 2
Flags: W
PickledData: "(dp1
S'com.fontlab.hintData'
p2
(dp3
S'vhints'
p4
((dp5
S'position'
p6
I463
sS'width'
p7
I196
stp8
sS'hhints'
p9
((dp10
g6
I0
sg7
I21
s(dp11
g6
I1306
sg7
I156
stp12
ss."
HStem: 0 21G<495 671> 1341 156<68 495 671 1100>
VStem: 495 176<0 1341>
LayerCount: 2
Fore
SplineSet
68 1341 m 5
 68 1497 l 5
 1100 1497 l 5
 1100 1341 l 5
 671 1341 l 5
 671 0 l 1
 495 0 l 1
 495 1341 l 5
 68 1341 l 5
EndSplineSet
EndChar

StartChar: Thorn
Encoding: 222 222 77
Width: 1334
VWidth: 0
GlyphClass: 2
Flags: W
PickledData: "(dp1
S'com.fontlab.hintData'
p2
(dp3
S'vhints'
p4
((dp5
S'position'
p6
I176
sS'width'
p7
I183
s(dp8
g6
I1033
sg7
I188
stp9
sS'hhints'
p10
((dp11
g6
I0
sg7
I21
s(dp12
g6
I373
sg7
I165
s(dp13
g6
I1116
sg7
I169
stp14
ss."
HStem: 0 21G<155 320> 373 165<320 879.468> 1116 169<320 887.508>
VStem: 155 165<0 373 538 1116 1285 1557> 1036 169<676.81 981.176>
LayerCount: 2
Fore
SplineSet
155 0 m 1
 155 1557 l 1
 320 1557 l 1
 320 1285 l 1
 641 1285 l 2
 986 1285 1205 1145 1205 829 c 0
 1205 557 1001 373 667 373 c 2
 320 373 l 1
 320 0 l 1
 155 0 l 1
320 1116 m 1
 320 538 l 1
 686 538 l 2
 902 538 1036 658 1036 826 c 0
 1036 1021 891 1116 659 1116 c 2
 320 1116 l 1
EndSplineSet
EndChar

StartChar: U
Encoding: 85 85 78
Width: 1420
VWidth: 0
GlyphClass: 2
Flags: W
PickledData: "(dp1
S'com.fontlab.hintData'
p2
(dp3
S'vhints'
p4
((dp5
S'position'
p6
I184
sS'width'
p7
I196
s(dp8
g6
I1106
sg7
I195
stp9
sS'hhints'
p10
((dp11
g6
I-23
sg7
I166
s(dp12
g6
I1442
sg7
I20
stp13
ss."
HStem: -23 166<480.26 934.067> 1477 20G<146 322 1094 1269>
VStem: 146 176<312.812 1497> 1094 175<312.812 1497>
LayerCount: 2
Fore
SplineSet
707 -23 m 0
 272 -23 146 209 146 541 c 2
 146 1497 l 5
 322 1497 l 5
 322 547 l 2
 322 256 437 143 707 143 c 0
 977 143 1094 256 1094 547 c 2
 1094 1497 l 5
 1269 1497 l 5
 1269 541 l 2
 1269 209 1142 -23 707 -23 c 0
EndSplineSet
EndChar

StartChar: V
Encoding: 86 86 84
Width: 1416
VWidth: 0
GlyphClass: 2
Flags: W
PickledData: "(dp1
S'com.fontlab.hintData'
p2
(dp3
S'hhints'
p4
((dp5
S'position'
p6
I0
sS'width'
p7
I21
s(dp8
g6
I1442
sg7
I20
stp9
ss."
HStem: 0 21G<581.026 780.722> 1477 20G<66 263.544 1161.45 1351>
LayerCount: 2
Fore
SplineSet
684 167 m 1
 757 406 l 1
 1169 1497 l 5
 1351 1497 l 5
 773 0 l 1
 588 0 l 1
 66 1497 l 5
 257 1497 l 5
 614 406 l 1
 684 167 l 1
EndSplineSet
EndChar

StartChar: W
Encoding: 87 87 85
Width: 2108
VWidth: 0
GlyphClass: 2
Flags: W
PickledData: "(dp1
S'com.fontlab.hintData'
p2
(dp3
S'hhints'
p4
((dp5
S'position'
p6
I0
sS'width'
p7
I21
s(dp8
g6
I1442
sg7
I20
stp9
ss."
HStem: 0 21G<443.03 662.346 1440.67 1661.97> 1477 20G<76 263.6 946.923 1168.99 1842.48 2029>
LayerCount: 2
Fore
SplineSet
1553 195 m 1
 1847 1497 l 5
 2029 1497 l 5
 1657 0 l 1
 1447 0 l 1
 1052 1248 l 5
 656 0 l 1
 448 0 l 1
 76 1497 l 5
 259 1497 l 5
 558 197 l 1
 953 1497 l 5
 1163 1497 l 5
 1553 195 l 1
EndSplineSet
EndChar

StartChar: X
Encoding: 88 88 86
Width: 1457
VWidth: 0
GlyphClass: 2
Flags: W
PickledData: "(dp1
S'com.fontlab.hintData'
p2
(dp3
S'hhints'
p4
((dp5
S'position'
p6
I0
sS'width'
p7
I21
s(dp8
g6
I1442
sg7
I20
stp9
ss."
HStem: 0 21G<93 301.147 1152.35 1370> 1477 20G<125 352.322 1157.79 1362>
LayerCount: 2
Fore
SplineSet
93 0 m 1
 618 781 l 5
 125 1497 l 5
 339 1497 l 5
 742 892 l 5
 1172 1497 l 5
 1362 1497 l 5
 863 781 l 5
 1370 0 l 1
 1165 0 l 1
 735 680 l 5
 288 0 l 1
 93 0 l 1
EndSplineSet
EndChar

StartChar: Y
Encoding: 89 89 87
Width: 1366
VWidth: 0
GlyphClass: 2
Flags: W
PickledData: "(dp1
S'com.fontlab.hintData'
p2
(dp3
S'vhints'
p4
((dp5
S'position'
p6
I523
sS'width'
p7
I196
stp8
sS'hhints'
p9
((dp10
g6
I0
sg7
I21
s(dp11
g6
I1442
sg7
I20
stp12
ss."
HStem: 0 21G<572 749> 1477 20G<61 260.933 1100.9 1305>
VStem: 572 177<0 614>
LayerCount: 2
Fore
SplineSet
1305 1497 m 5
 749 614 l 5
 749 0 l 1
 572 0 l 1
 572 614 l 5
 61 1497 l 5
 249 1497 l 5
 678 778 l 5
 1113 1497 l 5
 1305 1497 l 5
EndSplineSet
EndChar

StartChar: Z
Encoding: 90 90 90
Width: 1287
VWidth: 0
GlyphClass: 2
Flags: W
PickledData: "(dp1
S'com.fontlab.hintData'
p2
(dp3
S'hhints'
p4
((dp5
S'position'
p6
I0
sS'width'
p7
I156
s(dp8
g6
I1300
sg7
I162
stp9
ss."
HStem: 0 156<344 1178> 1335 162<154 951>
LayerCount: 2
Fore
SplineSet
1186 1497 m 5
 1186 1372 l 5
 344 156 l 1
 1178 156 l 1
 1178 0 l 1
 120 0 l 1
 120 139 l 1
 951 1335 l 5
 154 1335 l 5
 154 1497 l 5
 1186 1497 l 5
EndSplineSet
EndChar

StartChar: a
Encoding: 97 97 94
Width: 1117
VWidth: 0
GlyphClass: 2
Flags: W
PickledData: "(dp1
S'com.fontlab.hintData'
p2
(dp3
S'vhints'
p4
((dp5
S'position'
p6
I93
sS'width'
p7
I186
s(dp8
g6
I751
sg7
I187
stp9
sS'hhints'
p10
((dp11
g6
I-25
sg7
I144
s(dp12
g6
I0
sg7
I21
s(dp13
g6
I500
sg7
I117
s(dp14
g6
I976
sg7
I148
stp15
ss."
HStem: -25 144<347.819 695.873> 0 21G<834.548 965> 500 117<403.898 796> 976 148<325.84 734.045>
VStem: 127 168<170.441 424.298> 796 169<171.947 500 614.742 917.588> 841 124<0 44.4416>
LayerCount: 2
Fore
SplineSet
841 0 m 1x7a
 821 62 l 1
 647 -2 538 -25 435 -25 c 0
 264 -25 127 89 127 292 c 0
 127 631 476 591 796 617 c 1
 796 781 l 2
 796 914 722 976 582 976 c 0
 446 976 314 940 224 882 c 1
 190 1036 l 1
 271 1082 428 1124 578 1124 c 0
 795 1124 965 1051 965 806 c 2xbc
 965 0 l 1
 841 0 l 1x7a
796 184 m 1
 796 500 l 1
 408 480 295 474 295 301 c 0
 295 184 368 119 456 119 c 0
 583 119 669 146 796 184 c 1
EndSplineSet
EndChar

StartChar: a.alt
Encoding: 65540 -1 95
Width: 1112
VWidth: 0
GlyphClass: 2
Flags: W
PickledData: "(dp1
S'com.fontlab.hintData'
p2
(dp3
S'vhints'
p4
((dp5
S'position'
p6
I126
sS'width'
p7
I186
s(dp8
g6
I778
sg7
I188
stp9
sS'hhints'
p10
((dp11
g6
I-25
sg7
I144
s(dp12
g6
I0
sg7
I21
s(dp13
g6
I490
sg7
I120
s(dp14
g6
I971
sg7
I153
stp15
ss."
HStem: -25 144<347.398 692.673> 0 21G<829.548 960> 490 120<380.289 791> 971 153<319.532 733.178>
VStem: 128 167<170.441 422.612> 791 169<171.947 490 610 908.624> 836 124<0 44.4416>
LayerCount: 2
Fore
SplineSet
836 0 m 1x7a
 816 62 l 1
 646 -2 535 -25 434 -25 c 0
 263 -25 128 89 128 292 c 0
 128 624 363 610 791 610 c 1
 791 781 l 2
 791 911 716 971 577 971 c 0
 444 971 314 937 225 882 c 1
 191 1036 l 1
 271 1082 425 1124 573 1124 c 0
 790 1124 960 1051 960 806 c 2xbc
 960 0 l 1
 836 0 l 1x7a
791 184 m 1
 791 490 l 1
 407 490 295 465 295 301 c 0
 295 184 368 119 456 119 c 0
 581 119 666 146 791 184 c 1
EndSplineSet
EndChar

StartChar: acute
Encoding: 180 180 99
Width: 639
VWidth: 0
GlyphClass: 2
Flags: W
PickledData: "(dp1
S'com.fontlab.hintData'
p2
(dp3
S'vhints'
p4
((dp5
S'position'
p6
I155
sS'width'
p7
I459
stp8
sS'hhints'
p9
((dp10
g6
I1267
sg7
I336
stp11
ss."
HStem: 1267 336
VStem: 128 413
LayerCount: 2
Fore
SplineSet
541 1603 m 1
 257 1267 l 1
 128 1267 l 1
 330 1603 l 1
 541 1603 l 1
EndSplineSet
EndChar

StartChar: ae
Encoding: 230 230 101
Width: 1846
VWidth: 0
GlyphClass: 2
Flags: W
PickledData: "(dp1
S'com.fontlab.hintData'
p2
(dp3
S'vhints'
p4
((dp5
S'position'
p6
I81
sS'width'
p7
I164
s(dp8
g6
I755
sg7
I166
s(dp9
g6
I1492
sg7
I167
stp10
sS'hhints'
p11
((dp12
g6
I-28
sg7
I149
s(dp13
g6
I517
sg7
I146
s(dp14
g6
I988
sg7
I146
stp15
ss."
HStem: -28 149<341.729 678.053 1083.42 1380.74> 517 146<391.148 813 967 1571> 988 146<380.397 713.289 1123.32 1441.43>
VStem: 126 148<187.197 428.266> 814 150<274.662 517 663 810.128> 1571 150<663 842.247>
LayerCount: 2
Fore
SplineSet
262 822 m 1
 182 921 l 1
 249 1071 398 1134 583 1134 c 0
 710 1134 878 1067 909 921 c 1
 978 1062 1115 1134 1265 1134 c 0
 1595 1134 1721 902 1721 563 c 2
 1721 517 l 1
 964 517 l 1
 964 498 l 2
 964 306 1022 121 1228 121 c 0
 1348 121 1456 195 1523 316 c 1
 1600 222 l 1
 1520 58 1390 -28 1219 -28 c 0
 1076 -28 951 59 886 212 c 1
 809 64 656 -32 472 -32 c 0
 256 -32 126 97 126 305 c 0
 126 640 439 661 813 661 c 1
 813 678 l 2
 813 844 750 988 571 988 c 0
 440 988 328 943 262 822 c 1
814 517 m 1
 666 511 l 1
 462 507 274 490 274 314 c 0
 274 173 384 117 507 117 c 0
 748 117 814 307 814 517 c 1
967 663 m 1
 1571 663 l 1
 1571 675 l 1
 1554 859 1470 988 1285 988 c 0
 1095 988 980 835 967 663 c 1
EndSplineSet
EndChar

StartChar: afii10024
Encoding: 1046 1046 103
Width: 2051
VWidth: 0
GlyphClass: 2
Flags: W
PickledData: "(dp1
S'com.fontlab.hintData'
p2
(dp3
S'vhints'
p4
((dp5
S'position'
p6
I808
sS'width'
p7
I196
stp8
sS'hhints'
p9
((dp10
g6
I0
sg7
I21
s(dp11
g6
I1442
sg7
I20
stp12
ss."
HStem: 0 21G<95 331.687 924 1100 1691.37 1927> 1442 20G<163 409.318 924 1100 1611.77 1860>
VStem: 924 176<0 543 770 1462>
LayerCount: 2
Fore
SplineSet
1100 1462 m 1
 1100 770 l 1
 1627 1462 l 1
 1860 1462 l 1
 1360 778 l 1
 1927 0 l 1
 1706 0 l 1
 1216 670 l 1
 1100 543 l 1
 1100 0 l 1
 924 0 l 1
 924 543 l 1
 809 670 l 1
 317 0 l 1
 95 0 l 1
 665 778 l 1
 163 1462 l 1
 394 1462 l 1
 924 770 l 1
 924 1462 l 1
 1100 1462 l 1
EndSplineSet
EndChar

StartChar: afii10025
Encoding: 1047 1047 104
Width: 1238
VWidth: 0
GlyphClass: 2
Flags: W
PickledData: "(dp1
S'com.fontlab.hintData'
p2
(dp3
S'vhints'
p4
((dp5
S'position'
p6
I871
sS'width'
p7
I194
s(dp8
g6
I904
sg7
I195
stp9
sS'hhints'
p10
((dp11
g6
I-26
sg7
I167
s(dp12
g6
I642
sg7
I170
s(dp13
g6
I1310
sg7
I181
stp14
ss."
HStem: -26 167<307.329 783.75> 642 170<463 781.123> 1310 181<359.882 774.954>
VStem: 890 174<919.644 1205.26> 924 176<261.221 514.508>
LayerCount: 2
Fore
SplineSet
924 403 m 0xe8
 924 503 798 642 621 642 c 2
 463 642 l 1
 463 812 l 1
 630 812 l 2
 775 812 890 911 890 1067 c 0
 890 1243 744 1310 586 1310 c 0
 456 1310 323 1266 248 1197 c 1
 182 1356 l 1
 293 1456 439 1491 618 1491 c 0
 929 1491 1064 1258 1064 1102 c 0xf0
 1064 924 993 788 878 733 c 1
 993 683 1100 577 1100 392 c 0
 1100 138 923 -26 575 -26 c 0
 378 -26 195 22 111 103 c 1
 174 257 l 1
 260 188 410 141 563 141 c 0
 753 141 924 212 924 403 c 0xe8
EndSplineSet
EndChar

StartChar: afii10026
Encoding: 1048 1048 105
Width: 1515
VWidth: 0
GlyphClass: 2
Flags: W
PickledData: "(dp1
S'com.fontlab.hintData'
p2
(dp3
S'vhints'
p4
((dp5
S'position'
p6
I176
sS'width'
p7
I181
s(dp8
g6
I1177
sg7
I179
stp9
sS'hhints'
p10
((dp11
g6
I0
sg7
I21
s(dp12
g6
I1442
sg7
I20
stp13
ss."
HStem: 0 21G<160 373.125 1194 1355> 1442 20G<160 323 1147.89 1355>
VStem: 160 163<261 1462> 1194 161<0 1195>
LayerCount: 2
Fore
SplineSet
160 0 m 1
 160 1462 l 1
 323 1462 l 1
 323 261 l 1
 417 406 l 1
 1162 1462 l 1
 1355 1462 l 1
 1355 0 l 1
 1194 0 l 1
 1194 1195 l 1
 1102 1052 l 1
 359 0 l 1
 160 0 l 1
EndSplineSet
EndChar

StartChar: afii10028
Encoding: 1050 1050 107
Width: 1397
VWidth: 0
GlyphClass: 2
Flags: W
PickledData: "(dp1
S'com.fontlab.hintData'
p2
(dp3
S'vhints'
p4
((dp5
S'position'
p6
I176
sS'width'
p7
I196
stp8
sS'hhints'
p9
((dp10
g6
I0
sg7
I21
s(dp11
g6
I1442
sg7
I20
stp12
ss."
HStem: 0 21G<160 336 1035.4 1276> 1442 20G<160 336 955.561 1207>
VStem: 160 176<0 581 770 1462>
LayerCount: 2
Fore
SplineSet
595 778 m 1
 1276 0 l 1
 1053 0 l 1
 453 682 l 1
 336 581 l 1
 336 0 l 1
 160 0 l 1
 160 1462 l 1
 336 1462 l 1
 336 770 l 1
 974 1462 l 1
 1207 1462 l 1
 595 778 l 1
EndSplineSet
EndChar

StartChar: afii10037
Encoding: 1059 1059 108
Width: 1344
VWidth: 0
GlyphClass: 2
Flags: W
PickledData: "(dp1
S'com.fontlab.hintData'
p2
(dp3
S'hhints'
p4
((dp5
S'position'
p6
I0
sS'width'
p7
I21
s(dp8
g6
I1442
sg7
I20
stp9
ss."
HStem: 0 21G<401 606.22> 1442 20G<58 275.488 1064.76 1271>
LayerCount: 2
Fore
SplineSet
597 0 m 1
 401 0 l 1
 568 436 l 1
 58 1462 l 1
 265 1462 l 1
 695 642 l 1
 1074 1462 l 1
 1271 1462 l 1
 597 0 l 1
EndSplineSet
EndChar

StartChar: afii10040
Encoding: 1062 1062 109
Width: 1591
VWidth: 0
GlyphClass: 2
Flags: W
PickledData: "(dp1
S'com.fontlab.hintData'
p2
(dp3
S'vhints'
p4
((dp5
S'position'
p6
I176
sS'width'
p7
I196
s(dp8
g6
I1141
sg7
I195
s(dp9
g6
I1270
sg7
I194
stp10
sS'hhints'
p11
((dp12
g6
I0
sg7
I152
s(dp13
g6
I1442
sg7
I20
stp14
ss."
HStem: 0 152<337 1154> 1442 20G<160 337 1154 1329>
VStem: 160 177<152 1462> 1154 175<152 1462> 1270 175<-265 0>
LayerCount: 2
Fore
SplineSet
1154 152 m 1xf0
 1154 1462 l 1
 1329 1462 l 1
 1329 152 l 1xf0
 1445 152 l 1
 1445 -265 l 1
 1270 -265 l 1
 1270 0 l 1xe8
 160 0 l 1
 160 1462 l 1
 337 1462 l 1
 337 152 l 1
 1154 152 l 1xf0
EndSplineSet
EndChar

StartChar: afii10041
Encoding: 1063 1063 110
Width: 1257
VWidth: 0
GlyphClass: 2
Flags: W
PickledData: "(dp1
S'com.fontlab.hintData'
p2
(dp3
S'vhints'
p4
((dp5
S'position'
p6
I161
sS'width'
p7
I196
s(dp8
g6
I936
sg7
I196
stp9
sS'hhints'
p10
((dp11
g6
I0
sg7
I21
s(dp12
g6
I507
sg7
I165
stp13
ss."
HStem: 0 21G<921 1097> 507 165<420.263 709.564>
VStem: 130 176<790.907 1447> 921 176<0 682 871.376 1447>
LayerCount: 2
Fore
SplineSet
921 973 m 2
 921 1447 l 1
 1097 1447 l 1
 1097 0 l 1
 921 0 l 1
 921 682 l 1
 841 564 683 507 544 507 c 0
 292 507 130 653 130 916 c 2
 130 1447 l 1
 306 1447 l 1
 306 1014 l 2
 306 775 396 672 581 672 c 0
 725 672 921 873 921 973 c 2
EndSplineSet
EndChar

StartChar: afii10043
Encoding: 1065 1065 111
Width: 1834
VWidth: 0
GlyphClass: 2
Flags: W
PickledData: "(dp1
S'com.fontlab.hintData'
p2
(dp3
S'vhints'
p4
((dp5
S'position'
p6
I176
sS'width'
p7
I196
s(dp8
g6
I789
sg7
I195
s(dp9
g6
I1399
sg7
I196
s(dp10
g6
I1529
sg7
I195
stp11
sS'hhints'
p12
((dp13
g6
I0
sg7
I152
s(dp14
g6
I1442
sg7
I20
stp15
ss."
HStem: 0 152<337 779 955 1395> 1442 20G<160 337 779 955 1395 1571>
VStem: 160 177<152 1462> 779 176<152 1462> 1395 176<152 1462> 1512 176<-265 0>
LayerCount: 2
Fore
SplineSet
337 152 m 1xf4
 779 152 l 1
 779 1462 l 1
 955 1462 l 1
 955 152 l 1
 1395 152 l 1
 1395 1462 l 1
 1571 1462 l 1
 1571 152 l 1xf8
 1688 152 l 1
 1688 -265 l 1
 1512 -265 l 1
 1512 0 l 1
 160 0 l 1
 160 1462 l 1
 337 1462 l 1
 337 152 l 1xf4
EndSplineSet
EndChar

StartChar: afii10047
Encoding: 1069 1069 112
Width: 1399
VWidth: 0
GlyphClass: 2
Flags: W
PickledData: "(dp1
S'com.fontlab.hintData'
p2
(dp3
S'vhints'
p4
((dp5
S'position'
p6
I1042
sS'width'
p7
I215
stp8
sS'hhints'
p9
((dp10
g6
I-23
sg7
I166
s(dp11
g6
I634
sg7
I190
s(dp12
g6
I1323
sg7
I166
stp13
ss."
HStem: -23 166<312.409 770.411> 634 190<383 1075> 1323 166<312.409 765.092>
VStem: 1075 193<466.849 634 824 990.076>
LayerCount: 2
Fore
SplineSet
1268 735 m 0
 1268 329 1046 -23 560 -23 c 0
 364 -23 223 23 122 112 c 1
 181 269 l 1
 263 197 390 143 540 143 c 0
 875 143 1043 367 1075 634 c 1
 383 634 l 1
 383 824 l 1
 1075 824 l 1
 1045 1093 877 1323 540 1323 c 0
 390 1323 263 1269 181 1197 c 1
 122 1354 l 1
 223 1443 364 1489 560 1489 c 0
 1046 1489 1268 1141 1268 735 c 0
EndSplineSet
EndChar

StartChar: afii10066
Encoding: 1073 1073 114
Width: 1122
VWidth: 0
GlyphClass: 2
Flags: W
PickledData: "(dp1
S'com.fontlab.hintData'
p2
(dp3
S'vhints'
p4
((dp5
S'position'
p6
I155
sS'width'
p7
I195
s(dp8
g6
I822
sg7
I180
stp9
sS'hhints'
p10
((dp11
g6
I0
sg7
I158
s(dp12
g6
I568
sg7
I161
s(dp13
g6
I939
sg7
I159
stp14
ss."
HStem: 0 158<328 747.829> 568 161<328 747.829> 939 159<328 881>
VStem: 152 176<158 568 729 939> 830 162<242.947 492.312>
LayerCount: 2
Fore
SplineSet
620 568 m 2
 328 568 l 1
 328 158 l 1
 620 158 l 2
 753 158 830 272 830 371 c 0
 830 470 753 568 620 568 c 2
152 1098 m 1
 881 1098 l 1
 881 939 l 1
 328 939 l 1
 328 729 l 1
 602 729 l 2
 871 729 992 548 992 368 c 0
 992 188 871 0 602 0 c 2
 152 0 l 1
 152 1098 l 1
EndSplineSet
EndChar

StartChar: afii10067
Encoding: 1074 1074 115
Width: 1143
VWidth: 0
GlyphClass: 2
Flags: W
PickledData: "(dp1
S'com.fontlab.hintData'
p2
(dp3
S'vhints'
p4
((dp5
S'position'
p6
I155
sS'width'
p7
I187
s(dp8
g6
I804
sg7
I178
s(dp9
g6
I835
sg7
I179
stp10
sS'hhints'
p11
((dp12
g6
I0
sg7
I158
s(dp13
g6
I498
sg7
I146
s(dp14
g6
I939
sg7
I159
stp15
ss."
HStem: 0 158<320 772.475> 498 146<320 758.516> 939 159<320 761.367>
VStem: 152 168<158 498 644 939> 811 160<697.084 889.749> 844 161<227.081 425.003>
LayerCount: 2
Fore
SplineSet
1005 316 m 0xf4
 1005 158 880 0 604 0 c 2
 152 0 l 1
 152 1098 l 1
 604 1098 l 2
 862 1098 971 956 971 808 c 0xf8
 971 719 938 630 852 571 c 1
 950 507 1000 411 1005 316 c 0xf4
613 498 m 2
 320 498 l 1
 320 158 l 1
 613 158 l 2
 761 158 844 242 844 326 c 0xf4
 839 410 761 498 613 498 c 2
320 644 m 1
 613 644 l 2
 746 644 811 719 811 796 c 0xf8
 811 869 746 939 613 939 c 2
 320 939 l 1
 320 644 l 1
EndSplineSet
EndChar

StartChar: afii10072
Encoding: 1078 1078 117
Width: 1802
VWidth: 0
GlyphClass: 2
Flags: W
PickledData: "(dp1
S'com.fontlab.hintData'
p2
(dp3
S'vhints'
p4
((dp5
S'position'
p6
I713
sS'width'
p7
I183
stp8
sS'hhints'
p9
((dp10
g6
I0
sg7
I21
s(dp11
g6
I941
sg7
I169
stp12
ss."
HStem: 0 21G<96 340.819 803 968 1430.18 1674> 941 169<188 358.29 1412 1583>
VStem: 803 165<0 464 612 1098>
LayerCount: 2
Fore
SplineSet
968 0 m 1
 803 0 l 1
 803 464 l 1
 320 0 l 1
 96 0 l 1
 619 542 l 1
 549 642 l 1
 412 837 360 941 258 941 c 0
 237 941 215 936 188 932 c 1
 188 1098 l 1
 224 1104 256 1110 283 1110 c 0
 484 1110 501 1006 666 801 c 1
 803 612 l 1
 803 1098 l 1
 968 1098 l 1
 968 612 l 1
 1103 801 l 1
 1268 1006 1287 1110 1488 1110 c 0
 1515 1110 1547 1104 1583 1098 c 1
 1583 932 l 1
 1556 936 1533 941 1512 941 c 0
 1410 941 1357 837 1220 642 c 1
 1152 542 l 1
 1674 0 l 1
 1451 0 l 1
 968 464 l 1
 968 0 l 1
EndSplineSet
EndChar

StartChar: afii10073
Encoding: 1079 1079 118
Width: 1071
VWidth: 0
GlyphClass: 2
Flags: W
PickledData: "(dp1
S'com.fontlab.hintData'
p2
(dp3
S'vhints'
p4
((dp5
S'position'
p6
I793
sS'width'
p7
I181
s(dp8
g6
I824
sg7
I183
stp9
sS'hhints'
p10
((dp11
g6
I-25
sg7
I160
s(dp12
g6
I490
sg7
I150
s(dp13
g6
I966
sg7
I158
stp14
ss."
HStem: -25 160<257.457 682.77> 490 150<344 675.825> 966 158<258.458 661.971>
VStem: 732 163<692.899 901.665> 765 165<206.617 421.786>
LayerCount: 2
Fore
SplineSet
930 305 m 0xe8
 930 125 796 -25 477 -25 c 0
 350 -25 208 7 130 86 c 1
 151 132 170 176 188 222 c 1
 256 165 362 135 481 135 c 0
 678 135 765 210 765 318 c 0xe8
 765 395 703 472 587 484 c 1
 574 488 555 490 538 490 c 2
 344 490 l 1
 344 640 l 1
 538 640 l 2
 671 640 732 721 732 798 c 0
 732 899 650 966 468 966 c 0
 353 966 249 933 188 874 c 1
 130 1013 l 1
 210 1097 356 1124 483 1124 c 0
 773 1124 895 984 895 831 c 0xf0
 895 734 875 635 774 571 c 1
 882 512 925 413 930 305 c 0xe8
EndSplineSet
EndChar

StartChar: afii10076
Encoding: 1082 1082 119
Width: 1169
VWidth: 0
GlyphClass: 2
Flags: W
PickledData: "(dp1
S'com.fontlab.hintData'
p2
(dp3
S'vhints'
p4
((dp5
S'position'
p6
I165
sS'width'
p7
I187
stp8
sS'hhints'
p9
((dp10
g6
I0
sg7
I21
s(dp11
g6
I941
sg7
I169
stp12
ss."
HStem: 0 21G<152 321 784.138 1027> 941 169<824.016 984>
VStem: 152 169<0 464 612 1098>
LayerCount: 2
Fore
SplineSet
321 612 m 1
 499 794 l 1
 689 972 695 1110 888 1110 c 0
 915 1110 948 1104 984 1098 c 1
 984 932 l 1
 957 936 933 941 912 941 c 0
 816 941 772 804 606 642 c 1
 505 542 l 1
 1027 0 l 1
 805 0 l 1
 321 464 l 1
 321 0 l 1
 152 0 l 1
 152 1098 l 1
 321 1098 l 1
 321 612 l 1
EndSplineSet
EndChar

StartChar: afii10088
Encoding: 1094 1094 120
Width: 1241
VWidth: 0
GlyphClass: 2
Flags: W
PickledData: "(dp1
S'com.fontlab.hintData'
p2
(dp3
S'vhints'
p4
((dp5
S'position'
p6
I155
sS'width'
p7
I187
s(dp8
g6
I816
sg7
I191
s(dp9
g6
I966
sg7
I151
stp10
sS'hhints'
p11
((dp12
g6
I0
sg7
I164
s(dp13
g6
I1078
sg7
I20
stp14
ss."
HStem: 0 164<320 823> 1078 20G<152 320 823 995>
VStem: 152 168<164 1098> 823 172<166 1098> 958 136<-238 0>
LayerCount: 2
Fore
SplineSet
958 0 m 1xe8
 152 0 l 1
 152 1098 l 1
 320 1098 l 1
 320 164 l 1
 823 164 l 1
 823 1098 l 1
 995 1098 l 1
 995 166 l 1xf0
 1094 166 l 1
 1094 -238 l 1
 958 -238 l 1
 958 0 l 1xe8
EndSplineSet
EndChar

StartChar: afii10091
Encoding: 1097 1097 121
Width: 1504
VWidth: 0
GlyphClass: 2
Flags: W
PickledData: "(dp1
S'com.fontlab.hintData'
p2
(dp3
S'vhints'
p4
((dp5
S'position'
p6
I155
sS'width'
p7
I187
s(dp8
g6
I629
sg7
I173
s(dp9
g6
I1091
sg7
I187
s(dp10
g6
I1238
sg7
I153
stp11
sS'hhints'
p12
((dp13
g6
I0
sg7
I164
s(dp14
g6
I1078
sg7
I20
stp15
ss."
HStem: 0 164<320 624 780 1087> 1078 20G<152 320 624 780 1087 1256>
VStem: 152 168<164 1098> 624 156<164 1098> 1087 169<164 1098> 1220 137<-238 0>
LayerCount: 2
Fore
SplineSet
320 164 m 1xf4
 624 164 l 1
 624 1098 l 1
 780 1098 l 1
 780 164 l 1
 1087 164 l 1
 1087 1098 l 1
 1256 1098 l 1
 1256 164 l 1xf8
 1357 164 l 1
 1357 -238 l 1
 1220 -238 l 1
 1220 0 l 1
 152 0 l 1
 152 1098 l 1
 320 1098 l 1
 320 164 l 1xf4
EndSplineSet
EndChar

StartChar: afii10093
Encoding: 1099 1099 122
Width: 1399
VWidth: 0
GlyphClass: 2
Flags: W
PickledData: "(dp1
S'com.fontlab.hintData'
p2
(dp3
S'vhints'
p4
((dp5
S'position'
p6
I155
sS'width'
p7
I195
s(dp8
g6
I760
sg7
I180
s(dp9
g6
I1080
sg7
I190
stp10
sS'hhints'
p11
((dp12
g6
I0
sg7
I158
s(dp13
g6
I568
sg7
I161
s(dp14
g6
I1078
sg7
I20
stp15
ss."
HStem: 0 158<327 678.936> 568 161<327 688.69> 1078 20G<152 327 1073 1244>
VStem: 152 175<158 568 729 1098> 762 162<240.913 494.161> 1073 171<0 1098>
LayerCount: 2
Fore
SplineSet
1244 1098 m 1
 1244 0 l 1
 1073 0 l 1
 1073 1098 l 1
 1244 1098 l 1
557 568 m 2
 327 568 l 1
 327 158 l 1
 557 158 l 2
 690 158 762 272 762 371 c 0
 762 470 690 568 557 568 c 2
327 1098 m 1
 327 729 l 1
 533 729 l 2
 802 729 924 548 924 368 c 0
 924 188 802 0 533 0 c 2
 152 0 l 1
 152 1098 l 1
 327 1098 l 1
EndSplineSet
EndChar

StartChar: afii10094
Encoding: 1100 1100 123
Width: 1119
VWidth: 0
GlyphClass: 2
Flags: W
PickledData: "(dp1
S'com.fontlab.hintData'
p2
(dp3
S'vhints'
p4
((dp5
S'position'
p6
I155
sS'width'
p7
I195
s(dp8
g6
I822
sg7
I180
stp9
sS'hhints'
p10
((dp11
g6
I0
sg7
I158
s(dp12
g6
I504
sg7
I159
s(dp13
g6
I1078
sg7
I20
stp14
ss."
HStem: 0 158<328 763.786> 504 159<328 763.786> 1078 20G<152 328>
VStem: 152 176<158 504 663 1098> 830 162<219.919 444.342>
LayerCount: 2
Fore
SplineSet
632 504 m 2
 328 504 l 1
 328 158 l 1
 632 158 l 2
 765 158 830 246 830 337 c 0
 830 421 765 504 632 504 c 2
328 1098 m 1
 328 663 l 1
 610 663 l 2
 877 663 992 501 992 337 c 0
 992 167 877 0 610 0 c 2
 152 0 l 1
 152 1098 l 1
 328 1098 l 1
EndSplineSet
EndChar

StartChar: afii10095
Encoding: 1101 1101 124
Width: 1126
VWidth: 0
GlyphClass: 2
Flags: W
PickledData: "(dp1
S'com.fontlab.hintData'
p2
(dp3
S'vhints'
p4
((dp5
S'position'
p6
I764
sS'width'
p7
I199
stp8
sS'hhints'
p9
((dp10
g6
I-25
sg7
I162
s(dp11
g6
I450
sg7
I198
s(dp12
g6
I964
sg7
I160
stp13
ss."
HStem: -25 162<309.722 657.655> 450 198<394 822> 964 160<309.975 656.206>
VStem: 822 179<320.78 450 648 792.051>
LayerCount: 2
Fore
SplineSet
479 137 m 0
 683 137 792 266 822 450 c 1
 394 450 l 1
 394 648 l 1
 824 648 l 1
 797 824 688 964 484 964 c 0
 376 964 290 929 217 838 c 1
 138 966 l 1
 216 1074 342 1124 492 1124 c 0
 848 1124 1001 848 1001 554 c 0
 1001 246 848 -25 494 -25 c 0
 350 -25 224 26 138 132 c 1
 217 260 l 1
 282 181 372 137 479 137 c 0
EndSplineSet
EndChar

StartChar: afii10097
Encoding: 1103 1103 125
Width: 1149
VWidth: 0
GlyphClass: 2
Flags: W
PickledData: "(dp1
S'com.fontlab.hintData'
p2
(dp3
S'vhints'
p4
((dp5
S'position'
p6
I114
sS'width'
p7
I182
s(dp8
g6
I789
sg7
I187
stp9
sS'hhints'
p10
((dp11
g6
I0
sg7
I21
s(dp12
g6
I439
sg7
I148
s(dp13
g6
I939
sg7
I159
stp14
ss."
HStem: 0 21G<138 329.253 826 994> 439 148<565 826> 939 159<374.187 826>
VStem: 138 164<654.295 873.19> 826 168<0 439 587 939>
LayerCount: 2
Fore
SplineSet
826 0 m 1
 826 439 l 1
 565 439 l 1
 318 0 l 1
 138 0 l 1
 370 459 l 1
 215 507 138 634 138 762 c 0
 138 932 261 1098 530 1098 c 2
 994 1098 l 1
 994 0 l 1
 826 0 l 1
508 587 m 2
 826 587 l 1
 826 939 l 1
 508 939 l 2
 375 939 302 853 302 762 c 0
 302 678 375 587 508 587 c 2
EndSplineSet
EndChar

StartChar: ampersand
Encoding: 38 38 128
Width: 1477
VWidth: 0
GlyphClass: 2
Flags: W
PickledData: "(dp1
S'com.fontlab.hintData'
p2
(dp3
S'vhints'
p4
((dp5
S'position'
p6
I112
sS'width'
p7
I196
s(dp8
g6
I294
sg7
I178
s(dp9
g6
I852
sg7
I176
stp10
sS'hhints'
p11
((dp12
g6
I-23
sg7
I155
s(dp13
g6
I1345
sg7
I144
stp14
ss."
HStem: -23 155<420.996 844.209> 1345 144<515.171 796.772>
VStem: 104 177<258.087 550.804> 268 187<1029.11 1285.4> 858 188<1051.87 1287.02>
LayerCount: 2
Fore
SplineSet
441 839 m 1xe8
 338 953 268 1034 268 1165 c 0xd8
 268 1366 422 1489 657 1489 c 0
 861 1489 1046 1389 1046 1182 c 0
 1046 1006 897 893 707 804 c 1
 1108 375 l 1
 1165 435 1214 518 1250 599 c 1
 1371 507 l 1
 1331 420 1275 331 1212 257 c 1
 1393 41 l 1
 1342 23 1287 4 1236 -11 c 1
 1100 143 l 1
 977 43 819 -23 620 -23 c 0
 277 -23 104 138 104 395 c 0
 104 611 241 739 441 839 c 1xe8
544 726 m 1
 392 649 281 554 281 406 c 0xe8
 281 235 410 132 629 132 c 0
 771 132 888 182 985 259 c 1
 837 417 692 568 544 726 c 1
660 1345 m 0
 538 1345 455 1279 455 1165 c 0xd8
 455 1067 517 995 605 910 c 1
 742 977 858 1042 858 1171 c 0
 858 1287 765 1345 660 1345 c 0
EndSplineSet
EndChar

StartChar: approxequal
Encoding: 8776 8776 130
Width: 1314
VWidth: 0
GlyphClass: 2
Flags: W
PickledData: "(dp1
S'com.fontlab.hintData'
p2
(dp3
S'vhints'
p4
((dp5
S'position'
p6
I149
sS'width'
p7
I113
s(dp8
g6
I1054
sg7
I109
stp9
sS'hhints'
p10
((dp11
g6
I282
sg7
I129
s(dp12
g6
I459
sg7
I130
s(dp13
g6
I684
sg7
I126
s(dp14
g6
I860
sg7
I128
stp15
ss."
HStem: 282 129<765.605 1002.57> 459 130<313.896 563.781> 684 126<756.708 1002.89> 860 128<307.41 563.427>
VStem: 138 101<308.092 380.482 708.58 786.84> 1080 98<498.48 562.535 899.523 963.116>
LayerCount: 2
Fore
SplineSet
1080 589 m 1
 1178 558 l 1
 1147 392 1066 282 895 282 c 0
 811 282 728 317 615 385 c 0
 547 427 486 459 427 459 c 0
 326 459 271 388 239 280 c 1
 138 312 l 1
 172 484 270 589 428 589 c 0
 613 589 776 411 898 411 c 0
 986 411 1040 477 1080 589 c 1
1077 988 m 1
 1176 959 l 1
 1145 793 1061 684 892 684 c 0
 804 684 726 719 613 787 c 0
 545 829 483 860 424 860 c 0
 323 860 268 792 239 684 c 1
 136 712 l 1
 168 882 269 988 427 988 c 0
 515 988 595 950 689 893 c 0
 781 838 839 810 896 810 c 0
 984 810 1039 874 1077 988 c 1
EndSplineSet
EndChar

StartChar: asciicircum
Encoding: 94 94 132
Width: 1204
VWidth: 0
GlyphClass: 2
Flags: W
LayerCount: 2
Fore
SplineSet
227 627 m 1
 90 627 l 1
 546 1559 l 1
 651 1559 l 1
 1113 627 l 1
 979 627 l 1
 595 1375 l 1
 227 627 l 1
EndSplineSet
EndChar

StartChar: asciitilde
Encoding: 126 126 133
Width: 1340
VWidth: 0
GlyphClass: 2
Flags: W
PickledData: "(dp1
S'com.fontlab.hintData'
p2
(dp3
S'vhints'
p4
((dp5
S'position'
p6
I184
sS'width'
p7
I114
s(dp8
g6
I1105
sg7
I124
stp9
sS'hhints'
p10
((dp11
g6
I442
sg7
I145
s(dp12
g6
I614
sg7
I146
stp13
ss."
HStem: 442 145<788.242 1019.49> 614 146<325.554 587.836>
VStem: 137 103<465.788 522.036> 1097 112<674.941 742.248>
LayerCount: 2
Fore
SplineSet
435 760 m 0
 591 760 819 587 918 587 c 0
 1010 587 1076 681 1097 778 c 1
 1209 737 l 1
 1177 565 1080 442 915 442 c 0
 790 442 567 614 436 614 c 0
 329 614 261 516 240 415 c 1
 137 474 l 1
 164 622 262 760 435 760 c 0
EndSplineSet
EndChar

StartChar: asterisk
Encoding: 42 42 134
Width: 1081
VWidth: 0
GlyphClass: 2
Flags: W
LayerCount: 2
Fore
SplineSet
629 1442 m 1
 600 1019 l 1
 921 1213 l 1
 946 1158 967 1105 992 1050 c 1
 641 915 l 1
 735 803 817 680 897 568 c 1
 852 534 807 508 762 474 c 1
 537 843 l 1
 320 474 l 1
 184 568 l 1
 438 915 l 1
 91 1050 l 1
 159 1213 l 1
 483 1019 l 1
 451 1442 l 1
 629 1442 l 1
EndSplineSet
EndChar

StartChar: at
Encoding: 64 64 135
Width: 1797
VWidth: 0
GlyphClass: 2
Flags: W
PickledData: "(dp1
S'com.fontlab.hintData'
p2
(dp3
S'vhints'
p4
((dp5
S'position'
p6
I149
sS'width'
p7
I143
s(dp8
g6
I604
sg7
I147
s(dp9
g6
I1567
sg7
I141
stp10
sS'hhints'
p11
((dp12
g6
I-239
sg7
I121
s(dp13
g6
I146
sg7
I121
s(dp14
g6
I165
sg7
I126
s(dp15
g6
I868
sg7
I118
s(dp16
g6
I1254
sg7
I120
stp17
ss."
HStem: -239 121<666.702 1163.84> 146 121<1182.74 1377.5> 165 126<744.475 952.626> 868 118<839.106 1137.77> 1254 120<683.561 1192.78>
VStem: 110 129<315.233 808.627> 569 133<332.652 702.459> 1569 127<593.728 906.898>
LayerCount: 2
Fore
SplineSet
1239 146 m 0xdf
 1141 146 1071 194 1055 304 c 1
 988 206 906 165 817 165 c 0xbf
 672 165 569 283 569 480 c 0
 569 741 691 986 976 986 c 0
 1089 986 1212 955 1302 925 c 1
 1243 693 1256 457 1171 373 c 0
 1171 299 1205 267 1260 267 c 0
 1390 267 1569 454 1569 690 c 0
 1569 1042 1294 1254 920 1254 c 0
 545 1254 239 955 239 569 c 0
 239 148 545 -118 908 -118 c 0
 1089 -118 1242 -59 1353 34 c 1
 1423 -54 l 1
 1298 -168 1118 -239 906 -239 c 0
 463 -239 110 84 110 569 c 0
 110 1017 470 1374 925 1374 c 0
 1355 1374 1696 1107 1696 688 c 0
 1564 384 1445 146 1239 146 c 0xdf
841 291 m 0
 1036 291 1087 595 1140 854 c 1
 1108 863 1026 868 979 868 c 0
 771 868 702 659 702 470 c 0
 702 363 752 291 841 291 c 0
EndSplineSet
EndChar

StartChar: b
Encoding: 98 98 137
Width: 1274
VWidth: 0
GlyphClass: 2
Flags: W
PickledData: "(dp1
S'com.fontlab.hintData'
p2
(dp3
S'vhints'
p4
((dp5
S'position'
p6
I182
sS'width'
p7
I187
s(dp8
g6
I984
sg7
I192
stp9
sS'hhints'
p10
((dp11
g6
I-25
sg7
I148
s(dp12
g6
I0
sg7
I21
s(dp13
g6
I976
sg7
I148
s(dp14
g6
I1470
sg7
I20
stp15
ss."
HStem: -25 148<486.082 803.464> 0 21G<155 321.405> 976 148<485.101 803.153> 1490 20G<155 324>
VStem: 155 169<0 148 302.53 797.149 939 1510> 967 173<310.38 788.734>
LayerCount: 2
Fore
SplineSet
155 1510 m 1x7c
 324 1510 l 1
 324 939 l 1
 401 1065 528 1124 671 1124 c 0
 999 1124 1140 859 1140 562 c 0
 1140 244 1001 -25 671 -25 c 0xbc
 525 -25 410 36 324 148 c 1
 321 0 l 1
 155 0 l 1
 155 1510 l 1x7c
321 551 m 0
 321 313 419 123 651 123 c 0
 888 123 967 351 967 551 c 0
 967 750 888 976 651 976 c 0
 419 976 321 786 321 551 c 0
EndSplineSet
EndChar

StartChar: backslash
Encoding: 92 92 138
Width: 935
VWidth: 0
GlyphClass: 2
Flags: W
PickledData: "(dp1
S'com.fontlab.hintData'
p2
(dp3
S'hhints'
p4
((dp5
S'position'
p6
I1446
sS'width'
p7
I20
stp8
ss."
HStem: 1446 20G<82 238.209>
LayerCount: 2
Fore
SplineSet
881 -120 m 1
 735 -120 l 1
 82 1466 l 1
 230 1466 l 1
 881 -120 l 1
EndSplineSet
EndChar

StartChar: bar
Encoding: 124 124 139
Width: 470
VWidth: 0
GlyphClass: 2
Flags: W
PickledData: "(dp1
S'com.fontlab.hintData'
p2
(dp3
S'vhints'
p4
((dp5
S'position'
p6
I157
sS'width'
p7
I166
stp8
ss."
VStem: 160 150<-303 1603>
LayerCount: 2
Fore
SplineSet
310 1603 m 1
 310 -303 l 1
 160 -303 l 1
 160 1603 l 1
 310 1603 l 1
EndSplineSet
EndChar

StartChar: braceleft
Encoding: 123 123 140
Width: 670
VWidth: 0
GlyphClass: 2
Flags: W
PickledData: "(dp1
S'com.fontlab.hintData'
p2
(dp3
S'vhints'
p4
((dp5
S'position'
p6
I292
sS'width'
p7
I179
stp8
sS'hhints'
p9
((dp10
g6
I-238
sg7
I137
s(dp11
g6
I614
sg7
I150
s(dp12
g6
I1479
sg7
I137
stp13
ss."
HStem: -238 137<461.669 578> 614 150<89 232.473> 1479 137<461.669 578>
VStem: 272 161<-73.1914 574.214 803.786 1452.05>
CounterMasks: 1 e0
LayerCount: 2
Fore
SplineSet
286 689 m 1
 406 630 433 487 433 390 c 2
 433 156 l 2
 433 -45 435 -101 578 -101 c 1
 578 -238 l 1
 362 -238 272 -155 272 53 c 2
 272 335 l 2
 272 465 267 614 149 614 c 2
 89 614 l 1
 89 764 l 1
 149 764 l 2
 267 764 272 913 272 1043 c 2
 272 1326 l 2
 272 1534 362 1616 578 1616 c 1
 578 1479 l 1
 435 1479 433 1424 433 1223 c 2
 433 988 l 2
 433 891 406 748 286 689 c 1
EndSplineSet
EndChar

StartChar: braceright
Encoding: 125 125 141
Width: 680
VWidth: 0
GlyphClass: 2
Flags: W
PickledData: "(dp1
S'com.fontlab.hintData'
p2
(dp3
S'vhints'
p4
((dp5
S'position'
p6
I234
sS'width'
p7
I179
stp8
sS'hhints'
p9
((dp10
g6
I-238
sg7
I137
s(dp11
g6
I614
sg7
I150
s(dp12
g6
I1479
sg7
I137
stp13
ss."
HStem: -238 137<98 214.652> 614 150<447.275 590> 1479 137<98 214.652>
VStem: 246 161<-73.1914 574.214 803.786 1452.05>
CounterMasks: 1 e0
LayerCount: 2
Fore
SplineSet
391 689 m 1
 271 748 246 891 246 988 c 2
 246 1223 l 2
 246 1424 241 1479 98 1479 c 1
 98 1616 l 1
 314 1616 407 1534 407 1326 c 2
 407 1043 l 2
 407 913 413 764 531 764 c 2
 590 764 l 1
 590 614 l 1
 531 614 l 2
 413 614 407 465 407 335 c 2
 407 53 l 2
 407 -155 314 -238 98 -238 c 1
 98 -101 l 1
 241 -101 246 -45 246 156 c 2
 246 390 l 2
 246 487 271 630 391 689 c 1
EndSplineSet
EndChar

StartChar: bracketleft
Encoding: 91 91 142
Width: 590
VWidth: 0
GlyphClass: 2
Flags: W
PickledData: "(dp1
S'com.fontlab.hintData'
p2
(dp3
S'vhints'
p4
((dp5
S'position'
p6
I184
sS'width'
p7
I355
s(dp8
g6
I184
sg7
I198
stp9
sS'hhints'
p10
((dp11
g6
I-261
sg7
I122
s(dp12
g6
I1381
sg7
I124
stp13
ss."
HStem: -261 122<336 477> 1381 124<336 477>
VStem: 158 319<-261 -139 1381 1505> 158 178<-139 1381>
LayerCount: 2
Fore
SplineSet
477 -139 m 1xe0
 477 -261 l 1
 158 -261 l 1
 158 1505 l 1
 477 1505 l 1
 477 1381 l 1xe0
 336 1381 l 1
 336 -139 l 1xd0
 477 -139 l 1xe0
EndSplineSet
EndChar

StartChar: bracketright
Encoding: 93 93 143
Width: 590
VWidth: 0
GlyphClass: 2
Flags: W
PickledData: "(dp1
S'com.fontlab.hintData'
p2
(dp3
S'vhints'
p4
((dp5
S'position'
p6
I184
sS'width'
p7
I355
s(dp8
g6
I344
sg7
I195
stp9
sS'hhints'
p10
((dp11
g6
I-261
sg7
I122
s(dp12
g6
I1381
sg7
I124
stp13
ss."
HStem: -261 122<111 255> 1381 124<111 255>
VStem: 111 319<-261 -139 1381 1505> 255 175<-139 1381>
LayerCount: 2
Fore
SplineSet
111 -261 m 1xe0
 111 -139 l 1xe0
 255 -139 l 1
 255 1381 l 1xd0
 111 1381 l 1
 111 1505 l 1
 430 1505 l 1
 430 -261 l 1
 111 -261 l 1xe0
EndSplineSet
EndChar

StartChar: breve
Encoding: 728 728 144
Width: 754
VWidth: 0
GlyphClass: 2
Flags: W
PickledData: "(dp1
S'com.fontlab.hintData'
p2
(dp3
S'vhints'
p4
((dp5
S'position'
p6
I44
sS'width'
p7
I129
s(dp8
g6
I472
sg7
I130
stp9
sS'hhints'
p10
((dp11
g6
I1299
sg7
I117
stp12
ss."
HStem: 1299 117<274.947 480.328>
VStem: 128 116<1450.23 1557> 513 117<1450.23 1557>
LayerCount: 2
Fore
SplineSet
377 1299 m 0
 254 1299 128 1385 128 1557 c 1
 244 1557 l 1
 244 1462 304 1416 377 1416 c 0
 450 1416 513 1462 513 1557 c 1
 630 1557 l 1
 630 1385 500 1299 377 1299 c 0
EndSplineSet
EndChar

StartChar: brokenbar
Encoding: 166 166 145
Width: 449
VWidth: 0
GlyphClass: 2
Flags: W
PickledData: "(dp1
S'com.fontlab.hintData'
p2
(dp3
S'vhints'
p4
((dp5
S'position'
p6
I157
sS'width'
p7
I166
stp8
ss."
VStem: 151 150<-301 339 964 1603>
LayerCount: 2
Fore
SplineSet
301 1603 m 1
 301 964 l 1
 151 964 l 1
 151 1603 l 1
 301 1603 l 1
301 339 m 1
 301 -301 l 1
 151 -301 l 1
 151 339 l 1
 301 339 l 1
EndSplineSet
EndChar

StartChar: bullet
Encoding: 8226 8226 146
Width: 867
VWidth: 0
GlyphClass: 2
Flags: W
PickledData: "(dp1
S'com.fontlab.hintData'
p2
(dp3
S'vhints'
p4
((dp5
S'position'
p6
I155
sS'width'
p7
I660
stp8
sS'hhints'
p9
((dp10
g6
I415
sg7
I671
stp11
ss."
HStem: 415 671<296.64 572.69>
VStem: 137 594<583.237 917.904>
LayerCount: 2
Fore
SplineSet
731 753 m 0
 731 569 593 415 432 415 c 0
 266 415 137 567 137 747 c 0
 137 931 278 1086 436 1086 c 0
 597 1086 731 935 731 753 c 0
EndSplineSet
EndChar

StartChar: c
Encoding: 99 99 147
Width: 1101
VWidth: 0
GlyphClass: 2
Flags: W
PickledData: "(dp1
S'com.fontlab.hintData'
p2
(dp3
S'vhints'
p4
((dp5
S'position'
p6
I113
sS'width'
p7
I193
stp8
sS'hhints'
p9
((dp10
g6
I-25
sg7
I148
s(dp11
g6
I976
sg7
I148
stp12
ss."
HStem: -25 143<481.601 861.455> 982 142<482.198 856.411>
VStem: 112 174<332.821 766.932>
LayerCount: 2
Back
SplineSet
657 976 m 4
 752 976 843 932 909 855 c 5
 998 985 l 5
 908 1079 772 1124 639 1124 c 4
 286 1124 113 853 113 545 c 4
 113 252 297 -25 636 -25 c 6
 640 -25 l 6
 781 -24 922 14 998 76 c 5
 942 215 l 5
 840 152 743 123 657 123 c 4
 450 123 306 289 306 545 c 4
 306 794 431 976 657 976 c 4
EndSplineSet
Fore
SplineSet
660 118 m 0
 767.597 118 861.246 154.924 927 197 c 1
 978 75 l 1
 900 7.67285 770 -25 652 -25 c 0
 286 -25 112 246 112 554 c 0
 112 849.584 292.859 1124 649 1124 c 0
 786.646 1124 909.643 1087.32 977 1029 c 1
 926 902 l 1
 834 956.783 747 982 659 982 c 0
 440 982 286 808.64 286 554 c 0
 286 302.111 419.356 118 660 118 c 0
EndSplineSet
EndChar

StartChar: caron
Encoding: 711 711 149
Width: 785
VWidth: 0
GlyphClass: 2
Flags: W
PickledData: "(dp1
S'com.fontlab.hintData'
p2
(dp3
S'vhints'
p4
((dp5
S'position'
p6
I28
sS'width'
p7
I628
stp8
sS'hhints'
p9
((dp10
g6
I1255
sg7
I346
stp11
ss."
HStem: 1255 346
VStem: 112 566
LayerCount: 2
Fore
SplineSet
328 1255 m 1
 112 1601 l 1
 241 1601 l 1
 390 1369 l 1
 541 1601 l 1
 678 1601 l 1
 461 1255 l 1
 328 1255 l 1
EndSplineSet
EndChar

StartChar: cedilla
Encoding: 184 184 152
Width: 596
VWidth: 0
GlyphClass: 2
Flags: W
PickledData: "(dp1
S'com.fontlab.hintData'
p2
(dp3
S'vhints'
p4
((dp5
S'position'
p6
I318
sS'width'
p7
I140
stp8
sS'hhints'
p9
((dp10
g6
I-425
sg7
I88
s(dp11
g6
I-332
sg7
I20
s(dp12
g6
I-180
sg7
I196
s(dp13
g6
I-180
sg7
I83
stp14
ss."
HStem: -425 88<120.437 348.727> -332 20G<120.242 147.5> -180 196<226 295.98> -180 83<298 343.803>
VStem: 356 126<-327.876 -189.419>
LayerCount: 2
Fore
SplineSet
114 -403 m 1xd8
 122 -312 l 1
 173 -326 220 -337 256 -337 c 0
 331 -337 356 -306 356 -260 c 0
 356 -203 316 -180 259 -180 c 0
 254 -180 198 -184 198 -184 c 1
 226 16 l 1
 312 16 l 1xe8
 298 -97 l 1
 305 -97 l 2
 399 -97 482 -147 482 -257 c 0
 482 -371 388 -425 268 -425 c 0
 223 -425 167 -415 114 -403 c 1xd8
EndSplineSet
EndChar

StartChar: cent
Encoding: 162 162 153
Width: 1024
VWidth: 0
GlyphClass: 2
Flags: W
PickledData: "(dp1
S'com.fontlab.hintData'
p2
(dp3
S'vhints'
p4
((dp5
S'position'
p6
I167
sS'width'
p7
I169
stp8
sS'hhints'
p9
((dp10
g6
I-25
sg7
I142
s(dp11
g6
I-14
sg7
I146
s(dp12
g6
I980
sg7
I152
stp13
ss."
HStem: -25 142<649 797.495> -14 146<419.956 505> 980 152<447.263 562 705 796.998>
VStem: 108 152<318.173 767.904>
LayerCount: 2
Fore
SplineSet
933 976 m 1x70
 867 863 l 1
 826 927 765 966 697 980 c 1
 649 117 l 1
 747 121 825 166 900 243 c 1
 939 93 l 1
 859 16 766 -21 640 -25 c 1xb0
 622 -276 l 1
 490 -276 l 1
 505 -14 l 1
 229 30 108 264 108 542 c 0
 108 854 255 1116 570 1132 c 1
 589 1359 l 1
 718 1359 l 1
 705 1124 l 1
 806 1108 885 1051 933 976 c 1x70
260 547 m 0
 260 342 339 178 514 132 c 1x70
 562 980 l 1
 368 948 260 767 260 547 c 0
EndSplineSet
EndChar

StartChar: circumflex
Encoding: 710 710 155
Width: 800
VWidth: 0
GlyphClass: 2
Flags: W
PickledData: "(dp1
S'com.fontlab.hintData'
p2
(dp3
S'vhints'
p4
((dp5
S'position'
p6
I34
sS'width'
p7
I607
stp8
sS'hhints'
p9
((dp10
g6
I1255
sg7
I348
stp11
ss."
HStem: 1255 348
VStem: 128 547
LayerCount: 2
Fore
SplineSet
128 1255 m 1
 335 1603 l 1
 468 1603 l 1
 675 1255 l 1
 561 1255 l 1
 400 1487 l 1
 239 1255 l 1
 128 1255 l 1
EndSplineSet
EndChar

StartChar: colon
Encoding: 58 58 156
Width: 494
VWidth: 0
GlyphClass: 2
Flags: W
PickledData: "(dp1
S'com.fontlab.hintData'
p2
(dp3
S'vhints'
p4
((dp5
S'position'
p6
I139
sS'width'
p7
I228
stp8
sS'hhints'
p9
((dp10
g6
I-25
sg7
I233
s(dp11
g6
I893
sg7
I231
stp12
ss."
HStem: -25 233<146 352> 893 231<146 352>
VStem: 146 206<-25 208 893 1124>
LayerCount: 2
Fore
SplineSet
146 893 m 1
 146 1124 l 1
 352 1124 l 1
 352 893 l 1
 146 893 l 1
146 -25 m 1
 146 208 l 1
 352 208 l 1
 352 -25 l 1
 146 -25 l 1
EndSplineSet
EndChar

StartChar: comma
Encoding: 44 44 157
Width: 508
VWidth: 0
GlyphClass: 2
Flags: W
PickledData: "(dp1
S'com.fontlab.hintData'
p2
(dp3
S'vhints'
p4
((dp5
S'position'
p6
I75
sS'width'
p7
I284
stp8
sS'hhints'
p9
((dp10
g6
I-276
sg7
I506
stp11
ss."
HStem: -276 506<220 240>
VStem: 126 256
LayerCount: 2
Fore
SplineSet
382 230 m 1
 240 -276 l 1
 126 -276 l 1
 220 230 l 1
 382 230 l 1
EndSplineSet
EndChar

StartChar: commaaccent
Encoding: 63171 63171 158
Width: 554
VWidth: 0
GlyphClass: 2
Flags: W
PickledData: "(dp1
S'com.fontlab.hintData'
p2
(dp3
S'vhints'
p4
((dp5
S'position'
p6
I107
sS'width'
p7
I290
stp8
sS'hhints'
p9
((dp10
g6
I-648
sg7
I498
stp11
ss."
HStem: -648 498<239 260>
VStem: 144 260
LayerCount: 2
Fore
SplineSet
144 -648 m 1
 239 -150 l 1
 404 -150 l 1
 260 -648 l 1
 144 -648 l 1
EndSplineSet
EndChar

StartChar: copyright
Encoding: 169 169 159
Width: 1841
VWidth: 0
GlyphClass: 2
Flags: W
PickledData: "(dp1
S'com.fontlab.hintData'
p2
(dp3
S'vhints'
p4
((dp5
S'position'
p6
I101
sS'width'
p7
I121
s(dp8
g6
I449
sg7
I151
s(dp9
g6
I1554
sg7
I125
stp10
sS'hhints'
p11
((dp12
g6
I-36
sg7
I129
s(dp13
g6
I270
sg7
I141
s(dp14
g6
I1162
sg7
I139
s(dp15
g6
I1471
sg7
I125
stp16
ss."
HStem: -36 129<672.956 1156.94> 270 141<782.258 1161.49> 1162 139<773.651 1138.67> 1471 125<670.496 1153.32>
VStem: 114 109<540.712 1022.1> 464 136<593.535 981.23> 1614 112<541.207 1021.45>
LayerCount: 2
Fore
SplineSet
1220 496 m 1
 1260 366 l 1
 1170 302 1062 270 939 270 c 0
 649 270 464 499 464 785 c 0
 464 1082 641 1301 949 1301 c 0
 1068 1301 1171 1266 1257 1191 c 1
 1224 1061 l 1
 1147 1129 1051 1162 944 1162 c 0
 730 1162 600 997 600 789 c 0
 600 577 726 411 973 411 c 0
 1065 411 1152 437 1220 496 c 1
223 783 m 0
 223 393 524 93 910 93 c 0
 1309 93 1614 396 1614 781 c 0
 1614 1171 1306 1471 906 1471 c 0
 524 1471 223 1170 223 783 c 0
913 -36 m 0
 470 -36 114 333 114 781 c 0
 114 1227 472 1596 906 1596 c 0
 1369 1596 1726 1225 1726 781 c 0
 1726 335 1370 -36 913 -36 c 0
EndSplineSet
EndChar

StartChar: currency
Encoding: 164 164 160
Width: 1023
VWidth: 0
GlyphClass: 2
Flags: W
PickledData: "(dp1
S'com.fontlab.hintData'
p2
(dp3
S'vhints'
p4
((dp5
S'position'
p6
I184
sS'width'
p7
I89
s(dp8
g6
I824
sg7
I93
stp9
sS'hhints'
p10
((dp11
g6
I294
sg7
I77
s(dp12
g6
I1055
sg7
I77
stp13
ss."
HStem: 294 77<388.315 659.049> 1055 77<369.251 648.883>
VStem: 139 80<531.057 891.93> 804 83<523.135 899.707>
LayerCount: 2
Fore
SplineSet
516 1132 m 0
 561 1132 603 1124 645 1114 c 1
 752 1400 l 1
 795 1383 l 1
 688 1096 l 1
 828 1028 887 888 887 714 c 0
 887 570 839 434 740 361 c 1
 883 59 l 1
 851 44 l 1
 703 339 l 1
 646 309 584 294 510 294 c 0
 468 294 429 302 395 310 c 1
 295 44 l 1
 258 59 l 1
 354 324 l 1
 206 383 139 533 139 709 c 0
 139 871 193 1014 314 1082 c 1
 168 1383 l 1
 203 1400 l 1
 354 1102 l 1
 401 1121 456 1132 516 1132 c 0
804 709 m 0
 804 893 712 1055 510 1055 c 0
 320 1055 219 889 219 709 c 0
 219 529 320 371 516 371 c 0
 710 371 804 531 804 709 c 0
EndSplineSet
EndChar

StartChar: d
Encoding: 100 100 161
Width: 1240
VWidth: 0
GlyphClass: 2
Flags: W
PickledData: "(dp1
S'com.fontlab.hintData'
p2
(dp3
S'vhints'
p4
((dp5
S'position'
p6
I113
sS'width'
p7
I192
s(dp8
g6
I920
sg7
I187
stp9
sS'hhints'
p10
((dp11
g6
I-25
sg7
I148
s(dp12
g6
I976
sg7
I148
stp13
ss."
HStem: -25 148<445.001 754.676> 0 21G<914.595 1081> 976 148<445.312 755.283> 1490 20G<912 1081>
VStem: 114 173<310.38 788.734> 912 169<0 148 302.53 797.149 939 1510>
LayerCount: 2
Back
SplineSet
1081 1593 m 1
 1081 495 l 1
 894 495 l 1
 894 1593 l 1
 1081 1593 l 1
EndSplineSet
Fore
SplineSet
1081 1510 m 1xbc
 1081 0 l 1
 915 0 l 1x7c
 912 148 l 1
 828 36 717 -25 574 -25 c 0
 250 -25 114 244 114 562 c 0
 114 859 252 1124 574 1124 c 0
 713 1124 836 1065 912 939 c 1
 912 1510 l 1
 1081 1510 l 1xbc
915 551 m 0
 915 786 821 976 594 976 c 0
 364 976 287 750 287 551 c 0
 287 351 364 123 594 123 c 0xbc
 821 123 915 313 915 551 c 0
EndSplineSet
EndChar

StartChar: dagger
Encoding: 8224 8224 162
Width: 876
VWidth: 0
GlyphClass: 2
Flags: W
PickledData: "(dp1
S'com.fontlab.hintData'
p2
(dp3
S'vhints'
p4
((dp5
S'position'
p6
I423
sS'width'
p7
I141
s(dp8
g6
I423
sg7
I125
stp9
sS'hhints'
p10
((dp11
g6
I1007
sg7
I142
stp12
ss."
HStem: 1007 142<71 366 496 806>
VStem: 366 130<1149 1561> 366 112<121 1007>
LayerCount: 2
Fore
SplineSet
366 121 m 1xa0
 366 1007 l 1xa0
 71 1007 l 1
 71 1149 l 1
 366 1149 l 1
 366 1561 l 1
 496 1561 l 1
 496 1149 l 1xc0
 806 1149 l 1
 806 1007 l 1
 478 1007 l 1
 478 121 l 1
 366 121 l 1xa0
EndSplineSet
EndChar

StartChar: daggerdbl
Encoding: 8225 8225 163
Width: 950
VWidth: 0
GlyphClass: 2
Flags: W
PickledData: "(dp1
S'com.fontlab.hintData'
p2
(dp3
S'vhints'
p4
((dp5
S'position'
p6
I413
sS'width'
p7
I147
s(dp8
g6
I432
sg7
I121
stp9
sS'hhints'
p10
((dp11
g6
I467
sg7
I137
s(dp12
g6
I1059
sg7
I140
stp13
ss."
HStem: 467 137<107 421 530 843> 1059 140<112 421 538 850>
VStem: 401 137<1368.79 1561> 421 109<356.641 467 604 1059 1199 1331.78>
LayerCount: 2
Fore
SplineSet
421 604 m 1xd0
 421 1059 l 1xd0
 112 1059 l 1
 112 1199 l 1
 428 1199 l 1
 401 1561 l 1
 538 1561 l 1
 538 1199 l 1xe0
 850 1199 l 1
 850 1059 l 1
 530 1059 l 1
 530 604 l 1
 843 604 l 1
 843 467 l 1
 530 467 l 1
 556 121 l 1
 398 121 l 1
 421 467 l 1
 107 467 l 1
 107 604 l 1
 421 604 l 1xd0
EndSplineSet
EndChar

StartChar: degree
Encoding: 176 176 164
Width: 816
VWidth: 0
GlyphClass: 2
Flags: W
PickledData: "(dp1
S'com.fontlab.hintData'
p2
(dp3
S'vhints'
p4
((dp5
S'position'
p6
I93
sS'width'
p7
I122
s(dp8
g6
I596
sg7
I121
stp9
sS'hhints'
p10
((dp11
g6
I919
sg7
I127
s(dp12
g6
I1430
sg7
I125
stp13
ss."
HStem: 919 127<300.69 517.513> 1430 125<301.313 517.728>
VStem: 128 110<1108.58 1363.4> 581 109<1112.13 1363.4>
LayerCount: 2
Fore
SplineSet
409 1430 m 0
 318 1430 238 1347 238 1239 c 0
 238 1131 315 1046 409 1046 c 0
 503 1046 581 1131 581 1239 c 0
 581 1347 502 1430 409 1430 c 0
409 919 m 0
 257 919 128 1065 128 1239 c 0
 128 1413 257 1555 409 1555 c 0
 563 1555 690 1413 690 1239 c 0
 690 1065 561 919 409 919 c 0
EndSplineSet
EndChar

StartChar: dieresis
Encoding: 168 168 165
Width: 770
VWidth: 0
GlyphClass: 2
Flags: W
PickledData: "(dp1
S'com.fontlab.hintData'
p2
(dp3
S'vhints'
p4
((dp5
S'position'
p6
I89
sS'width'
p7
I171
s(dp8
g6
I472
sg7
I172
stp9
sS'hhints'
p10
((dp11
g6
I1259
sg7
I177
stp12
ss."
HStem: 1259 177<137 291 481 636>
VStem: 137 154<1259 1436> 481 155<1259 1436>
LayerCount: 2
Fore
SplineSet
636 1259 m 1
 481 1259 l 1
 481 1436 l 1
 636 1436 l 1
 636 1259 l 1
291 1259 m 1
 137 1259 l 1
 137 1436 l 1
 291 1436 l 1
 291 1259 l 1
EndSplineSet
EndChar

StartChar: divide
Encoding: 247 247 166
Width: 1211
VWidth: 0
GlyphClass: 2
Flags: W
PickledData: "(dp1
S'com.fontlab.hintData'
p2
(dp3
S'vhints'
p4
((dp5
S'position'
p6
I606
sS'width'
p7
I212
stp8
sS'hhints'
p9
((dp10
g6
I22
sg7
I227
s(dp11
g6
I523
sg7
I149
s(dp12
g6
I939
sg7
I227
stp13
ss."
HStem: 22 227<491 682> 523 149<97 1098> 939 227<491 716>
VStem: 491 225<939 1166> 491 191<22 249>
LayerCount: 2
Fore
SplineSet
1098 523 m 1xe0
 97 523 l 1
 97 672 l 1
 1098 672 l 1
 1098 523 l 1xe0
716 1166 m 1xf0
 716 939 l 1
 491 939 l 1
 491 1166 l 1
 716 1166 l 1xf0
682 249 m 1xe8
 682 22 l 1
 491 22 l 1
 491 249 l 1
 682 249 l 1xe8
EndSplineSet
EndChar

StartChar: dollar
Encoding: 36 36 167
Width: 1158
VWidth: 0
GlyphClass: 2
Flags: W
PickledData: "(dp1
S'com.fontlab.hintData'
p2
(dp3
S'vhints'
p4
((dp5
S'position'
p6
I131
sS'width'
p7
I192
s(dp8
g6
I600
sg7
I120
s(dp9
g6
I931
sg7
I201
stp10
sS'hhints'
p11
((dp12
g6
I-23
sg7
I164
s(dp13
g6
I1317
sg7
I168
stp14
ss."
HStem: -23 164<308.677 535 643 749.066> 1317 168<378.229 535 643 838.464>
VStem: 113 173<972.997 1232.29> 535 108<-173 -23 148 628 865 1317 1489 1591> 867 181<249.292 519.824>
LayerCount: 2
Fore
SplineSet
535 1591 m 1
 643 1591 l 1
 643 1485 l 1
 788 1474 917 1436 995 1378 c 1
 939 1225 l 1
 882 1264 765 1306 643 1317 c 1
 643 828 l 1
 886 758 1048 655 1048 401 c 0
 1048 147 883 17 643 -15 c 1
 643 -173 l 1
 535 -173 l 1
 535 -23 l 1
 338 -19 197 46 113 100 c 1
 174 261 l 1
 265 189 395 145 535 141 c 1
 535 669 l 1
 420 705 l 1
 244 765 113 870 113 1083 c 0
 113 1332 297 1480 535 1489 c 1
 535 1591 l 1
643 628 m 1
 643 148 l 1
 776 174 867 251 867 392 c 0
 867 504 801 573 643 628 c 1
535 865 m 1
 535 1321 l 1
 387 1313 286 1239 286 1100 c 0
 286 984 351 929 478 884 c 1
 535 865 l 1
EndSplineSet
EndChar

StartChar: dotaccent
Encoding: 729 729 168
Width: 411
VWidth: 0
GlyphClass: 2
Flags: W
PickledData: "(dp1
S'com.fontlab.hintData'
p2
(dp3
S'vhints'
p4
((dp5
S'position'
p6
I179
sS'width'
p7
I159
stp8
sS'hhints'
p9
((dp10
g6
I1341
sg7
I176
stp11
ss."
HStem: 1341 176<137 280>
VStem: 137 143<1341 1517>
LayerCount: 2
Fore
SplineSet
280 1341 m 1
 137 1341 l 1
 137 1517 l 1
 280 1517 l 1
 280 1341 l 1
EndSplineSet
EndChar

StartChar: dotaccentcmb
Encoding: 775 775 169
Width: 411
VWidth: 0
GlyphClass: 2
Flags: W
PickledData: "(dp1
S'com.fontlab.hintData'
p2
(dp3
S'vhints'
p4
((dp5
S'position'
p6
I179
sS'width'
p7
I159
stp8
sS'hhints'
p9
((dp10
g6
I1341
sg7
I176
stp11
ss."
HStem: 1341 176<137 280>
VStem: 137 143<1341 1517>
LayerCount: 2
Fore
SplineSet
280 1341 m 1
 137 1341 l 1
 137 1517 l 1
 280 1517 l 1
 280 1341 l 1
EndSplineSet
EndChar

StartChar: dotlessi
Encoding: 305 305 170
Width: 445
VWidth: 0
GlyphClass: 2
Flags: W
PickledData: "(dp1
S'com.fontlab.hintData'
p2
(dp3
S'vhints'
p4
((dp5
S'position'
p6
I163
sS'width'
p7
I160
stp8
sS'hhints'
p9
((dp10
g6
I0
sg7
I21
s(dp11
g6
I1078
sg7
I20
stp12
ss."
HStem: 0 21G<147 291> 1078 20G<147 291>
VStem: 147 144<0 1098>
LayerCount: 2
Fore
SplineSet
291 1098 m 1
 291 0 l 1
 147 0 l 1
 147 1098 l 1
 291 1098 l 1
EndSplineSet
EndChar

StartChar: dotlessj
Encoding: 567 567 171
Width: 571
VWidth: 0
GlyphClass: 2
Flags: W
PickledData: "(dp1
S'com.fontlab.hintData'
p2
(dp3
S'vhints'
p4
((dp5
S'position'
p6
I171
sS'width'
p7
I162
stp8
sS'hhints'
p9
((dp10
g6
I-461
sg7
I156
s(dp11
g6
I1078
sg7
I20
stp12
ss."
HStem: -461 156<28 201.781> 1078 20G<271 416>
VStem: 271 145<-220.788 1098>
LayerCount: 2
Fore
SplineSet
28 -448 m 1
 28 -292 l 1
 60 -298 84 -305 102 -305 c 0
 215 -305 271 -200 271 34 c 2
 271 1098 l 1
 416 1098 l 1
 416 114 l 2
 416 -129 394 -461 135 -461 c 0
 101 -461 66 -456 28 -448 c 1
EndSplineSet
EndChar

StartChar: e
Encoding: 101 101 172
Width: 1182
VWidth: 0
GlyphClass: 2
Flags: W
PickledData: "(dp1
S'com.fontlab.hintData'
p2
(dp3
S'vhints'
p4
((dp5
S'position'
p6
I113
sS'width'
p7
I190
s(dp8
g6
I852
sg7
I180
stp9
sS'hhints'
p10
((dp11
g6
I-25
sg7
I148
s(dp12
g6
I521
sg7
I110
s(dp13
g6
I976
sg7
I148
stp14
ss."
HStem: -25 144<462.4 821.356> 519 116<292 877> 984 140<458.889 755.338>
VStem: 114 172<320.147 519 635 787.637> 877 162<635 848.075>
LayerCount: 2
Back
SplineSet
1253 549 m 4
 1253 244 1058 -25 729 -25 c 4
 394 -25 196 233 196 547 c 4
 196 861 397 1124 732 1124 c 4
 1068 1124 1253 865 1253 549 c 4
1079 547 m 4
 1079 780 976 982 729 982 c 4
 494 982 369 768 369 544 c 4
 369 322 491 118 732 118 c 4
 970 118 1079 323 1079 547 c 4
EndSplineSet
Fore
SplineSet
963 260 m 1
 1023 133 l 1
 938.097 42 792.687 -25 618 -25 c 0
 305.198 -25 114 214 114 551 c 0
 114 873 312 1114 598 1124 c 0
 882.639 1133.75 1039 921 1039 583 c 0
 1039 567 1037 538 1037 519 c 1
 286 519 l 1
 297.434 279.606 415.078 119 629 119 c 0
 756.649 119 889.098 179.723 963 260 c 1
614 984 m 0
 436.448 984 312.062 850.95 292 635 c 1
 877 635 l 1
 876 868.584 763.569 984 614 984 c 0
EndSplineSet
EndChar

StartChar: eight
Encoding: 56 56 177
Width: 1225
VWidth: 0
GlyphClass: 2
Flags: W
PickledData: "(dp1
S'com.fontlab.hintData'
p2
(dp3
S'vhints'
p4
((dp5
S'position'
p6
I173
sS'width'
p7
I190
s(dp8
g6
I201
sg7
I192
s(dp9
g6
I923
sg7
I190
s(dp10
g6
I951
sg7
I190
stp11
sS'hhints'
p12
((dp13
g6
I-23
sg7
I167
s(dp14
g6
I1323
sg7
I166
stp15
ss."
HStem: -23 167<425.409 809.241> 1323 166<440.7 794.093>
VStem: 132 171<251.286 530.589> 158 177<969.956 1231.74> 897 176<969.956 1231.74> 928 171<251.286 534.234>
LayerCount: 2
Fore
SplineSet
618 -23 m 0xc4
 351 -23 132 116 132 375 c 0xe4
 132 562 225 702 418 764 c 1
 246 822 158 944 158 1120 c 0
 158 1356 354 1489 618 1489 c 0
 882 1489 1073 1356 1073 1120 c 0xd8
 1073 944 992 822 835 764 c 1
 1013 702 1099 562 1099 375 c 0
 1099 116 885 -23 618 -23 c 0xc4
618 686 m 1
 439 647 303 550 303 390 c 0
 303 227 439 144 618 144 c 0
 797 144 928 227 928 390 c 0
 928 550 797 647 618 686 c 1
618 1323 m 0
 470 1323 335 1249 335 1114 c 0
 335 966 436 882 618 844 c 1
 800 882 897 966 897 1114 c 0xd8
 897 1249 766 1323 618 1323 c 0
EndSplineSet
EndChar

StartChar: ellipsis
Encoding: 8230 8230 178
Width: 1509
VWidth: 0
GlyphClass: 2
Flags: W
PickledData: "(dp1
S'com.fontlab.hintData'
p2
(dp3
S'vhints'
p4
((dp5
S'position'
p6
I157
sS'width'
p7
I210
s(dp8
g6
I684
sg7
I212
s(dp9
g6
I1213
sg7
I210
stp10
sS'hhints'
p11
((dp12
g6
I-10
sg7
I224
stp13
ss."
HStem: -10 224<134 323 660 850 1187 1376>
VStem: 134 189<-10 214> 660 190<-10 214> 1187 189<-10 214>
CounterMasks: 1 70
LayerCount: 2
Fore
SplineSet
323 214 m 1
 323 -10 l 1
 134 -10 l 1
 134 214 l 1
 323 214 l 1
850 214 m 1
 850 -10 l 1
 660 -10 l 1
 660 214 l 1
 850 214 l 1
1376 214 m 1
 1376 -10 l 1
 1187 -10 l 1
 1187 214 l 1
 1376 214 l 1
EndSplineSet
EndChar

StartChar: emdash
Encoding: 8212 8212 180
Width: 2427
VWidth: 0
GlyphClass: 2
Flags: W
PickledData: "(dp1
S'com.fontlab.hintData'
p2
(dp3
S'hhints'
p4
((dp5
S'position'
p6
I527
sS'width'
p7
I148
stp8
ss."
HStem: 527 148<139 2296>
LayerCount: 2
Fore
SplineSet
2296 675 m 1
 2296 527 l 1
 139 527 l 1
 139 675 l 1
 2296 675 l 1
EndSplineSet
EndChar

StartChar: endash
Encoding: 8211 8211 181
Width: 1317
VWidth: 0
GlyphClass: 2
Flags: W
PickledData: "(dp1
S'com.fontlab.hintData'
p2
(dp3
S'hhints'
p4
((dp5
S'position'
p6
I527
sS'width'
p7
I148
stp8
ss."
HStem: 527 148<139 1186>
LayerCount: 2
Fore
SplineSet
1186 675 m 1
 1186 527 l 1
 139 527 l 1
 139 675 l 1
 1186 675 l 1
EndSplineSet
EndChar

StartChar: equal
Encoding: 61 61 184
Width: 1286
VWidth: 0
GlyphClass: 2
Flags: W
PickledData: "(dp1
S'com.fontlab.hintData'
p2
(dp3
S'hhints'
p4
((dp5
S'position'
p6
I305
sS'width'
p7
I147
s(dp8
g6
I741
sg7
I150
stp9
ss."
HStem: 305 147<145 1146> 741 150<143 1146>
LayerCount: 2
Fore
SplineSet
145 452 m 1
 1146 452 l 1
 1146 305 l 1
 145 305 l 1
 145 452 l 1
143 891 m 1
 1146 891 l 1
 1146 741 l 1
 143 741 l 1
 143 891 l 1
EndSplineSet
EndChar

StartChar: eth
Encoding: 240 240 186
Width: 1271
VWidth: 0
GlyphClass: 2
Flags: W
PickledData: "(dp1
S'com.fontlab.hintData'
p2
(dp3
S'vhints'
p4
((dp5
S'position'
p6
I70
sS'width'
p7
I202
s(dp8
g6
I908
sg7
I191
stp9
sS'hhints'
p10
((dp11
g6
I-25
sg7
I171
s(dp12
g6
I808
sg7
I163
stp13
ss."
HStem: -25 171<452.881 808.643> 808 163<442.489 773.199>
VStem: 108 182<306.565 655.177> 966 172<306.023 642.826>
LayerCount: 2
Fore
SplineSet
565 971 m 0
 644 971 752 943 815 907 c 1
 532 1243 l 1
 290 1145 l 1
 247 1281 l 1
 434 1361 l 1
 252 1588 l 1
 501 1588 l 1
 619 1438 l 1
 886 1549 l 1
 935 1413 l 1
 715 1322 l 1
 1018 945 1138 774 1138 492 c 0
 1138 198 965 -25 624 -25 c 0
 292 -25 108 202 108 486 c 0
 108 780 284 971 565 971 c 0
966 472 m 0
 966 654 846 808 624 808 c 0
 408 808 290 669 290 474 c 0
 290 292 424 146 630 146 c 0
 836 146 966 288 966 472 c 0
EndSplineSet
EndChar

StartChar: exclam
Encoding: 33 33 187
Width: 486
VWidth: 0
GlyphClass: 2
Flags: W
PickledData: "(dp1
S'com.fontlab.hintData'
p2
(dp3
S'vhints'
p4
((dp5
S'position'
p6
I256
sS'width'
p7
I197
stp8
sS'hhints'
p9
((dp10
g6
I-23
sg7
I208
s(dp11
g6
I1442
sg7
I20
stp12
ss."
HStem: -23 208<154 331> 1442 20G<154 331>
VStem: 154 177<-23 185 1035.84 1462>
LayerCount: 2
Fore
SplineSet
331 1462 m 1
 331 1234 l 1
 275 377 l 1
 216 377 l 1
 154 1234 l 1
 154 1462 l 1
 331 1462 l 1
154 -23 m 1
 154 185 l 1
 331 185 l 1
 331 -23 l 1
 154 -23 l 1
EndSplineSet
EndChar

StartChar: exclamdown
Encoding: 161 161 188
Width: 497
VWidth: 0
GlyphClass: 2
Flags: W
PickledData: "(dp1
S'com.fontlab.hintData'
p2
(dp3
S'vhints'
p4
((dp5
S'position'
p6
I256
sS'width'
p7
I209
s(dp8
g6
I304
sg7
I152
stp9
sS'hhints'
p10
((dp11
g6
I-415
sg7
I21
s(dp12
g6
I953
sg7
I221
stp13
ss."
HStem: -415 21G<196 332> 953 221<152 341>
VStem: 152 189<953 1174> 196 136<-415 747>
LayerCount: 2
Fore
SplineSet
152 953 m 1xe0
 152 1174 l 1
 341 1174 l 1
 341 953 l 1
 152 953 l 1xe0
332 747 m 1xd0
 332 -415 l 1
 196 -415 l 1
 196 747 l 1
 332 747 l 1xd0
EndSplineSet
EndChar

StartChar: f
Encoding: 102 102 189
Width: 775
VWidth: 0
GlyphClass: 2
Flags: W
PickledData: "(dp1
S'com.fontlab.hintData'
p2
(dp3
S'vhints'
p4
((dp5
S'position'
p6
I202
sS'width'
p7
I192
stp8
sS'hhints'
p9
((dp10
g6
I0
sg7
I21
s(dp11
g6
I985
sg7
I113
s(dp12
g6
I1387
sg7
I121
stp13
ss."
HStem: 0 21G<244 417> 985 113<88 244 417 639> 1408 128<491.32 692>
VStem: 244 173<0 985 1098 1332.55>
LayerCount: 2
Fore
SplineSet
88 985 m 1
 88 1098 l 1
 244 1098 l 1
 244 1429 378 1536 692 1536 c 1
 692 1408 l 1
 456 1408 417 1335 417 1098 c 1
 639 1098 l 1
 639 985 l 1
 417 985 l 1
 417 0 l 1
 244 0 l 1
 244 985 l 1
 88 985 l 1
EndSplineSet
EndChar

StartChar: ff
Encoding: 64256 64256 190
Width: 1369
VWidth: 0
GlyphClass: 3
Flags: W
PickledData: "(dp1
S'com.fontlab.hintData'
p2
(dp3
S'vhints'
p4
((dp5
S'position'
p6
I202
sS'width'
p7
I192
s(dp8
g6
I804
sg7
I192
stp9
sS'hhints'
p10
((dp11
g6
I0
sg7
I21
s(dp12
g6
I985
sg7
I113
s(dp13
g6
I1387
sg7
I121
stp14
ss."
HStem: 0 21G<244 417 853 1026> 985 113<89 244 417 853 1026 1248> 1387 121<489.132 702 1082.3 1267>
VStem: 244 173<0 985 1098 1313.08> 853 173<0 985 1098 1329.53>
LayerCount: 2
Fore
SplineSet
89 985 m 1
 89 1098 l 1
 244 1098 l 1
 244 1389 356 1508 664 1508 c 2
 702 1508 l 1
 702 1387 l 1
 643 1387 l 2
 444 1387 417 1284 417 1098 c 1
 853 1098 l 1
 853 1389 965 1508 1235 1508 c 2
 1267 1508 l 1
 1267 1387 l 1
 1217 1387 l 2
 1048 1387 1026 1284 1026 1098 c 1
 1248 1098 l 1
 1248 985 l 1
 1026 985 l 1
 1026 0 l 1
 853 0 l 1
 853 985 l 1
 417 985 l 1
 417 0 l 1
 244 0 l 1
 244 985 l 1
 89 985 l 1
EndSplineSet
LCarets2: 1 0 
Ligature2: "ligaStandardLigatureslookup0 subtable" f f
EndChar

StartChar: fi
Encoding: 64257 64257 191
Width: 1186
VWidth: 0
GlyphClass: 2
Flags: W
PickledData: "(dp1
S'com.fontlab.hintData'
p2
(dp3
S'vhints'
p4
((dp5
S'position'
p6
I240
sS'width'
p7
I161
s(dp8
g6
I850
sg7
I161
stp9
sS'hhints'
p10
((dp11
g6
I0
sg7
I21
s(dp12
g6
I990
sg7
I115
s(dp13
g6
I1407
sg7
I167
s(dp14
g6
I1469
sg7
I21
s(dp15
g6
I1484
sg7
I145
stp16
ss."
HStem: 0 21G<262 407 883 1028> 990 115<85 262 407 883> 1407 167<892 1026> 1469 21G<676 690.712> 1484 145<453.51 687.386>
VStem: 262 145<0 990 1105 1437.92> 883 145<0 990 1407 1574>
LayerCount: 2
Fore
SplineSet
407 990 m 1xce
 407 0 l 1
 262 0 l 1
 262 990 l 1
 85 990 l 1
 85 1105 l 1
 262 1105 l 1
 264 1227 l 1
 268 1459 326 1629 546 1629 c 0xce
 605 1629 638 1620 689 1608 c 1
 691 1469 l 1xd6
 661 1479 618 1484 578 1484 c 0
 436 1484 408 1402 408 1250 c 1
 407 1105 l 1
 1028 1105 l 1
 1028 0 l 1
 883 0 l 1
 883 990 l 1
 407 990 l 1xce
892 1574 m 1xe6
 1026 1574 l 1
 1026 1407 l 1
 892 1407 l 1
 892 1574 l 1xe6
EndSplineSet
EndChar

StartChar: five
Encoding: 53 53 192
Width: 1182
VWidth: 0
GlyphClass: 2
Flags: W
PickledData: "(dp1
S'com.fontlab.hintData'
p2
(dp3
S'vhints'
p4
((dp5
S'position'
p6
I890
sS'width'
p7
I201
stp8
sS'hhints'
p9
((dp10
g6
I-23
sg7
I162
s(dp11
g6
I776
sg7
I157
s(dp12
g6
I1297
sg7
I165
stp13
ss."
HStem: -23 162<298.869 704.14> 776 157<403.635 740.361> 1297 165<369 994>
VStem: 873 181<299.301 645.678>
LayerCount: 2
Fore
SplineSet
994 1462 m 1
 994 1297 l 1
 369 1297 l 1
 364 1153 358 1005 354 861 c 1
 433 911 515 933 599 933 c 0
 902 933 1054 731 1054 477 c 0
 1054 178 850 -23 513 -23 c 0
 339 -23 200 33 111 114 c 1
 176 255 l 1
 239 205 353 139 519 139 c 0
 741 139 873 278 873 475 c 0
 873 648 767 776 565 776 c 0
 471 776 389 746 327 677 c 1
 188 696 l 1
 227 1462 l 1
 994 1462 l 1
EndSplineSet
EndChar

StartChar: fl
Encoding: 64258 64258 193
Width: 1386
VWidth: 0
GlyphClass: 2
Flags: W
PickledData: "(dp1
S'com.fontlab.hintData'
p2
(dp3
S'vhints'
p4
((dp5
S'position'
p6
I215
sS'width'
p7
I188
s(dp8
g6
I833
sg7
I187
stp9
sS'hhints'
p10
((dp11
g6
I-25
sg7
I162
s(dp12
g6
I0
sg7
I21
s(dp13
g6
I985
sg7
I113
s(dp14
g6
I1442
sg7
I161
stp15
ss."
HStem: -11 144<1111.07 1301> 985 113<88 244 417 679> 1386 122<488.255 886> 1386 104<743.201 886>
VStem: 244 173<0 985 1098 1315.5> 886 171<191.883 1386>
LayerCount: 2
Fore
SplineSet
88 985 m 1xec
 88 1098 l 1
 244 1098 l 1
 244 1389 355 1521 663 1508 c 2xec
 1057 1490 l 1xdc
 1057 425 l 2
 1057 243 1057 133 1263 133 c 2
 1301 133 l 1
 1301 -11 l 1
 1263 -11 l 2
 917 -11 886 134 886 479 c 2
 886 1386 l 1
 642 1386 l 2
 443 1386 417 1283 417 1098 c 1
 679 1098 l 1
 679 985 l 1
 417 985 l 1
 417 0 l 1
 244 0 l 1
 244 985 l 1
 88 985 l 1xec
EndSplineSet
EndChar

StartChar: florin
Encoding: 402 402 194
Width: 978
VWidth: 0
GlyphClass: 2
Flags: W
PickledData: "(dp1
S'com.fontlab.hintData'
p2
(dp3
S'hhints'
p4
((dp5
S'position'
p6
I-358
sS'width'
p7
I148
s(dp8
g6
I865
sg7
I150
s(dp9
g6
I1393
sg7
I154
stp10
ss."
HStem: -358 148<37.4717 189.298> 865 150<265 412 615 790> 1393 154<698.171 903.122>
LayerCount: 2
Fore
SplineSet
412 865 m 1
 254 865 l 1
 265 1015 l 1
 438 1015 l 1
 460 1178 l 1
 487 1370 563 1547 783 1547 c 0
 821 1547 868 1537 911 1525 c 1
 903 1369 l 1
 867 1385 836 1393 807 1393 c 0
 704 1393 670 1333 654 1227 c 1
 615 1015 l 1
 801 1015 l 1
 790 865 l 1
 593 865 l 1
 460 130 l 2
 413 -126 346 -358 119 -358 c 0
 94 -358 64 -349 28 -339 c 1
 39 -192 l 1
 66 -202 90 -210 108 -210 c 0
 194 -210 230 -111 255 6 c 1
 319 282 359 583 412 865 c 1
EndSplineSet
EndChar

StartChar: four
Encoding: 52 52 195
Width: 1180
VWidth: 0
GlyphClass: 2
Flags: W
PickledData: "(dp1
S'com.fontlab.hintData'
p2
(dp3
S'vhints'
p4
((dp5
S'position'
p6
I800
sS'width'
p7
I187
stp8
sS'hhints'
p9
((dp10
g6
I0
sg7
I21
s(dp11
g6
I371
sg7
I138
s(dp12
g6
I1442
sg7
I20
stp13
ss."
HStem: 0 21G<762 930> 371 138<262 762 930 1101> 1442 20G<728.991 930>
VStem: 762 168<0 371 509 1232>
LayerCount: 2
Fore
SplineSet
1101 371 m 1
 930 371 l 1
 930 0 l 1
 762 0 l 1
 762 371 l 1
 86 371 l 1
 86 524 l 1
 743 1462 l 1
 930 1462 l 1
 930 509 l 1
 1101 509 l 1
 1101 371 l 1
762 1232 m 1
 262 509 l 1
 762 509 l 1
 762 1232 l 1
EndSplineSet
EndChar

StartChar: foursuperior
Encoding: 8308 8308 196
Width: 756
VWidth: 0
GlyphClass: 2
Flags: W
PickledData: "(dp1
S'com.fontlab.hintData'
p2
(dp3
S'vhints'
p4
((dp5
S'position'
p6
I348
sS'width'
p7
I119
stp8
sS'hhints'
p9
((dp10
g6
I865
sg7
I113
stp11
ss."
HStem: 865 113<213 422 532 626> 1499 20G<401.432 532>
VStem: 423 107<661 865 978 1339>
LayerCount: 2
Fore
SplineSet
530 661 m 1
 423 661 l 1
 423 865 l 1
 92 865 l 1
 92 964 l 1
 413 1519 l 1
 532 1519 l 1
 532 978 l 1
 626 978 l 1
 636 865 l 1
 530 865 l 1
 530 661 l 1
213 978 m 1
 422 978 l 1
 422 1225 421 1282 423 1339 c 1
 213 978 l 1
EndSplineSet
EndChar

StartChar: fraction
Encoding: 8260 8260 197
Width: 1135
VWidth: 0
GlyphClass: 2
Flags: W
PickledData: "(dp1
S'com.fontlab.hintData'
p2
(dp3
S'hhints'
p4
((dp5
S'position'
p6
I0
sS'width'
p7
I21
stp8
ss."
HStem: 0 21G<60 202.312>
LayerCount: 2
Fore
SplineSet
936 1547 m 1
 1066 1547 l 1
 191 0 l 1
 60 0 l 1
 936 1547 l 1
EndSplineSet
EndChar

StartChar: g
Encoding: 103 103 198
Width: 1280
VWidth: 0
GlyphClass: 2
Flags: W
PickledData: "(dp1
S'com.fontlab.hintData'
p2
(dp3
S'vhints'
p4
((dp5
S'position'
p6
I113
sS'width'
p7
I192
s(dp8
g6
I916
sg7
I187
stp9
sS'hhints'
p10
((dp11
g6
I-432
sg7
I164
s(dp12
g6
I0
sg7
I158
s(dp13
g6
I971
sg7
I153
s(dp14
g6
I1078
sg7
I20
stp15
ss."
HStem: -477 164<354 773.502> 20 142<442.874 776.144> 971 153<447.654 779.173> 1078 20G<931 1104>
VStem: 116 172<339.601 789.652> 931 168<-172.892 184 328.064 797.249 951 1098>
LayerCount: 2
Back
SplineSet
1104 -459 m 1xdc
 915 -459 l 1
 915 162 l 1
 834 36 705 -25 558 -25 c 0
 237 -25 109 246 109 538 c 0
 109 856 263 1124 579 1124 c 0xec
 722 1124 832 1065 915 953 c 1
 917 1098 l 1
 1112 1098 l 1
 1112 1098 1104 846 1104 816 c 2
 1104 -459 l 1xdc
917 551 m 0
 917 783 825 971 598 971 c 0
 376 971 300 748 300 551 c 0
 300 354 376 130 598 130 c 0
 825 130 917 317 917 551 c 0
EndSplineSet
Fore
SplineSet
934 557 m 0xec
 934 787 843.548 971 604 971 c 0
 368 971 288 753 288 563 c 0
 288 374.876 366.648 162 593 162 c 4
 841 162 934 338.215 934 557 c 0xec
354 -477 m 1
 354 -313 l 1
 510 -313 l 2
 930 -310.185 931 -134.728 931 143 c 2
 931 184 l 1
 856.236 79.7174 748.024 20 568 20 c 4
 245.286 20 116 303.386 116 554 c 0
 116 866 257 1124 590 1124 c 0xec
 738.818 1124 845.257 1064 931 951 c 1
 931 1098 l 1
 1104 1098 l 1xdc
 1104 1098 1099 846 1099 816 c 2
 1099 159 l 2
 1099 -141.811 1079 -477 506 -477 c 2
 354 -477 l 1
EndSplineSet
EndChar

StartChar: gcedilla
Encoding: 291 291 200
Width: 1268
VWidth: 0
GlyphClass: 2
Flags: W
PickledData: "(dp1
S'com.fontlab.hintData'
p2
(dp3
S'vhints'
p4
((dp5
S'position'
p6
I87
sS'width'
p7
I190
s(dp8
g6
I898
sg7
I184
stp9
sS'hhints'
p10
((dp11
g6
I-432
sg7
I164
s(dp12
g6
I0
sg7
I166
s(dp13
g6
I964
sg7
I160
s(dp14
g6
I1078
sg7
I20
stp15
ss."
HStem: -432 164<357 795.26> 0 166<436.999 776.245> 964 160<439.906 776.521> 1078 20G<938.862 1115>
VStem: 111 171<342.546 787.744> 941 166<-138.96 184 347.807 779.371 953 1098>
LayerCount: 2
Fore
SplineSet
939 563 m 0xec
 939 785 838 964 597 964 c 0
 361 964 282 750 282 563 c 0
 282 376 361 166 597 166 c 0
 838 166 939 341 939 563 c 0xec
357 -432 m 1
 357 -268 l 1
 513 -268 l 1
 939 -266 941 -117 941 119 c 2
 941 184 l 1
 867 67 749 0 567 0 c 0
 240 0 111 294 111 554 c 0
 111 866 250 1124 580 1124 c 0xec
 732 1124 850 1065 938 953 c 1
 939 1098 l 1
 1115 1098 l 1xdc
 1115 1098 1107 846 1107 816 c 2
 1107 135 l 2
 1107 -133 1086 -432 507 -432 c 2
 357 -432 l 1
793 1749 m 1
 683 1250 l 1
 488 1250 l 1
 653 1749 l 1
 793 1749 l 1
EndSplineSet
EndChar

StartChar: germandbls
Encoding: 223 223 201
Width: 1329
VWidth: 0
GlyphClass: 2
Flags: W
PickledData: "(dp1
S'com.fontlab.hintData'
p2
(dp3
S'vhints'
p4
((dp5
S'position'
p6
I176
sS'width'
p7
I193
s(dp8
g6
I847
sg7
I193
s(dp9
g6
I1014
sg7
I209
stp10
sS'hhints'
p11
((dp12
g6
I-28
sg7
I165
s(dp13
g6
I0
sg7
I21
s(dp14
g6
I1430
sg7
I156
stp15
ss."
HStem: -28 165<622.333 937.751> 0 21G<152 326> 1430 156<446.845 755.305>
VStem: 152 174<0 1296.01> 833 201<1113.64 1356.91> 1012 188<207.768 461.154>
LayerCount: 2
Fore
SplineSet
805 137 m 0xb4
 936 137 1012 224 1012 343 c 0xb4
 1012 517 758 630 625 716 c 1
 578 748 543 787 543 833 c 0
 543 867 561 907 608 945 c 0
 707 1024 833 1106 833 1243 c 0
 833 1364 725 1430 602 1430 c 0
 398 1430 326 1276 326 1086 c 2
 326 0 l 1
 152 0 l 1
 152 1107 l 2
 152 1404 294 1586 602 1586 c 0
 852 1586 1034 1459 1034 1243 c 0x78
 1034 1053 848 933 741 849 c 1
 912 737 1200 605 1200 348 c 0
 1200 94 1037 -28 820 -28 c 0
 710 -28 565 7 477 75 c 1
 498 123 522 174 543 222 c 1
 623 174 717 137 805 137 c 0xb4
EndSplineSet
EndChar

StartChar: grave
Encoding: 96 96 202
Width: 643
VWidth: 0
GlyphClass: 2
Flags: W
PickledData: "(dp1
S'com.fontlab.hintData'
p2
(dp3
S'vhints'
p4
((dp5
S'position'
p6
I-2
sS'width'
p7
I460
stp8
sS'hhints'
p9
((dp10
g6
I1267
sg7
I336
stp11
ss."
HStem: 1267 336
VStem: 104 414
LayerCount: 2
Fore
SplineSet
387 1267 m 1
 104 1603 l 1
 315 1603 l 1
 518 1267 l 1
 387 1267 l 1
EndSplineSet
EndChar

StartChar: greater
Encoding: 62 62 203
Width: 1182
VWidth: 0
GlyphClass: 2
Flags: W
LayerCount: 2
Fore
SplineSet
126 230 m 1
 891 598 l 1
 130 997 l 1
 130 1160 l 1
 1086 640 l 1
 1086 544 l 1
 126 62 l 1
 126 230 l 1
EndSplineSet
EndChar

StartChar: greaterequal
Encoding: 8805 8805 204
Width: 1183
VWidth: 0
GlyphClass: 2
Flags: W
PickledData: "(dp1
S'com.fontlab.hintData'
p2
(dp3
S'hhints'
p4
((dp5
S'position'
p6
I8
sS'width'
p7
I133
stp8
ss."
HStem: 8 133<120 1080>
LayerCount: 2
Fore
SplineSet
1080 141 m 1
 1080 8 l 1
 120 8 l 1
 120 141 l 1
 1080 141 l 1
150 1164 m 1
 150 1314 l 1
 1063 806 l 1
 1063 719 l 1
 146 234 l 1
 146 385 l 1
 908 762 l 1
 150 1164 l 1
EndSplineSet
EndChar

StartChar: guillemotleft
Encoding: 171 171 205
Width: 983
VWidth: 0
GlyphClass: 2
Flags: W
LayerCount: 2
Fore
SplineSet
119 583 m 1
 363 982 l 1
 529 982 l 1
 270 583 l 1
 520 182 l 1
 357 182 l 1
 119 583 l 1
462 583 m 1
 726 982 l 1
 864 982 l 1
 633 583 l 1
 858 182 l 1
 722 182 l 1
 462 583 l 1
EndSplineSet
EndChar

StartChar: guillemotright
Encoding: 187 187 206
Width: 1007
VWidth: 0
GlyphClass: 2
Flags: W
LayerCount: 2
Fore
SplineSet
895 585 m 1
 653 182 l 1
 491 182 l 1
 744 585 l 1
 501 982 l 1
 659 982 l 1
 895 585 l 1
528 585 m 1
 263 182 l 1
 124 182 l 1
 356 585 l 1
 129 982 l 1
 266 982 l 1
 528 585 l 1
EndSplineSet
EndChar

StartChar: guilsinglleft
Encoding: 8249 8249 207
Width: 620
VWidth: 0
GlyphClass: 2
Flags: W
PickledData: "(dp1
S'com.fontlab.hintData'
p2
(dp3
S'vhints'
p4
((dp5
S'position'
p6
I103
sS'width'
p7
I423
stp8
ss."
VStem: 120 381
LayerCount: 2
Fore
SplineSet
120 583 m 1
 361 982 l 1
 501 982 l 1
 269 583 l 1
 495 182 l 1
 356 182 l 1
 120 583 l 1
EndSplineSet
EndChar

StartChar: guilsinglright
Encoding: 8250 8250 208
Width: 617
VWidth: 0
GlyphClass: 2
Flags: W
PickledData: "(dp1
S'com.fontlab.hintData'
p2
(dp3
S'vhints'
p4
((dp5
S'position'
p6
I101
sS'width'
p7
I423
stp8
ss."
VStem: 124 381
LayerCount: 2
Fore
SplineSet
505 585 m 1
 264 182 l 1
 124 182 l 1
 355 585 l 1
 130 982 l 1
 269 982 l 1
 505 585 l 1
EndSplineSet
EndChar

StartChar: h
Encoding: 104 104 209
Width: 1199
VWidth: 0
GlyphClass: 2
Flags: W
PickledData: "(dp1
S'com.fontlab.hintData'
p2
(dp3
S'vhints'
p4
((dp5
S'position'
p6
I174
sS'width'
p7
I190
s(dp8
g6
I875
sg7
I189
stp9
sS'hhints'
p10
((dp11
g6
I0
sg7
I21
s(dp12
g6
I971
sg7
I153
s(dp13
g6
I1470
sg7
I20
stp14
ss."
HStem: 0 21G<155 323 882 1048> 971 153<498.949 799.785> 1490 20G<155 323>
VStem: 155 168<0 813.767 945 1510> 882 166<0 878.632>
LayerCount: 2
Back
SplineSet
890 551 m 6xd4
 890 837.223 878.328 971.479 686.768 971.479 c 4
 515.018 971.479 389.241 829.072 364 731 c 5
 364 0 l 5
 177 0 l 5
 177 831 l 6xcc
 177 941 174 1052 174 1098 c 5
 345 1098 l 5xb4
 358 935 l 5
 443.225 1065 587.606 1124 737 1124 c 4
 978 1124 1077 958 1077 657 c 6
 1077 0 l 5
 890 0 l 5
 890 551 l 6xd4
EndSplineSet
Fore
SplineSet
323 727 m 1
 323 0 l 1
 155 0 l 1
 155 1510 l 5
 323 1510 l 5
 323 945 l 1
 419 1071 550 1124 716 1124 c 0
 946 1124 1048 965 1048 677 c 2
 1048 0 l 1
 882 0 l 1
 882 600 l 2
 882 847 846 971 660 971 c 0
 489 971 351 830 323 727 c 1
EndSplineSet
EndChar

StartChar: hbar
Encoding: 295 295 210
Width: 1269
VWidth: 0
GlyphClass: 2
Flags: W
PickledData: "(dp1
S'com.fontlab.hintData'
p2
(dp3
S'vhints'
p4
((dp5
S'position'
p6
I165
sS'width'
p7
I187
s(dp8
g6
I869
sg7
I188
stp9
sS'hhints'
p10
((dp11
g6
I0
sg7
I21
s(dp12
g6
I964
sg7
I160
s(dp13
g6
I1275
sg7
I143
stp14
ss."
HStem: 0 21G<234 403 951 1120> 964 160<574.656 867.055> 1275 143<86 623>
VStem: 234 169<0 806.371 945 1601> 951 169<0 867.344>
LayerCount: 2
Fore
SplineSet
403 719 m 1
 403 0 l 1
 234 0 l 1
 234 1601 l 1
 403 1601 l 1
 403 945 l 1
 493 1071 616 1124 769 1124 c 0
 1013 1124 1120 958 1120 657 c 2
 1120 0 l 1
 951 0 l 1
 951 551 l 2
 951 827 918 964 733 964 c 0
 567 964 430 823 403 719 c 1
623 1275 m 1
 86 1275 l 1
 86 1418 l 1
 623 1418 l 1
 623 1275 l 1
EndSplineSet
EndChar

StartChar: hungarumlaut
Encoding: 733 733 211
Width: 817
VWidth: 0
GlyphClass: 2
Flags: W
PickledData: "(dp1
S'com.fontlab.hintData'
p2
(dp3
S'vhints'
p4
((dp5
S'position'
p6
I167
sS'width'
p7
I649
stp8
sS'hhints'
p9
((dp10
g6
I1259
sg7
I335
stp11
ss."
HStem: 1259 335
VStem: 128 585
LayerCount: 2
Fore
SplineSet
479 1594 m 1
 227 1259 l 1
 128 1259 l 1
 326 1594 l 1
 479 1594 l 1
713 1594 m 1
 463 1259 l 1
 361 1259 l 1
 563 1594 l 1
 713 1594 l 1
EndSplineSet
EndChar

StartChar: hyphen
Encoding: 45 45 212
Width: 731
VWidth: 0
GlyphClass: 2
Flags: W
PickledData: "(dp1
S'com.fontlab.hintData'
p2
(dp3
S'vhints'
p4
((dp5
S'position'
p6
I173
sS'width'
p7
I513
stp8
sS'hhints'
p9
((dp10
g6
I521
sg7
I142
stp11
ss."
HStem: 521 142<139 600>
VStem: 139 461<521 663>
LayerCount: 2
Fore
SplineSet
139 521 m 1
 139 663 l 1
 600 663 l 1
 600 521 l 1
 139 521 l 1
EndSplineSet
EndChar

StartChar: i
Encoding: 105 105 213
Width: 484
VWidth: 0
GlyphClass: 2
Flags: W
PickledData: "(dp1
S'com.fontlab.hintData'
p2
(dp3
S'vhints'
p4
((dp5
S'position'
p6
I160
sS'width'
p7
I187
stp8
sS'hhints'
p9
((dp10
g6
I0
sg7
I21
s(dp11
g6
I1078
sg7
I20
s(dp12
g6
I1292
sg7
I198
stp13
ss."
HStem: 0 21G<156 325> 1078 20G<156 325> 1292 198<156 325>
VStem: 156 169<0 1098 1292 1490>
LayerCount: 2
Back
SplineSet
367 0 m 5
 201 0 l 5
 201 1096 l 5
 367 1096 l 5
 367 0 l 5
EndSplineSet
Fore
SplineSet
325 1098 m 5
 325 0 l 5
 156 0 l 5
 156 1098 l 5
 325 1098 l 5
325 1490 m 1
 325 1292 l 1
 156 1292 l 1
 156 1490 l 1
 325 1490 l 1
EndSplineSet
EndChar

StartChar: ij
Encoding: 307 307 218
Width: 976
VWidth: 0
GlyphClass: 2
Flags: W
PickledData: "(dp1
S'com.fontlab.hintData'
p2
(dp3
S'vhints'
p4
((dp5
S'position'
p6
I147
sS'width'
p7
I189
s(dp8
g6
I639
sg7
I189
stp9
sS'hhints'
p10
((dp11
g6
I-310
sg7
I21
s(dp12
g6
I0
sg7
I21
s(dp13
g6
I1078
sg7
I20
s(dp14
g6
I1359
sg7
I198
stp15
ss."
HStem: -310 21G<437 445> 0 21G<155 325> 1078 20G<155 325 647 817> 1359 198<155 325 647 817>
VStem: 155 170<0 1098 1359 1557> 647 170<-78.9113 1098 1359 1557>
LayerCount: 2
Fore
SplineSet
325 1098 m 1
 325 0 l 1
 155 0 l 1
 155 1098 l 1
 325 1098 l 1
325 1557 m 1
 325 1359 l 1
 155 1359 l 1
 155 1557 l 1
 325 1557 l 1
817 1098 m 1
 817 180 l 2
 817 -148 793 -262 445 -308 c 1
 437 -310 l 1
 437 -141 l 1
 445 -141 l 1
 644 -116 647 -32 647 126 c 2
 647 1098 l 1
 817 1098 l 1
817 1557 m 1
 817 1359 l 1
 647 1359 l 1
 647 1557 l 1
 817 1557 l 1
EndSplineSet
EndChar

StartChar: infinity
Encoding: 8734 8734 220
Width: 1811
VWidth: 0
GlyphClass: 2
Flags: W
PickledData: "(dp1
S'com.fontlab.hintData'
p2
(dp3
S'vhints'
p4
((dp5
S'position'
p6
I93
sS'width'
p7
I126
s(dp8
g6
I1449
sg7
I137
stp9
sS'hhints'
p10
((dp11
g6
I254
sg7
I127
s(dp12
g6
I893
sg7
I124
stp13
ss."
HStem: 254 127<357.461 634.69 1185.09 1462.46> 893 124<348.037 636.699 1181.77 1460.36>
VStem: 135 113<494.594 789.861> 1555 123<484.108 800.799>
LayerCount: 2
Fore
SplineSet
1555 665 m 0
 1555 789 1458 893 1321 893 c 0
 1182 893 1070 770 982 638 c 1
 1105 470 1199 381 1326 381 c 0
 1482 381 1555 507 1555 665 c 0
248 638 m 0
 248 508 347 381 495 381 c 0
 628 381 744 497 838 636 c 1
 744 782 631 893 487 893 c 0
 339 893 248 775 248 638 c 0
1678 642 m 0
 1678 412 1522 254 1323 254 c 0
 1170 254 1046 345 909 525 c 1
 790 367 659 254 493 254 c 0
 266 254 135 441 135 659 c 0
 135 858 291 1017 488 1017 c 0
 659 1017 787 909 909 745 c 1
 1025 903 1151 1017 1326 1017 c 0
 1555 1017 1678 860 1678 642 c 0
EndSplineSet
EndChar

StartChar: integral
Encoding: 8747 8747 221
Width: 698
VWidth: 0
GlyphClass: 2
Flags: W
PickledData: "(dp1
S'com.fontlab.hintData'
p2
(dp3
S'vhints'
p4
((dp5
S'position'
p6
I384
sS'width'
p7
I160
stp8
sS'hhints'
p9
((dp10
g6
I-429
sg7
I145
s(dp11
g6
I1610
sg7
I146
stp12
ss."
HStem: -429 145<42.0008 238.475> 1610 146<460.524 659.998>
VStem: 277 144<-246.68 1572.97>
LayerCount: 2
Fore
SplineSet
277 -50 m 2
 277 1351 l 2
 277 1583 341 1756 540 1756 c 0
 590 1756 620 1745 661 1733 c 1
 662 1594 l 1
 639 1604 600 1610 566 1610 c 0
 446 1610 421 1531 421 1379 c 2
 421 -25 l 2
 421 -257 361 -429 162 -429 c 0
 112 -429 82 -421 41 -409 c 1
 40 -270 l 1
 63 -280 99 -284 133 -284 c 0
 253 -284 277 -202 277 -50 c 2
EndSplineSet
EndChar

StartChar: j
Encoding: 106 106 225
Width: 561
VWidth: 0
GlyphClass: 2
Flags: W
PickledData: "(dp1
S'com.fontlab.hintData'
p2
(dp3
S'vhints'
p4
((dp5
S'position'
p6
I248
sS'width'
p7
I187
stp8
sS'hhints'
p9
((dp10
g6
I-310
sg7
I21
s(dp11
g6
I1078
sg7
I20
s(dp12
g6
I1292
sg7
I198
stp13
ss."
HStem: -310 21G<55 62> 1078 20G<233 402> 1292 198<233 402>
VStem: 233 169<-87.1934 1098 1292 1490>
LayerCount: 2
Fore
SplineSet
402 1098 m 1
 402 180 l 2
 402 -148 379 -262 62 -308 c 1
 55 -310 l 1
 55 -141 l 1
 62 -141 l 1
 231 -116 233 -32 233 126 c 2
 233 1098 l 1
 402 1098 l 1
402 1490 m 1
 402 1292 l 1
 233 1292 l 1
 233 1490 l 1
 402 1490 l 1
EndSplineSet
EndChar

StartChar: k
Encoding: 107 107 227
Width: 1151
VWidth: 0
GlyphClass: 2
Flags: W
PickledData: "(dp1
S'com.fontlab.hintData'
p2
(dp3
S'vhints'
p4
((dp5
S'position'
p6
I174
sS'width'
p7
I189
stp8
sS'hhints'
p9
((dp10
g6
I0
sg7
I21
s(dp11
g6
I1078
sg7
I20
s(dp12
g6
I1470
sg7
I20
stp13
ss."
HStem: 0 21G<155 325 822.737 1053> 1078 20G<784.811 1047> 1490 20G<155 325>
VStem: 155 170<0 448 644 1510>
LayerCount: 2
Fore
SplineSet
155 1510 m 5
 325 1510 l 5
 325 644 l 1
 806 1098 l 1
 1047 1098 l 1
 582 627 l 1
 1053 0 l 1
 838 0 l 1
 432 532 l 1
 325 448 l 1
 325 0 l 1
 155 0 l 1
 155 1510 l 5
EndSplineSet
EndChar

StartChar: kgreenlandic
Encoding: 312 312 230
Width: 1104
VWidth: 0
GlyphClass: 2
Flags: W
PickledData: "(dp1
S'com.fontlab.hintData'
p2
(dp3
S'vhints'
p4
((dp5
S'position'
p6
I174
sS'width'
p7
I162
stp8
sS'hhints'
p9
((dp10
g6
I0
sg7
I21
s(dp11
g6
I1085
sg7
I20
stp12
ss."
HStem: 0 21G<147 293 802.051 1014> 1085 20G<147 293 756.871 981>
VStem: 147 146<0 506 600 1105>
LayerCount: 2
Fore
SplineSet
147 1105 m 1
 293 1105 l 1
 293 600 l 1
 776 1105 l 1
 981 1105 l 1
 458 551 l 1
 654 369 848 182 1014 0 c 1
 823 0 l 1
 293 506 l 1
 293 0 l 1
 147 0 l 1
 147 1105 l 1
EndSplineSet
EndChar

StartChar: l
Encoding: 108 108 231
Width: 646
VWidth: 0
GlyphClass: 2
Flags: W
PickledData: "(dp1
S'com.fontlab.hintData'
p2
(dp3
S'vhints'
p4
((dp5
S'position'
p6
I174
sS'width'
p7
I190
stp8
sS'hhints'
p9
((dp10
g6
I-11
sg7
I144
s(dp11
g6
I1470
sg7
I20
stp12
ss."
HStem: -11 144<376.068 572> 1490 20G<151 322>
VStem: 151 171<191.883 1510>
LayerCount: 2
Fore
SplineSet
151 479 m 2
 151 1510 l 1
 322 1510 l 1
 322 425 l 2
 322 243 322 133 528 133 c 2
 572 133 l 1
 572 -11 l 1
 528 -11 l 2
 182 -11 151 134 151 479 c 2
EndSplineSet
EndChar

StartChar: less
Encoding: 60 60 234
Width: 1179
VWidth: 0
GlyphClass: 2
Flags: W
LayerCount: 2
Fore
SplineSet
1061 982 m 1
 294 596 l 1
 1057 216 l 1
 1057 50 l 1
 103 547 l 1
 103 642 l 1
 1061 1149 l 1
 1061 982 l 1
EndSplineSet
EndChar

StartChar: lessequal
Encoding: 8804 8804 235
Width: 1183
VWidth: 0
GlyphClass: 2
Flags: W
PickledData: "(dp1
S'com.fontlab.hintData'
p2
(dp3
S'hhints'
p4
((dp5
S'position'
p6
I8
sS'width'
p7
I133
stp8
ss."
HStem: 8 133<101 1066>
LayerCount: 2
Fore
SplineSet
1041 383 m 1
 1041 232 l 1
 131 716 l 1
 131 806 l 1
 1041 1312 l 1
 1041 1162 l 1
 285 766 l 1
 1041 383 l 1
1066 141 m 1
 1066 8 l 1
 101 8 l 1
 101 141 l 1
 1066 141 l 1
EndSplineSet
EndChar

StartChar: logicalnot
Encoding: 172 172 236
Width: 1280
VWidth: 0
GlyphClass: 2
Flags: W
PickledData: "(dp1
S'com.fontlab.hintData'
p2
(dp3
S'vhints'
p4
((dp5
S'position'
p6
I1073
sS'width'
p7
I148
stp8
sS'hhints'
p9
((dp10
g6
I709
sg7
I151
stp11
ss."
HStem: 709 151<115 1003>
VStem: 1003 133<256 709>
LayerCount: 2
Fore
SplineSet
1136 256 m 1
 1003 256 l 1
 1003 709 l 1
 115 709 l 1
 115 860 l 1
 1136 860 l 1
 1136 256 l 1
EndSplineSet
EndChar

StartChar: lozenge
Encoding: 9674 9674 237
Width: 1142
VWidth: 0
GlyphClass: 2
Flags: W
LayerCount: 2
Fore
SplineSet
565 106 m 1
 632 230 l 1
 923 766 l 1
 638 1305 l 1
 577 1424 l 1
 508 1299 l 1
 219 768 l 1
 499 227 l 1
 565 106 l 1
630 1583 m 1
 1055 768 l 1
 621 -48 l 1
 512 -48 l 1
 87 766 l 1
 519 1583 l 1
 630 1583 l 1
EndSplineSet
EndChar

StartChar: lslash
Encoding: 322 322 238
Width: 668
VWidth: 0
GlyphClass: 2
Flags: W
PickledData: "(dp1
S'com.fontlab.hintData'
p2
(dp3
S'vhints'
p4
((dp5
S'position'
p6
I165
sS'width'
p7
I158
stp8
sS'hhints'
p9
((dp10
g6
I0
sg7
I21
s(dp11
g6
I1085
sg7
I20
stp12
ss."
HStem: 0 21G<255 397> 1085 20G<522.482 551>
VStem: 255 142<0 741 997 1608>
LayerCount: 2
Fore
SplineSet
255 1608 m 1
 397 1608 l 1
 397 997 l 1
 551 1105 l 1
 551 959 l 1
 397 849 l 1
 397 0 l 1
 255 0 l 1
 255 741 l 1
 107 636 l 1
 107 781 l 1
 255 889 l 1
 255 1608 l 1
EndSplineSet
EndChar

StartChar: m
Encoding: 109 109 239
Width: 1854
VWidth: 0
GlyphClass: 2
Flags: W
PickledData: "(dp1
S'com.fontlab.hintData'
p2
(dp3
S'vhints'
p4
((dp5
S'position'
p6
I174
sS'width'
p7
I175
s(dp8
g6
I177
sg7
I191
s(dp9
g6
I872
sg7
I190
s(dp10
g6
I1536
sg7
I191
stp11
sS'hhints'
p12
((dp13
g6
I0
sg7
I21
s(dp14
g6
I971
sg7
I153
s(dp15
g6
I1078
sg7
I20
stp16
ss."
HStem: 0 21G<149 321 857 1028 1531 1703> 971 153<482.095 765.952 1177.2 1450.24> 1078 20G<147 305.569>
VStem: 147 157<945 1098> 149 172<0 803.377> 857 171<0 814.06> 1531 172<0 872.141>
LayerCount: 2
Fore
SplineSet
1703 697 m 2xd6
 1703 0 l 1
 1531 0 l 1
 1531 573 l 2
 1531 820 1504 971 1318 971 c 0
 1179 971 1028 840 1028 650 c 2
 1028 0 l 1
 857 0 l 1
 857 608 l 2
 857 832 803 971 637 971 c 0
 468 971 351 839 321 691 c 1
 321 0 l 1
 149 0 l 1
 149 820 l 2xce
 149 913 149 1007 147 1098 c 1
 304 1098 l 1xb6
 316 945 l 1
 414 1075 518 1124 657 1124 c 0
 810 1124 934 1067 985 921 c 1
 1082 1069 1200 1124 1355 1124 c 0
 1602 1124 1703 954 1703 697 c 2xd6
EndSplineSet
EndChar

StartChar: macron
Encoding: 65541 -1 240
Width: 770
VWidth: 0
GlyphClass: 2
Flags: W
PickledData: "(dp1
S'com.fontlab.hintData'
p2
(dp3
S'vhints'
p4
((dp5
S'position'
p6
I79
sS'width'
p7
I557
stp8
sS'hhints'
p9
((dp10
g6
I1275
sg7
I143
stp11
ss."
HStem: 1275 143<136 637>
VStem: 136 501<1275 1418>
LayerCount: 2
Fore
SplineSet
637 1275 m 1
 136 1275 l 1
 136 1418 l 1
 637 1418 l 1
 637 1275 l 1
EndSplineSet
EndChar

StartChar: middot
Encoding: 183 183 241
Width: 468
VWidth: 0
GlyphClass: 2
Flags: W
PickledData: "(dp1
S'com.fontlab.hintData'
p2
(dp3
S'vhints'
p4
((dp5
S'position'
p6
I74
sS'width'
p7
I214
stp8
sS'hhints'
p9
((dp10
g6
I551
sg7
I227
stp11
ss."
HStem: 551 227<140 332>
VStem: 140 192<551 778>
LayerCount: 2
Fore
SplineSet
332 778 m 1
 332 551 l 1
 140 551 l 1
 140 778 l 1
 332 778 l 1
EndSplineSet
EndChar

StartChar: minus
Encoding: 8722 8722 242
Width: 1274
VWidth: 0
GlyphClass: 2
Flags: W
PickledData: "(dp1
S'com.fontlab.hintData'
p2
(dp3
S'hhints'
p4
((dp5
S'position'
p6
I534
sS'width'
p7
I148
stp8
ss."
HStem: 534 148<140 1141>
LayerCount: 2
Fore
SplineSet
140 682 m 1
 1141 682 l 1
 1141 534 l 1
 140 534 l 1
 140 682 l 1
EndSplineSet
EndChar

StartChar: mu
Encoding: 956 956 243
Width: 1184
VWidth: 0
GlyphClass: 2
Flags: W
PickledData: "(dp1
S'com.fontlab.hintData'
p2
(dp3
S'vhints'
p4
((dp5
S'position'
p6
I135
sS'width'
p7
I188
s(dp8
g6
I135
sg7
I163
s(dp9
g6
I816
sg7
I191
stp10
sS'hhints'
p11
((dp12
g6
I-25
sg7
I164
s(dp13
g6
I1078
sg7
I20
stp14
ss."
HStem: -25 164<445.638 737.633> 1078 20G<160 329 853 1024>
VStem: 160 169<255.977 1098> 160 146<-218 97> 853 171<258.343 1098>
LayerCount: 2
Fore
SplineSet
592 -25 m 0xe8
 489 -25 374 6 306 97 c 1
 306 -218 l 1
 160 -218 l 1xd8
 160 1098 l 1
 329 1098 l 1
 329 419 l 2
 329 237 461 139 592 139 c 0
 723 139 853 237 853 419 c 2
 853 1098 l 1
 1024 1098 l 1
 1024 421 l 2
 1024 124 824 -25 592 -25 c 0xe8
EndSplineSet
EndChar

StartChar: multiply
Encoding: 215 215 244
Width: 993
VWidth: 0
GlyphClass: 2
Flags: W
LayerCount: 2
Fore
SplineSet
860 915 m 1
 595 598 l 1
 860 278 l 1
 767 166 l 1
 488 486 l 1
 206 166 l 1
 115 276 l 1
 381 598 l 1
 115 917 l 1
 206 1027 l 1
 488 707 l 1
 767 1027 l 1
 860 915 l 1
EndSplineSet
EndChar

StartChar: n
Encoding: 110 110 245
Width: 1194
VWidth: 0
GlyphClass: 2
Flags: W
PickledData: "(dp1
S'com.fontlab.hintData'
p2
(dp3
S'vhints'
p4
((dp5
S'position'
p6
I174
sS'width'
p7
I171
s(dp8
g6
I177
sg7
I187
s(dp9
g6
I889
sg7
I187
stp10
sS'hhints'
p11
((dp12
g6
I0
sg7
I21
s(dp13
g6
I971
sg7
I153
s(dp14
g6
I1078
sg7
I20
stp15
ss."
HStem: 0 21G<150 318 875 1043> 971 153<492.232 802.404> 1078 20G<147 302.569>
VStem: 147 154<945 1098> 150 168<0 814.921> 875 168<0 891.655>
LayerCount: 2
Back
SplineSet
885 551 m 2xd4
 885 837 874 971 682 971 c 0
 510 971 384 829 359 731 c 1
 359 0 l 1
 172 0 l 1
 172 831 l 2xcc
 169 1098 l 1
 340 1098 l 1xb4
 353 945 l 1
 438 1068.12 583 1124 732 1124 c 0
 973 1124 1072 958 1072 657 c 2
 1072 0 l 1
 885 0 l 1
 885 551 l 2xd4
EndSplineSet
Fore
SplineSet
697 1124 m 0xd4
 937.609 1124 1043 965 1043 657 c 2
 1043 0 l 1
 875 0 l 1
 875 551 l 2
 875 837 863.111 971 661 971 c 0
 478 971 344 829 318 731 c 1
 318 0 l 1
 150 0 l 1
 150 831 l 1xcc
 147 1098 l 1
 301 1098 l 1xb4
 313 945 l 1
 398 1063 545 1124 697 1124 c 0xd4
EndSplineSet
EndChar

StartChar: nine
Encoding: 57 57 248
Width: 1231
VWidth: 0
GlyphClass: 2
Flags: W
PickledData: "(dp1
S'com.fontlab.hintData'
p2
(dp3
S'vhints'
p4
((dp5
S'position'
p6
I85
sS'width'
p7
I203
s(dp8
g6
I921
sg7
I191
stp9
sS'hhints'
p10
((dp11
g6
I-23
sg7
I21
s(dp12
g6
I557
sg7
I150
s(dp13
g6
I1332
sg7
I157
stp14
ss."
HStem: -23 21G<252 714.5> 557 150<432.389 768.356> 1332 157<446.772 796.38>
VStem: 108 183<845.358 1178.44> 940 172<850.741 1189.46>
LayerCount: 2
Fore
SplineSet
554 557 m 0
 285 557 108 734 108 1010 c 0
 108 1277 293 1489 614 1489 c 0
 941 1489 1112 1282 1112 1006 c 0
 1112 686 941 524 488 -23 c 1
 252 -23 l 1
 803 617 l 1
 740 583 633 557 554 557 c 0
940 1025 m 0
 940 1198 826 1332 620 1332 c 0
 414 1332 291 1191 291 1020 c 0
 291 837 398 707 614 707 c 0
 836 707 940 854 940 1025 c 0
EndSplineSet
EndChar

StartChar: notequal
Encoding: 8800 8800 249
Width: 1191
VWidth: 0
GlyphClass: 2
Flags: W
PickledData: "(dp1
S'com.fontlab.hintData'
p2
(dp3
S'hhints'
p4
((dp5
S'position'
p6
I352
sS'width'
p7
I127
s(dp8
g6
I783
sg7
I132
stp9
ss."
HStem: 352 127<121 382 581 1076> 783 132<121 598 796 1074>
LayerCount: 2
Fore
SplineSet
798 1207 m 1
 913 1191 l 1
 796 915 l 1
 1074 915 l 1
 1083 783 l 1
 737 783 l 1
 581 479 l 1
 1076 479 l 1
 1083 352 l 1
 521 352 l 1
 376 48 l 1
 263 68 l 1
 382 352 l 1
 121 352 l 1
 114 479 l 1
 446 479 l 1
 598 783 l 1
 121 783 l 1
 112 915 l 1
 657 915 l 1
 798 1207 l 1
EndSplineSet
EndChar

StartChar: numbersign
Encoding: 35 35 252
Width: 1134
VWidth: 0
GlyphClass: 2
Flags: W
PickledData: "(dp1
S'com.fontlab.hintData'
p2
(dp3
S'hhints'
p4
((dp5
S'position'
p6
I-23
sS'width'
p7
I21
s(dp8
g6
I410
sg7
I126
s(dp9
g6
I931
sg7
I124
s(dp10
g6
I1442
sg7
I20
stp11
ss."
HStem: -23 21G<189 321.695 549 703.972> 410 126<101 262 422 633 804 941> 931 124<177 345 527 737 894 1018> 1442 20G<448.921 606 828.511 960>
LayerCount: 2
Fore
SplineSet
1032 1055 m 1
 1018 931 l 1
 871 931 l 1
 804 536 l 1
 951 536 l 1
 941 410 l 1
 786 410 l 1
 700 -23 l 1
 549 -23 l 1
 633 410 l 1
 398 410 l 1
 318 -23 l 1
 189 -23 l 1
 262 410 l 1
 91 410 l 1
 101 536 l 1
 284 536 l 1
 345 930 l 1
 168 930 l 1
 177 1055 l 1
 370 1055 l 1
 453 1462 l 1
 606 1462 l 1
 527 1055 l 1
 761 1055 l 1
 832 1462 l 1
 960 1462 l 1
 894 1055 l 1
 1032 1055 l 1
737 931 m 1
 502 931 l 1
 422 536 l 1
 658 536 l 1
 737 931 l 1
EndSplineSet
EndChar

StartChar: o
Encoding: 111 111 253
Width: 1303
VWidth: 0
GlyphClass: 2
Flags: W
PickledData: "(dp1
S'com.fontlab.hintData'
p2
(dp3
S'vhints'
p4
((dp5
S'position'
p6
I113
sS'width'
p7
I193
s(dp8
g6
I974
sg7
I194
stp9
sS'hhints'
p10
((dp11
g6
I-25
sg7
I149
s(dp12
g6
I976
sg7
I148
stp13
ss."
HStem: -25 143<478.839 817.086> 982 142<484.39 820.498>
VStem: 112 173<327.077 759.908> 995 174<319.717 781.608>
LayerCount: 2
Fore
SplineSet
1169 549 m 4
 1169 244 974 -25 645 -25 c 4
 310 -25 112 233 112 547 c 4
 112 861 313 1124 648 1124 c 4
 984 1124 1169 865 1169 549 c 4
995 547 m 4
 995 780 892 982 645 982 c 4
 410 982 285 768 285 544 c 4
 285 322 407 118 648 118 c 4
 886 118 995 323 995 547 c 4
EndSplineSet
EndChar

StartChar: oe
Encoding: 339 339 257
Width: 1995
VWidth: 0
GlyphClass: 2
Flags: W
PickledData: "(dp1
S'com.fontlab.hintData'
p2
(dp3
S'vhints'
p4
((dp5
S'position'
p6
I79
sS'width'
p7
I193
s(dp8
g6
I940
sg7
I194
stp9
sS'hhints'
p10
((dp11
g6
I-25
sg7
I162
s(dp12
g6
I511
sg7
I135
s(dp13
g6
I961
sg7
I163
stp14
ss."
HStem: -25 162<475.171 822.491 1324.74 1619.67> 511 135<1178 1693> 961 163<476.707 821.871 1314.75 1587.57>
VStem: 114 174<337.896 754.818> 997 174<333.054 511 646 767.201>
LayerCount: 2
Fore
SplineSet
1725 290 m 1
 1829 178 l 1
 1745 25 1609 -25 1455 -25 c 0
 1299 -25 1169 68 1087 214 c 1
 1007 70 854 -25 646 -25 c 0
 281 -25 114 233 114 547 c 0
 114 861 285 1124 650 1124 c 0
 864 1124 1009 1034 1087 895 c 1
 1169 1039 1304 1124 1462 1124 c 0
 1691 1124 1858 917 1858 576 c 0
 1858 560 1856 530 1856 511 c 1
 1171 511 l 1
 1184 287 1297 137 1468 137 c 0
 1576 137 1670 195 1725 290 c 1
997 547 m 0
 997 769 893 961 646 961 c 0
 411 961 288 758 288 544 c 0
 288 330 409 137 650 137 c 0
 888 137 997 333 997 547 c 0
1464 966 m 0
 1316 966 1201 845 1178 646 c 1
 1693 646 l 1
 1682 843 1596 966 1464 966 c 0
EndSplineSet
EndChar

StartChar: ogonek
Encoding: 731 731 258
Width: 590
VWidth: 0
GlyphClass: 2
Flags: W
PickledData: "(dp1
S'com.fontlab.hintData'
p2
(dp3
S'vhints'
p4
((dp5
S'position'
p6
I46
sS'width'
p7
I138
stp8
sS'hhints'
p9
((dp10
g6
I-419
sg7
I116
stp11
ss."
HStem: -419 116<256.409 465.979>
VStem: 118 125<-288.957 -120.364>
LayerCount: 2
Fore
SplineSet
331 -303 m 0
 384 -303 418 -292 468 -270 c 1
 468 -387 l 1
 432 -403 364 -419 311 -419 c 0
 203 -419 118 -357 118 -243 c 0
 118 -133 213 -45 309 12 c 1
 423 0 l 1
 320 -77 243 -146 243 -214 c 0
 243 -267 290 -303 331 -303 c 0
EndSplineSet
EndChar

StartChar: one
Encoding: 49 49 260
Width: 666
VWidth: 0
GlyphClass: 2
Flags: W
PickledData: "(dp1
S'com.fontlab.hintData'
p2
(dp3
S'vhints'
p4
((dp5
S'position'
p6
I483
sS'width'
p7
I198
stp8
sS'hhints'
p9
((dp10
g6
I0
sg7
I21
s(dp11
g6
I1442
sg7
I20
stp12
ss."
HStem: 0 21G<330 509> 1442 20G<291 509>
VStem: 330 179<0 1295>
LayerCount: 2
Fore
SplineSet
330 1462 m 1
 509 1462 l 1
 509 0 l 1
 330 0 l 1
 330 1295 l 1
 252 1243 176 1199 85 1158 c 1
 85 1315 l 1
 172 1353 252 1407 330 1462 c 1
EndSplineSet
EndChar

StartChar: onehalf
Encoding: 189 189 261
Width: 1591
VWidth: 0
GlyphClass: 2
Flags: W
PickledData: "(dp1
S'com.fontlab.hintData'
p2
(dp3
S'vhints'
p4
((dp5
S'position'
p6
I384
sS'width'
p7
I118
s(dp8
g6
I1451
sg7
I125
stp9
sS'hhints'
p10
((dp11
g6
I-30
sg7
I129
s(dp12
g6
I0
sg7
I21
s(dp13
g6
I650
sg7
I128
s(dp14
g6
I745
sg7
I127
stp15
ss."
HStem: -30 129<1123 1457> 0 21G<245 391.153> 650 125<149 257 363 487> 745 127<1102.67 1344.65>
VStem: 257 106<778 1369> 1370 113<512.194 715.068>
LayerCount: 2
Fore
SplineSet
122 1294 m 1x2c
 122 1436 l 1
 183 1461 231 1487 271 1519 c 1
 363 1538 l 1
 363 775 l 1
 487 775 l 1
 487 650 l 1
 149 650 l 1
 149 778 l 1
 257 778 l 1
 257 1179 255 1263 255 1369 c 1
 217 1344 167 1316 122 1294 c 1x2c
1165 1547 m 1
 1319 1547 l 1
 379 0 l 1
 245 0 l 1x4c
 1165 1547 l 1
1457 -30 m 1x9c
 934 -30 l 1
 934 93 l 1
 1187 333 1370 508 1370 627 c 0
 1370 700 1317 745 1225 745 c 0
 1137 745 1071 693 1031 604 c 1
 943 689 l 1
 990 806 1099 872 1230 872 c 0
 1381 872 1483 779 1483 629 c 0
 1483 445 1316 286 1123 99 c 1
 1457 99 l 1
 1457 -30 l 1x9c
EndSplineSet
EndChar

StartChar: onequarter
Encoding: 188 188 262
Width: 1609
VWidth: 0
GlyphClass: 2
Flags: W
PickledData: "(dp1
S'com.fontlab.hintData'
p2
(dp3
S'vhints'
p4
((dp5
S'position'
p6
I384
sS'width'
p7
I118
s(dp8
g6
I1410
sg7
I119
stp9
sS'hhints'
p10
((dp11
g6
I0
sg7
I21
s(dp12
g6
I240
sg7
I118
s(dp13
g6
I650
sg7
I128
stp14
ss."
HStem: 0 21G<293 437.023> 240 118<1066 1312 1422 1516> 650 125<147 255 361 473>
VStem: 255 106<778 1369> 1313 107<40 240 358 716>
LayerCount: 2
Fore
SplineSet
120 1294 m 1
 120 1436 l 1
 181 1461 228 1487 268 1519 c 1
 361 1538 l 1
 361 775 l 1
 473 775 l 1
 473 650 l 1
 147 650 l 1
 147 778 l 1
 255 778 l 1
 255 1179 253 1263 253 1369 c 1
 215 1344 165 1316 120 1294 c 1
1212 1547 m 1
 1355 1547 l 1
 425 0 l 1
 293 0 l 1
 1212 1547 l 1
1420 40 m 1
 1313 40 l 1
 1313 240 l 1
 923 240 l 1
 923 339 l 1
 1302 899 l 1
 1422 899 l 1
 1422 358 l 1
 1516 358 l 1
 1526 240 l 1
 1420 240 l 1
 1420 40 l 1
1066 358 m 1
 1312 358 l 1
 1312 605 1311 659 1313 716 c 1
 1066 358 l 1
EndSplineSet
EndChar

StartChar: onesuperior
Encoding: 185 185 263
Width: 613
VWidth: 0
GlyphClass: 2
Flags: W
PickledData: "(dp1
S'com.fontlab.hintData'
p2
(dp3
S'vhints'
p4
((dp5
S'position'
p6
I384
sS'width'
p7
I118
stp8
sS'hhints'
p9
((dp10
g6
I650
sg7
I128
stp11
ss."
HStem: 650 128<163 271 377 483>
VStem: 271 106<778 1369>
LayerCount: 2
Fore
SplineSet
136 1294 m 1
 136 1436 l 1
 197 1461 245 1487 285 1519 c 1
 377 1538 l 1
 377 775 l 1
 483 775 l 1
 483 650 l 1
 163 650 l 1
 163 778 l 1
 271 778 l 1
 271 1179 269 1263 269 1369 c 1
 231 1344 181 1316 136 1294 c 1
EndSplineSet
EndChar

StartChar: ordfeminine
Encoding: 170 170 264
Width: 807
VWidth: 0
GlyphClass: 2
Flags: W
PickledData: "(dp1
S'com.fontlab.hintData'
p2
(dp3
S'vhints'
p4
((dp5
S'position'
p6
I63
sS'width'
p7
I133
s(dp8
g6
I524
sg7
I128
stp9
sS'hhints'
p10
((dp11
g6
I826
sg7
I111
s(dp12
g6
I1473
sg7
I117
stp13
ss."
HStem: 826 111<266.834 477.065> 1473 117<269.293 521.971>
VStem: 128 119<957.934 1140.65> 543 115<847 926 1007.12 1195 1298.57 1449.52>
LayerCount: 2
Fore
SplineSet
350 826 m 0
 223 826 128 913 128 1050 c 0
 128 1174 220 1257 343 1282 c 1
 410 1294 478 1295 543 1303 c 1
 543 1433 516 1473 413 1473 c 0
 340 1473 271 1457 228 1375 c 1
 167 1453 l 1
 212 1550 309 1590 419 1590 c 0
 549 1590 660 1517 660 1330 c 1
 658 982 l 2
 658 968 659 938 664 847 c 1
 546 847 l 1
 543 926 l 1
 503 867 437 826 350 826 c 0
369 937 m 0
 487 937 539 1047 543 1168 c 1
 543 1195 l 1
 420 1165 247 1192 247 1053 c 0
 247 974 298 937 369 937 c 0
EndSplineSet
EndChar

StartChar: ordmasculine
Encoding: 186 186 265
Width: 899
VWidth: 0
GlyphClass: 2
Flags: W
PickledData: "(dp1
S'com.fontlab.hintData'
p2
(dp3
S'vhints'
p4
((dp5
S'position'
p6
I50
sS'width'
p7
I138
s(dp8
g6
I621
sg7
I137
stp9
sS'hhints'
p10
((dp11
g6
I826
sg7
I115
s(dp12
g6
I1473
sg7
I117
stp13
ss."
HStem: 826 115<337.165 564.93> 1473 117<338.152 563.455>
VStem: 131 125<1030.59 1384.32> 645 124<1030.23 1382.49>
LayerCount: 2
Fore
SplineSet
451 1590 m 0
 655 1590 769 1419 769 1205 c 0
 769 995 655 826 453 826 c 0
 242 826 131 994 131 1210 c 0
 131 1422 249 1590 451 1590 c 0
256 1207 m 0
 256 1059 323 941 453 941 c 0
 578 941 645 1062 645 1203 c 0
 645 1351 576 1473 449 1473 c 0
 326 1473 256 1351 256 1207 c 0
EndSplineSet
EndChar

StartChar: oslash
Encoding: 248 248 266
Width: 1282
VWidth: 0
GlyphClass: 2
Flags: W
PickledData: "(dp1
S'com.fontlab.hintData'
p2
(dp3
S'vhints'
p4
((dp5
S'position'
p6
I79
sS'width'
p7
I168
s(dp8
g6
I934
sg7
I171
stp9
sS'hhints'
p10
((dp11
g6
I-25
sg7
I142
s(dp12
g6
I988
sg7
I144
stp13
ss."
HStem: -25 142<521.01 808.552> 988 144<466.835 744.49>
VStem: 112 152<331.925 767.392> 994 154<329.817 780.348>
LayerCount: 2
Fore
SplineSet
636 1132 m 0
 696 1132 750 1122 801 1110 c 1
 909 1377 l 1
 1014 1341 l 1
 904 1069 l 1
 1070 974 1148 778 1148 551 c 0
 1148 239 978 -25 630 -25 c 0
 570 -25 516 -14 465 -2 c 1
 347 -280 l 1
 247 -247 l 1
 363 38 l 1
 194 131 112 324 112 551 c 0
 112 871 282 1132 636 1132 c 0
264 549 m 0
 264 399 318 259 423 182 c 1
 746 971 l 1
 709 979 672 988 630 988 c 0
 392 988 264 779 264 549 c 0
994 551 m 0
 994 704 945 840 844 919 c 1
 519 135 l 1
 556 125 594 117 636 117 c 0
 877 117 994 321 994 551 c 0
EndSplineSet
EndChar

StartChar: p
Encoding: 112 112 268
Width: 1252
VWidth: 0
GlyphClass: 2
Flags: W
PickledData: "(dp1
S'com.fontlab.hintData'
p2
(dp3
S'vhints'
p4
((dp5
S'position'
p6
I181
sS'width'
p7
I190
s(dp8
g6
I980
sg7
I194
stp9
sS'hhints'
p10
((dp11
g6
I-459
sg7
I21
s(dp12
g6
I-25
sg7
I155
s(dp13
g6
I971
sg7
I153
s(dp14
g6
I1078
sg7
I20
stp15
ss."
HStem: -459 21G<147 316> -25 148<473.176 783.688> 976 148<473.409 783.999> 1079 20G<147 313.405>
VStem: 147 169<-459 160 301.851 796.47 951 1099> 942 173<310.266 788.62>
LayerCount: 2
Back
SplineSet
174 -459 m 5x7c
 361 -459 l 5
 361 160 l 5
 432 34 549 -25 680 -25 c 4
 989 -25 1142 240 1142 537 c 4
 1142 855 991 1124 680 1124 c 4xbc
 545 1124 439 1063 361 951 c 5
 358 1099 l 5
 174 1099 l 5
 174 -459 l 5x7c
358 548 m 4
 358 786 447 976 661 976 c 4
 878 976 950 748 950 548 c 4
 950 349 878 123 661 123 c 4
 447 123 358 313 358 548 c 4
EndSplineSet
Fore
SplineSet
147 -459 m 1xec
 147 1099 l 1
 313 1099 l 1xdc
 316 951 l 1
 399 1063 511 1124 655 1124 c 0
 979 1124 1115 855 1115 537 c 0
 1115 240 977 -25 655 -25 c 0
 516 -25 392 34 316 160 c 1
 316 -459 l 1
 147 -459 l 1xec
313 548 m 0
 313 313 407 123 635 123 c 0
 865 123 942 349 942 548 c 0
 942 748 865 976 635 976 c 0xec
 407 976 313 786 313 548 c 0
EndSplineSet
EndChar

StartChar: paragraph
Encoding: 182 182 269
Width: 1068
VWidth: 0
GlyphClass: 2
Flags: W
PickledData: "(dp1
S'com.fontlab.hintData'
p2
(dp3
S'vhints'
p4
((dp5
S'position'
p6
I103
sS'width'
p7
I468
s(dp8
g6
I432
sg7
I139
s(dp9
g6
I776
sg7
I128
stp10
sS'hhints'
p11
((dp12
g6
I1430
sg7
I131
stp13
ss."
HStem: 1430 131<526.227 737 852 927>
VStem: 97 421<1019.38 1394.64> 393 125<-158 847> 737 115<-158 1430>
LayerCount: 2
Fore
SplineSet
518 -158 m 1xb0
 393 -158 l 1
 393 847 l 1xb0
 235 849 97 998 97 1218 c 0xd0
 97 1490 312 1561 561 1561 c 2
 927 1561 l 1
 927 1430 l 1
 852 1430 l 1
 852 -158 l 1
 737 -158 l 1
 737 1430 l 1
 518 1430 l 1
 518 -158 l 1xb0
EndSplineSet
EndChar

StartChar: parenleft
Encoding: 40 40 270
Width: 612
VWidth: 0
GlyphClass: 2
Flags: W
PickledData: "(dp1
S'com.fontlab.hintData'
p2
(dp3
S'vhints'
p4
((dp5
S'position'
p6
I169
sS'width'
p7
I183
stp8
ss."
HStem: 1485 20G<296 518>
VStem: 125 165<276.831 997.529>
LayerCount: 2
Fore
SplineSet
520 -223 m 1
 373 -223 l 1
 233 18 125 325 125 631 c 0
 125 949 222 1236 370 1505 c 1
 518 1505 l 1
 373 1240 290 945 290 637 c 0
 290 351 380 29 520 -223 c 1
EndSplineSet
EndChar

StartChar: parenright
Encoding: 41 41 271
Width: 612
VWidth: 0
GlyphClass: 2
Flags: W
PickledData: "(dp1
S'com.fontlab.hintData'
p2
(dp3
S'vhints'
p4
((dp5
S'position'
p6
I359
sS'width'
p7
I185
stp8
ss."
HStem: 1485 20G<93 315>
VStem: 322 166<290.772 990.607>
LayerCount: 2
Fore
SplineSet
238 -223 m 1
 93 -223 l 1
 233 29 322 351 322 637 c 0
 322 945 238 1240 93 1505 c 1
 241 1505 l 1
 389 1236 488 949 488 631 c 0
 488 325 378 18 238 -223 c 1
EndSplineSet
EndChar

StartChar: partialdiff
Encoding: 8706 8706 272
Width: 1208
VWidth: 0
GlyphClass: 2
Flags: W
PickledData: "(dp1
S'com.fontlab.hintData'
p2
(dp3
S'vhints'
p4
((dp5
S'position'
p6
I83
sS'width'
p7
I164
s(dp8
g6
I883
sg7
I167
stp9
sS'hhints'
p10
((dp11
g6
I-28
sg7
I147
s(dp12
g6
I935
sg7
I142
s(dp13
g6
I1507
sg7
I145
stp14
ss."
HStem: -28 147<377.994 649.237> 935 142<477.186 777.052> 1507 145<403.951 737.445>
VStem: 113 148<251.848 674.507> 918 151<901 1278.4>
LayerCount: 2
Fore
SplineSet
511 119 m 0
 728 119 872 383 904 705 c 1
 870 826 775 935 631 935 c 0
 423 935 261 712 261 450 c 0
 261 251 358 119 511 119 c 0
301 1405 m 1
 288 1553 l 1
 372 1610 487 1652 609 1652 c 0
 907 1652 1069 1421 1069 917 c 0
 1069 453 905 -28 510 -28 c 0
 234 -28 113 182 113 452 c 0
 113 806 317 1077 606 1077 c 0
 743 1077 849 1013 917 901 c 1
 917 920 918 952 918 980 c 0
 918 1306 802 1507 585 1507 c 0
 484 1507 381 1460 301 1405 c 1
EndSplineSet
EndChar

StartChar: percent
Encoding: 37 37 273
Width: 1877
VWidth: 0
GlyphClass: 2
Flags: W
PickledData: "(dp1
S'com.fontlab.hintData'
p2
(dp3
S'vhints'
p4
((dp5
S'position'
p6
I107
sS'width'
p7
I142
s(dp8
g6
I672
sg7
I143
s(dp9
g6
I1192
sg7
I140
s(dp10
g6
I1757
sg7
I142
stp11
sS'hhints'
p12
((dp13
g6
I-15
sg7
I113
s(dp14
g6
I640
sg7
I114
s(dp15
g6
I728
sg7
I116
s(dp16
g6
I1378
sg7
I111
s(dp17
g6
I1442
sg7
I20
stp18
ss."
HStem: -15 113<1301.44 1560.67> 640 114<1301.57 1560.81> 728 116<307.398 530.891> 1378 111<311.342 531.029> 1442 20G<1185.15 1358>
VStem: 103 127<928.69 1289.47> 611 129<927.385 1284.76> 1079 126<199.476 538.018> 1657 127<200.515 539.928>
LayerCount: 2
Fore
SplineSet
1431 754 m 0xc780
 1663 754 1784 591 1784 369 c 0
 1784 153 1660 -15 1431 -15 c 0
 1200 -15 1079 153 1079 369 c 0
 1079 587 1203 754 1431 754 c 0xc780
1431 640 m 0
 1281 640 1205 510 1205 369 c 0
 1205 223 1283 98 1431 98 c 0
 1581 98 1657 228 1657 369 c 0
 1657 515 1579 640 1431 640 c 0
420 1489 m 0xb780
 617 1489 740 1326 740 1104 c 0
 740 888 614 728 420 728 c 0
 223 728 103 888 103 1104 c 0
 103 1322 226 1489 420 1489 c 0xb780
401 -4 m 1
 1196 1462 l 1
 1358 1462 l 1x8f80
 536 -4 l 1
 401 -4 l 1
420 1378 m 0xb780
 293 1378 230 1245 230 1104 c 0
 230 958 295 844 420 844 c 0
 547 844 611 963 611 1104 c 0
 611 1250 545 1378 420 1378 c 0xb780
EndSplineSet
EndChar

StartChar: period
Encoding: 46 46 274
Width: 472
VWidth: 0
GlyphClass: 2
Flags: W
PickledData: "(dp1
S'com.fontlab.hintData'
p2
(dp3
S'vhints'
p4
((dp5
S'position'
p6
I211
sS'width'
p7
I232
stp8
sS'hhints'
p9
((dp10
g6
I0
sg7
I245
stp11
ss."
HStem: 0 245<134 342>
VStem: 134 208<0 245>
LayerCount: 2
Fore
SplineSet
134 0 m 1
 134 245 l 1
 342 245 l 1
 342 0 l 1
 134 0 l 1
EndSplineSet
EndChar

StartChar: periodcentered
Encoding: 65542 -1 275
Width: 468
VWidth: 0
GlyphClass: 2
Flags: W
PickledData: "(dp1
S'com.fontlab.hintData'
p2
(dp3
S'vhints'
p4
((dp5
S'position'
p6
I74
sS'width'
p7
I214
stp8
sS'hhints'
p9
((dp10
g6
I551
sg7
I227
stp11
ss."
HStem: 551 227<140 332>
VStem: 140 192<551 778>
LayerCount: 2
Fore
SplineSet
332 778 m 1
 332 551 l 1
 140 551 l 1
 140 778 l 1
 332 778 l 1
EndSplineSet
EndChar

StartChar: perthousand
Encoding: 8240 8240 276
Width: 2303
VWidth: 0
GlyphClass: 2
Flags: W
PickledData: "(dp1
S'com.fontlab.hintData'
p2
(dp3
S'vhints'
p4
((dp5
S'position'
p6
I72
sS'width'
p7
I143
s(dp8
g6
I590
sg7
I142
s(dp9
g6
I816
sg7
I145
s(dp10
g6
I1336
sg7
I143
s(dp11
g6
I1588
sg7
I141
s(dp12
g6
I2109
sg7
I140
stp13
sS'hhints'
p14
((dp15
g6
I-30
sg7
I123
s(dp16
g6
I610
sg7
I125
s(dp17
g6
I796
sg7
I123
s(dp18
g6
I1438
sg7
I121
stp19
ss."
HStem: -30 123<988.858 1224.51 1756.5 1997.86> 610 125<984.807 1228.58 1757.08 2001.19> 796 123<304.524 504.038> 1438 121<304.352 507.061>
VStem: 108 129<993.845 1365> 574 128<992.069 1363.67> 777 131<178.741 523.833> 1305 129<182.771 527.466> 1550 127<178.741 523.833> 2081 126<182.374 523.652>
LayerCount: 2
Fore
SplineSet
1879 610 m 0
 1742 610 1677 493 1677 354 c 0
 1677 208 1744 93 1881 93 c 0
 2014 93 2081 215 2081 354 c 0
 2081 498 2012 610 1879 610 c 0
1876 -30 m 0
 1658 -30 1550 124 1550 354 c 0
 1550 572 1658 735 1881 735 c 0
 2101 735 2207 588 2207 352 c 0
 2207 136 2097 -30 1876 -30 c 0
404 796 m 0
 214 796 108 950 108 1180 c 0
 108 1398 214 1559 406 1559 c 0
 600 1559 702 1410 702 1176 c 0
 702 960 594 796 404 796 c 0
1104 -30 m 0
 884 -30 777 124 777 354 c 0
 777 572 884 735 1107 735 c 0
 1331 735 1434 584 1434 352 c 0
 1434 136 1325 -30 1104 -30 c 0
1105 610 m 0
 972 610 908 493 908 354 c 0
 908 208 974 93 1107 93 c 0
 1240 93 1305 217 1305 354 c 0
 1305 500 1242 610 1105 610 c 0
404 1438 m 0
 291 1438 237 1319 237 1180 c 0
 237 1034 292 919 408 919 c 0
 519 919 574 1039 574 1178 c 0
 574 1324 520 1438 404 1438 c 0
395 -22 m 1
 259 -22 l 1
 1115 1547 l 1
 1272 1547 l 1
 395 -22 l 1
EndSplineSet
EndChar

StartChar: pi
Encoding: 960 960 278
Width: 1456
VWidth: 0
GlyphClass: 2
Flags: W
PickledData: "(dp1
S'com.fontlab.hintData'
p2
(dp3
S'vhints'
p4
((dp5
S'position'
p6
I304
sS'width'
p7
I167
s(dp8
g6
I833
sg7
I154
stp9
sS'hhints'
p10
((dp11
g6
I-8
sg7
I166
s(dp12
g6
I976
sg7
I144
stp13
ss."
HStem: -8 166<1132.03 1267.3> 976 144<213.571 420 570 976 1114 1296>
VStem: 420 150<493.568 976> 976 138<174.19 976>
LayerCount: 2
Fore
SplineSet
1296 1120 m 1
 1296 976 l 1
 1114 976 l 1
 1114 312 l 2
 1114 248 1116 158 1202 158 c 0
 1220 158 1245 164 1274 172 c 1
 1274 150 1268 130 1268 108 c 0
 1268 74 1273 42 1282 6 c 1
 1237 -2 1194 -8 1160 -8 c 0
 1020 -8 976 79 976 301 c 2
 976 976 l 1
 570 976 l 1
 570 976 543 182 446 0 c 1
 298 0 l 1
 385 190 413 662 420 976 c 1
 314 974 241 953 176 911 c 1
 160 1053 l 1
 218 1108 313 1120 470 1120 c 2
 1296 1120 l 1
EndSplineSet
EndChar

StartChar: plus
Encoding: 43 43 279
Width: 1081
VWidth: 0
GlyphClass: 2
Flags: W
PickledData: "(dp1
S'com.fontlab.hintData'
p2
(dp3
S'vhints'
p4
((dp5
S'position'
p6
I656
sS'width'
p7
I150
stp8
sS'hhints'
p9
((dp10
g6
I0
sg7
I21
s(dp11
g6
I472
sg7
I134
stp12
ss."
HStem: 0 21G<484 619> 472 134<101 484 621 989>
VStem: 484 135<0 472 606 1065>
LayerCount: 2
Fore
SplineSet
101 606 m 1
 487 606 l 1
 487 1065 l 1
 621 1065 l 1
 621 606 l 1
 989 606 l 1
 989 472 l 1
 619 472 l 1
 619 0 l 1
 484 0 l 1
 484 472 l 1
 101 472 l 1
 101 606 l 1
EndSplineSet
EndChar

StartChar: plusminus
Encoding: 177 177 280
Width: 1234
VWidth: 0
GlyphClass: 2
Flags: W
PickledData: "(dp1
S'com.fontlab.hintData'
p2
(dp3
S'vhints'
p4
((dp5
S'position'
p6
I629
sS'width'
p7
I147
stp8
sS'hhints'
p9
((dp10
g6
I0
sg7
I148
s(dp11
g6
I642
sg7
I147
stp12
ss."
HStem: 0 148<133 1111> 642 147<133 550 687 1108>
VStem: 550 133<240 642 789 1193>
LayerCount: 2
Fore
SplineSet
1111 0 m 1
 133 0 l 1
 133 148 l 1
 1111 148 l 1
 1111 0 l 1
122 789 m 1
 550 789 l 1
 550 1193 l 1
 683 1193 l 1
 683 789 l 1
 1108 789 l 1
 1108 642 l 1
 687 642 l 1
 687 240 l 1
 553 240 l 1
 553 642 l 1
 133 642 l 1
 122 789 l 1
EndSplineSet
EndChar

StartChar: product
Encoding: 8719 8719 281
Width: 1535
VWidth: 0
GlyphClass: 2
Flags: W
PickledData: "(dp1
S'com.fontlab.hintData'
p2
(dp3
S'vhints'
p4
((dp5
S'position'
p6
I245
sS'width'
p7
I170
s(dp8
g6
I1124
sg7
I174
stp9
sS'hhints'
p10
((dp11
g6
I-356
sg7
I21
s(dp12
g6
I1377
sg7
I155
stp13
ss."
HStem: -356 21G<240 393 1146 1303> 1377 155<129 240 393 1146 1303 1403>
VStem: 240 153<-356 1377> 1146 157<-356 1377>
LayerCount: 2
Fore
SplineSet
1415 1532 m 1
 1403 1377 l 1
 1303 1377 l 1
 1303 -356 l 1
 1146 -356 l 1
 1146 1377 l 1
 393 1377 l 1
 393 -356 l 1
 240 -356 l 1
 240 1377 l 1
 129 1377 l 1
 116 1532 l 1
 1415 1532 l 1
EndSplineSet
EndChar

StartChar: q
Encoding: 113 113 283
Width: 1276
VWidth: 0
GlyphClass: 2
Flags: W
PickledData: "(dp1
S'com.fontlab.hintData'
p2
(dp3
S'vhints'
p4
((dp5
S'position'
p6
I67
sS'width'
p7
I191
s(dp8
g6
I873
sg7
I189
stp9
sS'hhints'
p10
((dp11
g6
I-459
sg7
I21
s(dp12
g6
I-25
sg7
I155
s(dp13
g6
I971
sg7
I153
s(dp14
g6
I1078
sg7
I20
stp15
ss."
HStem: -459 21G<944 1114> -25 155<449.668 775.282> 971 153<453.933 777.08> 1078 20G<944.862 1121>
VStem: 118 172<314.405 782.005> 944 170<-459 162 314.961 785.844 953 1098>
LayerCount: 2
Fore
SplineSet
1114 -459 m 5xdc
 944 -459 l 5
 944 162 l 5
 858 36 720 -25 564 -25 c 4
 233 -25 118 246 118 538 c 4
 118 856 257 1124 586 1124 c 4xec
 738 1124 856 1065 944 953 c 5
 945 1098 l 5
 1121 1098 l 5
 1121 1098 1114 846 1114 816 c 6
 1114 -459 l 5xdc
945 551 m 4
 945 783 847 971 606 971 c 4
 370 971 290 748 290 551 c 4
 290 354 370 130 606 130 c 4
 847 130 945 317 945 551 c 4
EndSplineSet
EndChar

StartChar: question
Encoding: 63 63 284
Width: 867
VWidth: 0
GlyphClass: 2
Flags: W
PickledData: "(dp1
S'com.fontlab.hintData'
p2
(dp3
S'vhints'
p4
((dp5
S'position'
p6
I321
sS'width'
p7
I235
s(dp8
g6
I350
sg7
I159
s(dp9
g6
I703
sg7
I172
stp10
sS'hhints'
p11
((dp12
g6
I0
sg7
I230
s(dp13
g6
I1343
sg7
I146
stp14
ss."
HStem: 0 230<253 473> 1343 146<196.044 531.069>
VStem: 253 220<0 230> 280 143<436 688.705> 612 155<1003.61 1266.45>
LayerCount: 2
Fore
SplineSet
128 1257 m 1xd8
 86 1383 l 1
 172 1450 281 1489 387 1489 c 0
 608 1489 767 1372 767 1154 c 0
 767 836 423 804 423 547 c 2
 423 436 l 1
 289 436 l 1
 289 436 280 552 280 610 c 0
 280 823 612 898 612 1147 c 0
 612 1279 501 1343 367 1343 c 0
 247 1343 176 1287 128 1257 c 1xd8
253 0 m 1xe8
 253 230 l 1
 473 230 l 1
 473 0 l 1
 253 0 l 1xe8
EndSplineSet
EndChar

StartChar: quotedbl
Encoding: 34 34 286
Width: 710
VWidth: 0
GlyphClass: 2
Flags: W
PickledData: "(dp1
S'com.fontlab.hintData'
p2
(dp3
S'vhints'
p4
((dp5
S'position'
p6
I85
sS'width'
p7
I160
s(dp8
g6
I118
sg7
I127
s(dp9
g6
I409
sg7
I161
s(dp10
g6
I443
sg7
I127
stp11
sS'hhints'
p12
((dp13
g6
I1063
sg7
I492
stp14
ss."
HStem: 1063 492<167 281 459 574>
VStem: 137 144<1319.89 1555> 167 114<1063 1298.11> 429 145<1319.89 1555> 459 115<1063 1298.11>
LayerCount: 2
Fore
SplineSet
459 1063 m 1x88
 429 1555 l 1
 574 1555 l 1x90
 574 1063 l 1
 459 1063 l 1x88
167 1063 m 1xa0
 137 1555 l 1
 281 1555 l 1xc0
 281 1063 l 1
 167 1063 l 1xa0
EndSplineSet
EndChar

StartChar: quotedblbase
Encoding: 8222 8222 287
Width: 819
VWidth: 0
GlyphClass: 2
Flags: W
PickledData: "(dp1
S'com.fontlab.hintData'
p2
(dp3
S'vhints'
p4
((dp5
S'position'
p6
I174
sS'width'
p7
I632
stp8
sS'hhints'
p9
((dp10
g6
I-256
sg7
I472
stp11
ss."
HStem: -256 472<532 560 848 875>
VStem: 126 568
LayerCount: 2
Fore
SplineSet
126 -256 m 1
 216 216 l 1
 377 216 l 1
 244 -256 l 1
 126 -256 l 1
441 -256 m 1
 532 216 l 1
 694 216 l 1
 559 -256 l 1
 441 -256 l 1
EndSplineSet
EndChar

StartChar: quotedblleft
Encoding: 8220 8220 288
Width: 818
VWidth: 0
GlyphClass: 2
Flags: W
PickledData: "(dp1
S'com.fontlab.hintData'
p2
(dp3
S'vhints'
p4
((dp5
S'position'
p6
I174
sS'width'
p7
I623
stp8
sS'hhints'
p9
((dp10
g6
I1102
sg7
I472
stp11
ss."
HStem: 1102 472<383 409 693 720>
VStem: 129 561
LayerCount: 2
Fore
SplineSet
383 1574 m 1
 289 1102 l 1
 129 1102 l 1
 263 1574 l 1
 383 1574 l 1
690 1574 m 1
 600 1102 l 1
 438 1102 l 1
 573 1574 l 1
 690 1574 l 1
EndSplineSet
EndChar

StartChar: quotedblright
Encoding: 8221 8221 289
Width: 795
VWidth: 0
GlyphClass: 2
Flags: W
PickledData: "(dp1
S'com.fontlab.hintData'
p2
(dp3
S'vhints'
p4
((dp5
S'position'
p6
I203
sS'width'
p7
I601
stp8
sS'hhints'
p9
((dp10
g6
I1102
sg7
I472
stp11
ss."
HStem: 1102 472<511 535 796 822>
VStem: 133 541
LayerCount: 2
Fore
SplineSet
133 1102 m 1
 226 1574 l 1
 385 1574 l 1
 250 1102 l 1
 133 1102 l 1
420 1102 m 1
 511 1574 l 1
 674 1574 l 1
 537 1102 l 1
 420 1102 l 1
EndSplineSet
EndChar

StartChar: quoteleft
Encoding: 8216 8216 290
Width: 510
VWidth: 0
GlyphClass: 2
Flags: W
PickledData: "(dp1
S'com.fontlab.hintData'
p2
(dp3
S'vhints'
p4
((dp5
S'position'
p6
I126
sS'width'
p7
I281
stp8
sS'hhints'
p9
((dp10
g6
I1102
sg7
I472
stp11
ss."
HStem: 1102 472<265 291>
VStem: 129 253
LayerCount: 2
Fore
SplineSet
382 1574 m 1
 291 1102 l 1
 129 1102 l 1
 265 1574 l 1
 382 1574 l 1
EndSplineSet
EndChar

StartChar: quoteright
Encoding: 8217 8217 291
Width: 504
VWidth: 0
GlyphClass: 2
Flags: W
PickledData: "(dp1
S'com.fontlab.hintData'
p2
(dp3
S'vhints'
p4
((dp5
S'position'
p6
I137
sS'width'
p7
I278
stp8
sS'hhints'
p9
((dp10
g6
I1102
sg7
I472
stp11
ss."
HStem: 1102 472<226 249>
VStem: 133 250
LayerCount: 2
Fore
SplineSet
133 1102 m 1
 226 1574 l 1
 383 1574 l 1
 249 1102 l 1
 133 1102 l 1
EndSplineSet
EndChar

StartChar: quotesinglbase
Encoding: 8218 8218 292
Width: 504
VWidth: 0
GlyphClass: 2
Flags: W
PickledData: "(dp1
S'com.fontlab.hintData'
p2
(dp3
S'vhints'
p4
((dp5
S'position'
p6
I122
sS'width'
p7
I281
stp8
sS'hhints'
p9
((dp10
g6
I-256
sg7
I472
stp11
ss."
HStem: -256 472<218 245>
VStem: 126 253
LayerCount: 2
Fore
SplineSet
126 -256 m 1
 218 216 l 1
 379 216 l 1
 245 -256 l 1
 126 -256 l 1
EndSplineSet
EndChar

StartChar: quotesingle
Encoding: 39 39 293
Width: 417
VWidth: 0
GlyphClass: 2
Flags: W
PickledData: "(dp1
S'com.fontlab.hintData'
p2
(dp3
S'vhints'
p4
((dp5
S'position'
p6
I173
sS'width'
p7
I160
s(dp8
g6
I207
sg7
I126
stp9
sS'hhints'
p10
((dp11
g6
I1063
sg7
I494
stp12
ss."
HStem: 1063 494<168 281>
VStem: 137 144<1328.55 1557> 168 113<1063 1291.45>
LayerCount: 2
Fore
SplineSet
168 1063 m 1xa0
 137 1557 l 1
 281 1557 l 1xc0
 281 1063 l 1
 168 1063 l 1xa0
EndSplineSet
EndChar

StartChar: r
Encoding: 114 114 294
Width: 752
VWidth: 0
GlyphClass: 2
Flags: W
PickledData: "(dp1
S'com.fontlab.hintData'
p2
(dp3
S'vhints'
p4
((dp5
S'position'
p6
I174
sS'width'
p7
I163
s(dp8
g6
I177
sg7
I189
stp9
sS'hhints'
p10
((dp11
g6
I0
sg7
I21
s(dp12
g6
I957
sg7
I171
s(dp13
g6
I1078
sg7
I20
stp14
ss."
HStem: 0 21G<150 320> 955 171<437.138 648> 1078 20G<147 295.117>
VStem: 147 147<919 1098> 150 170<0 832.063>
LayerCount: 2
Fore
SplineSet
648 1126 m 1xd0
 648 955 l 1
 555 955 l 2
 449 955 361 868 327 739 c 1
 320 697 320 650 320 604 c 2
 320 0 l 1
 150 0 l 1
 150 845 l 2xc8
 150 931 147 1016 147 1098 c 1
 294 1098 l 1xb0
 304 919 l 1
 371 1059 470 1126 582 1126 c 2
 648 1126 l 1xd0
EndSplineSet
EndChar

StartChar: radical
Encoding: 8730 8730 295
Width: 1216
VWidth: 0
GlyphClass: 2
Flags: W
LayerCount: 2
Fore
SplineSet
1035 1718 m 1
 1148 1718 l 1
 708 -166 l 1
 569 -166 l 1
 236 743 l 1
 84 712 l 1
 68 833 l 1
 328 889 l 1
 569 230 l 1
 628 44 l 1
 671 234 l 1
 1035 1718 l 1
EndSplineSet
EndChar

StartChar: registered
Encoding: 174 174 298
Width: 1824
VWidth: 0
GlyphClass: 2
Flags: W
PickledData: "(dp1
S'com.fontlab.hintData'
p2
(dp3
S'vhints'
p4
((dp5
S'position'
p6
I114
sS'width'
p7
I137
s(dp8
g6
I590
sg7
I146
s(dp9
g6
I1122
sg7
I150
s(dp10
g6
I1537
sg7
I138
stp11
sS'hhints'
p12
((dp13
g6
I-25
sg7
I124
s(dp14
g6
I716
sg7
I127
s(dp15
g6
I1149
sg7
I128
s(dp16
g6
I1463
sg7
I123
stp17
ss."
HStem: -25 124<664.952 1148.96> 716 127<731 919.173> 1149 128<731 1102.1> 1463 123<661.068 1144.88>
VStem: 117 123<529.889 1033.34> 599 132<301 716 843 1149> 1141 159<890.915 1106.93> 1582 124<528.201 1020.79>
LayerCount: 2
Fore
SplineSet
871 716 m 1
 731 716 l 1
 731 301 l 1
 599 301 l 1
 599 1277 l 1
 857 1277 l 2
 1157 1277 1300 1183 1300 1007 c 0
 1300 877 1217 760 1020 735 c 1
 1112 662 1181 531 1320 301 c 1
 1148 301 l 1
 1023 525 l 2
 972 618 918 680 871 716 c 1
731 1149 m 1
 731 843 l 1
 857 843 l 2
 1041 843 1141 871 1141 999 c 0
 1141 1131 1055 1149 847 1149 c 2
 731 1149 l 1
902 99 m 0
 1353 99 1582 439 1582 778 c 0
 1582 1119 1350 1463 897 1463 c 0
 467 1463 240 1122 240 783 c 0
 240 442 469 99 902 99 c 0
1706 781 m 0
 1706 243 1317 -25 902 -25 c 0
 510 -25 117 243 117 781 c 0
 117 1319 505 1586 897 1586 c 0
 1312 1586 1706 1317 1706 781 c 0
EndSplineSet
EndChar

StartChar: ring
Encoding: 730 730 299
Width: 634
VWidth: 0
GlyphClass: 2
Flags: W
PickledData: "(dp1
S'com.fontlab.hintData'
p2
(dp3
S'vhints'
p4
((dp5
S'position'
p6
I89
sS'width'
p7
I95
s(dp8
g6
I401
sg7
I97
stp9
sS'hhints'
p10
((dp11
g6
I1237
sg7
I93
s(dp12
g6
I1557
sg7
I91
stp13
ss."
HStem: 1237 93<239.929 396.077> 1557 91<243.81 394.38>
VStem: 135 86<1347.47 1533.65> 416 88<1350.94 1536.75>
LayerCount: 2
Fore
SplineSet
416 1442 m 0
 416 1504 375 1557 320 1557 c 0
 269 1557 221 1504 221 1442 c 0
 221 1376 259 1330 320 1330 c 0
 371 1330 416 1380 416 1442 c 0
135 1442 m 0
 135 1561 219 1648 320 1648 c 0
 424 1648 504 1554 504 1442 c 0
 504 1328 420 1237 322 1237 c 0
 219 1237 135 1328 135 1442 c 0
EndSplineSet
EndChar

StartChar: s
Encoding: 115 115 300
Width: 1021
VWidth: 0
GlyphClass: 2
Flags: W
PickledData: "(dp1
S'com.fontlab.hintData'
p2
(dp3
S'vhints'
p4
((dp5
S'position'
p6
I102
sS'width'
p7
I183
s(dp8
g6
I678
sg7
I181
stp9
sS'hhints'
p10
((dp11
g6
I-25
sg7
I151
s(dp12
g6
I971
sg7
I153
stp13
ss."
HStem: -25 151<286.491 671.933> 971 153<364.305 739.057>
VStem: 149 165<712.839 918.567> 717 163<172.997 400.027>
LayerCount: 2
Fore
SplineSet
138 82 m 1
 182 224 l 1
 250 176 375 126 514 126 c 0
 655 126 717 178 717 292 c 0
 717 367 675 425 560 461 c 1
 432 494 l 1
 269 540 149 618 149 810 c 0
 149 1018 307 1124 522 1124 c 0
 661 1124 759 1093 839 1031 c 1
 794 893 l 1
 736 937 648 971 529 971 c 0
 413 971 314 928 314 820 c 0
 314 729 353 695 478 659 c 1
 614 625 l 2
 769 579 880 504 880 312 c 0
 880 92 739 -25 529 -25 c 0
 360 -25 218 14 138 82 c 1
EndSplineSet
EndChar

StartChar: scommaaccent
Encoding: 65543 -1 303
Width: 985
VWidth: 0
GlyphClass: 2
Flags: W
PickledData: "(dp1
S'com.fontlab.hintData'
p2
(dp3
S'vhints'
p4
((dp5
S'position'
p6
I114
sS'width'
p7
I166
s(dp8
g6
I717
sg7
I164
stp9
sS'hhints'
p10
((dp11
g6
I-25
sg7
I142
s(dp12
g6
I980
sg7
I144
stp13
ss."
HStem: -25 142<271.2 665.387> 980 144<341.772 737.165>
VStem: 132 150<739.241 925.51> 729 148<177.945 386.415>
LayerCount: 2
Fore
SplineSet
132 826 m 0
 132 1042 325 1124 496 1124 c 0
 612 1124 731 1114 815 1043 c 1
 779 911 l 1
 703 968 601 980 504 980 c 0
 416 980 282 946 282 829 c 0
 282 586 877 690 877 305 c 0
 877 69 668 -25 485 -25 c 0
 362 -25 216 -4 138 93 c 1
 171 240 l 1
 239 147 372 117 488 117 c 0
 595 117 729 151 729 290 c 0
 729 547 132 425 132 826 c 0
355 -672 m 1
 464 -174 l 1
 654 -174 l 1
 490 -672 l 1
 355 -672 l 1
EndSplineSet
EndChar

StartChar: section
Encoding: 167 167 304
Width: 978
VWidth: 0
GlyphClass: 2
Flags: W
PickledData: "(dp1
S'com.fontlab.hintData'
p2
(dp3
S'vhints'
p4
((dp5
S'position'
p6
I182
sS'width'
p7
I173
s(dp8
g6
I217
sg7
I167
s(dp9
g6
I701
sg7
I168
s(dp10
g6
I717
sg7
I173
stp11
sS'hhints'
p12
((dp13
g6
I-50
sg7
I145
s(dp14
g6
I1460
sg7
I148
stp15
ss."
HStem: -50 145<220.374 591.018> 1460 148<381.963 753.874>
VStem: 144 156<695.095 906.518> 176 155<1206.74 1411.4> 667 155<163.398 356.939> 685 156<674.623 873.618>
LayerCount: 2
Fore
SplineSet
773 1563 m 1xd0
 774 1405 l 1
 719 1437 621 1460 556 1460 c 0
 429 1460 331 1418 331 1314 c 0
 331 1228 383 1177 558 1100 c 1
 718 1025 841 946 841 794 c 0xd4
 841 675 763 581 676 517 c 1
 761 464 822 398 822 272 c 0
 822 64 646 -50 424 -50 c 0
 330 -50 242 -34 167 4 c 1
 167 166 l 1
 253 118 335 95 419 95 c 0
 575 95 667 169 667 262 c 0
 667 357 587 388 448 450 c 1
 360 490 l 1
 224 556 144 648 144 785 c 0xe8
 144 909 220 997 311 1050 c 1
 225 1114 176 1184 176 1310 c 0
 176 1509 331 1608 550 1608 c 0
 640 1608 702 1591 773 1563 c 1xd0
536 589 m 1
 603 633 685 692 685 778 c 0
 685 904 524 934 436 980 c 1
 368 938 300 884 300 798 c 0xe4
 300 692 394 648 536 589 c 1
EndSplineSet
EndChar

StartChar: semicolon
Encoding: 59 59 305
Width: 518
VWidth: 0
GlyphClass: 2
Flags: W
PickledData: "(dp1
S'com.fontlab.hintData'
p2
(dp3
S'vhints'
p4
((dp5
S'position'
p6
I139
sS'width'
p7
I228
stp8
sS'hhints'
p9
((dp10
g6
I-310
sg7
I21
s(dp11
g6
I893
sg7
I231
stp12
ss."
HStem: -310 21G<138 255.931> 893 231<174 380>
VStem: 174 206<893 1124>
LayerCount: 2
Fore
SplineSet
174 893 m 1
 174 1124 l 1
 380 1124 l 1
 380 893 l 1
 174 893 l 1
376 197 m 1
 251 -310 l 1
 138 -310 l 1
 194 197 l 1
 376 197 l 1
EndSplineSet
EndChar

StartChar: seven
Encoding: 55 55 306
Width: 1084
VWidth: 0
GlyphClass: 2
Flags: W
PickledData: "(dp1
S'com.fontlab.hintData'
p2
(dp3
S'hhints'
p4
((dp5
S'position'
p6
I0
sS'width'
p7
I21
s(dp8
g6
I1303
sg7
I159
stp9
ss."
HStem: 0 21G<270 460.075> 1303 159<86 784>
LayerCount: 2
Fore
SplineSet
270 0 m 1
 784 1303 l 1
 86 1303 l 1
 86 1462 l 1
 987 1462 l 1
 987 1325 l 1
 452 0 l 1
 270 0 l 1
EndSplineSet
EndChar

StartChar: six
Encoding: 54 54 307
Width: 1234
VWidth: 0
GlyphClass: 2
Flags: W
PickledData: "(dp1
S'com.fontlab.hintData'
p2
(dp3
S'vhints'
p4
((dp5
S'position'
p6
I109
sS'width'
p7
I193
s(dp8
g6
I934
sg7
I203
stp9
sS'hhints'
p10
((dp11
g6
I-23
sg7
I160
s(dp12
g6
I759
sg7
I153
s(dp13
g6
I1442
sg7
I20
stp14
ss."
HStem: -23 160<431.459 793.242> 759 153<462.74 803.18> 1442 20G<504.5 991>
VStem: 108 174<281.679 611.55> 953 183<287.606 611.839>
LayerCount: 2
Fore
SplineSet
677 912 m 0
 958 912 1136 732 1136 456 c 0
 1136 189 950 -23 618 -23 c 0
 278 -23 108 186 108 462 c 0
 108 772 265 934 744 1462 c 1
 991 1462 l 1
 429 852 l 1
 492 886 598 912 677 912 c 0
282 443 m 0
 282 270 407 137 613 137 c 0
 819 137 953 274 953 445 c 0
 953 628 834 759 618 759 c 0
 396 759 282 614 282 443 c 0
EndSplineSet
EndChar

StartChar: six.alt
Encoding: 65544 -1 308
Width: 1300
VWidth: 0
GlyphClass: 2
Flags: W
PickledData: "(dp1
S'com.fontlab.hintData'
p2
(dp3
S'vhints'
p4
((dp5
S'position'
p6
I57
sS'width'
p7
I213
s(dp8
g6
I904
sg7
I211
stp9
sS'hhints'
p10
((dp11
g6
I-26
sg7
I169
s(dp12
g6
I747
sg7
I165
s(dp13
g6
I1321
sg7
I168
stp14
ss."
HStem: -26 169<483.841 834.044> 747 165<475.994 846.459> 1321 168<552.828 974.569>
VStem: 123 192<735 1005.53> 987 190<286.116 612.223>
LayerCount: 2
Fore
SplineSet
315 735 m 1
 394 855 529 912 711 912 c 0
 1012 912 1177 718 1177 448 c 0
 1177 187 1005 -26 674 -26 c 0
 298 -26 123 220 123 688 c 0
 123 1144 307 1489 711 1489 c 0
 895 1489 1049 1443 1127 1383 c 1
 1070 1230 l 1
 992 1282 859 1321 720 1321 c 0
 446 1321 326 1060 315 735 c 1
661 747 m 0
 434 747 334 607 334 431 c 0
 334 273 464 143 661 143 c 0
 858 143 987 278 987 440 c 0
 987 609 888 747 661 747 c 0
EndSplineSet
EndChar

StartChar: slash
Encoding: 47 47 309
Width: 952
VWidth: 0
GlyphClass: 2
Flags: W
PickledData: "(dp1
S'com.fontlab.hintData'
p2
(dp3
S'hhints'
p4
((dp5
S'position'
p6
I1446
sS'width'
p7
I20
stp8
ss."
HStem: 1446 20G<717.971 872>
LayerCount: 2
Fore
SplineSet
194 -218 m 1
 50 -218 l 1
 726 1466 l 1
 872 1466 l 1
 194 -218 l 1
EndSplineSet
EndChar

StartChar: sterling
Encoding: 163 163 311
Width: 1165
VWidth: 0
GlyphClass: 2
Flags: W
PickledData: "(dp1
S'com.fontlab.hintData'
p2
(dp3
S'vhints'
p4
((dp5
S'position'
p6
I296
sS'width'
p7
I178
stp8
sS'hhints'
p9
((dp10
g6
I0
sg7
I162
s(dp11
g6
I0
sg7
I137
s(dp12
g6
I707
sg7
I142
s(dp13
g6
I1422
sg7
I164
stp14
ss."
HStem: 0 162<344.499 1052> 707 142<104 278 438 852> 1422 164<558.775 877.625>
VStem: 278 160<245.522 707 849 1280.36>
LayerCount: 2
Fore
SplineSet
104 707 m 1
 104 849 l 1
 278 849 l 1
 278 976 l 2
 278 1286 327 1586 717 1586 c 0
 889 1586 996 1506 1059 1400 c 1
 976 1292 l 1
 905 1374 828 1422 717 1422 c 0
 521 1422 438 1283 438 1069 c 2
 438 849 l 1
 852 849 l 1
 852 707 l 1
 438 707 l 1
 438 530 l 2
 438 389 429 241 343 152 c 1
 375 156 406 162 438 162 c 2
 1052 162 l 1
 1052 0 l 1
 136 0 l 1
 114 137 l 1
 251 208 278 311 278 467 c 2
 278 707 l 1
 104 707 l 1
EndSplineSet
EndChar

StartChar: summation
Encoding: 8721 8721 312
Width: 1286
VWidth: 0
GlyphClass: 2
Flags: W
PickledData: "(dp1
S'com.fontlab.hintData'
p2
(dp3
S'hhints'
p4
((dp5
S'position'
p6
I-356
sS'width'
p7
I161
s(dp8
g6
I1379
sg7
I153
stp9
ss."
HStem: -356 161<292 1203> 1379 153<317 1163>
LayerCount: 2
Fore
SplineSet
1203 -195 m 1
 1203 -356 l 1
 82 -356 l 1
 82 -257 l 1
 702 596 l 1
 104 1430 l 1
 104 1532 l 1
 1163 1532 l 1
 1163 1379 l 1
 317 1379 l 1
 913 604 l 1
 292 -195 l 1
 1203 -195 l 1
EndSplineSet
EndChar

StartChar: t
Encoding: 116 116 313
Width: 837
VWidth: 0
GlyphClass: 2
Flags: W
PickledData: "(dp1
S'com.fontlab.hintData'
p2
(dp3
S'vhints'
p4
((dp5
S'position'
p6
I216
sS'width'
p7
I188
stp8
sS'hhints'
p9
((dp10
g6
I-11
sg7
I144
s(dp11
g6
I973
sg7
I125
s(dp12
g6
I1442
sg7
I20
stp13
ss."
HStem: -11 144<484.328 720> 973 125<89 254 423 709> 1442 20G<366.667 423>
VStem: 254 169<193.458 973 1098 1402>
LayerCount: 2
Fore
SplineSet
89 973 m 5
 89 1098 l 5
 254 1098 l 5
 254 1402 l 5
 423 1462 l 5
 423 1098 l 5
 709 1098 l 5
 709 973 l 5
 423 973 l 5
 423 429 l 6
 423 242 422 133 676 133 c 6
 720 133 l 5
 720 -11 l 5
 696 -11 l 6
 270 -11 254 135 254 483 c 6
 254 973 l 5
 89 973 l 5
EndSplineSet
EndChar

StartChar: thorn
Encoding: 254 254 316
Width: 1293
VWidth: 0
GlyphClass: 2
Flags: W
PickledData: "(dp1
S'com.fontlab.hintData'
p2
(dp3
S'vhints'
p4
((dp5
S'position'
p6
I161
sS'width'
p7
I189
s(dp8
g6
I965
sg7
I192
stp9
sS'hhints'
p10
((dp11
g6
I-459
sg7
I21
s(dp12
g6
I-25
sg7
I164
s(dp13
g6
I964
sg7
I160
stp14
ss."
HStem: -459 21G<162 333> -25 164<501.57 827.071> 964 160<493.634 830.155>
VStem: 162 171<-459 162 311.428 790.91 953 1603> 985 173<323.304 779.667>
LayerCount: 2
Fore
SplineSet
333 -459 m 1
 162 -459 l 1
 162 1322 l 2
 162 1352 157 1603 157 1603 c 1
 333 1603 l 1
 333 953 l 1
 421 1065 540 1124 692 1124 c 0
 1021 1124 1158 856 1158 538 c 0
 1158 246 1043 -25 712 -25 c 0
 556 -25 419 36 333 162 c 1
 333 -459 l 1
329 551 m 0
 329 321 431 139 672 139 c 0
 908 139 985 359 985 551 c 0
 985 743 908 964 672 964 c 0
 431 964 329 781 329 551 c 0
EndSplineSet
EndChar

StartChar: three
Encoding: 51 51 317
Width: 1128
VWidth: 0
GlyphClass: 2
Flags: W
PickledData: "(dp1
S'com.fontlab.hintData'
p2
(dp3
S'vhints'
p4
((dp5
S'position'
p6
I785
sS'width'
p7
I205
s(dp8
g6
I835
sg7
I195
stp9
sS'hhints'
p10
((dp11
g6
I-23
sg7
I155
s(dp12
g6
I662
sg7
I175
s(dp13
g6
I1332
sg7
I157
stp14
ss."
HStem: -23 155<274.445 703.144> 662 175<329 643.575> 1332 157<275.811 689.254>
VStem: 777 192<949.497 1245.58> 830 175<246.706 538.151>
LayerCount: 2
Fore
SplineSet
830 392 m 0xe8
 830 647 573 658 329 662 c 1
 329 837 l 1
 559 837 777 861 777 1097 c 0
 777 1262 679 1332 502 1332 c 0
 365 1332 245 1287 167 1225 c 1
 111 1376 l 1
 202 1445 333 1489 540 1489 c 0
 762 1489 969 1359 969 1120 c 0xf0
 969 929 868 811 706 761 c 1
 889 723 1005 591 1005 390 c 0
 1005 136 792 -23 502 -23 c 0
 307 -23 168 41 111 93 c 1
 167 240 l 1
 242 182 349 132 500 132 c 0
 696 132 830 223 830 392 c 0xe8
EndSplineSet
EndChar

StartChar: threequarters
Encoding: 190 190 318
Width: 1630
VWidth: 0
GlyphClass: 2
Flags: W
PickledData: "(dp1
S'com.fontlab.hintData'
p2
(dp3
S'vhints'
p4
((dp5
S'position'
p6
I558
sS'width'
p7
I130
s(dp8
g6
I579
sg7
I128
s(dp9
g6
I1379
sg7
I119
stp10
sS'hhints'
p11
((dp12
g6
I0
sg7
I21
s(dp13
g6
I245
sg7
I116
s(dp14
g6
I631
sg7
I122
s(dp15
g6
I1046
sg7
I128
s(dp16
g6
I1424
sg7
I129
stp17
ss."
HStem: 0 21G<331 476.997> 245 116<1085 1331 1442 1538> 631 122<211.107 439.578> 1046 128<244 431.265> 1424 129<214.192 438.271>
VStem: 462 138<1206.89 1399.91> 484 136<797.616 1008.2> 1334 107<44 245 361 721>
LayerCount: 2
Fore
SplineSet
166 1339 m 1xfd
 116 1442 l 1
 169 1506 254 1553 338 1553 c 0
 461 1553 600 1461 600 1305 c 0xfd
 600 1221 559 1152 487 1112 c 1
 571 1072 620 1003 620 899 c 0
 620 733 478 631 333 631 c 0
 249 631 173 667 116 735 c 1
 168 838 l 1
 218 783 273 753 328 753 c 0
 412 753 484 810 484 903 c 0xfb
 484 1009 411 1046 293 1046 c 2
 244 1046 l 1
 244 1174 l 1
 288 1174 l 2
 389 1174 462 1206 462 1303 c 0
 462 1387 410 1424 337 1424 c 0
 274 1424 217 1389 166 1339 c 1xfd
1249 1547 m 1
 1393 1547 l 1
 465 0 l 1
 331 0 l 1
 1249 1547 l 1
1441 44 m 1
 1334 44 l 1
 1334 245 l 1
 942 245 l 1
 942 343 l 1
 1321 903 l 1
 1442 903 l 1
 1442 361 l 1
 1538 361 l 1
 1546 245 l 1
 1441 245 l 1
 1441 44 l 1
1085 361 m 1
 1331 361 l 1
 1331 608 1332 664 1334 721 c 1
 1085 361 l 1
EndSplineSet
EndChar

StartChar: threesuperior
Encoding: 179 179 319
Width: 756
VWidth: 0
GlyphClass: 2
Flags: W
PickledData: "(dp1
S'com.fontlab.hintData'
p2
(dp3
S'vhints'
p4
((dp5
S'position'
p6
I614
sS'width'
p7
I128
s(dp8
g6
I636
sg7
I128
stp9
sS'hhints'
p10
((dp11
g6
I631
sg7
I122
s(dp12
g6
I1046
sg7
I128
s(dp13
g6
I1424
sg7
I129
stp14
ss."
HStem: 631 122<230.472 456.657> 1046 128<260 447.25> 1424 129<231.268 454.7>
VStem: 478 115<1206.89 1399.91> 498 115<793.221 1009.35>
LayerCount: 2
Fore
SplineSet
185 1339 m 1xf0
 132 1442 l 1
 185 1506 270 1553 354 1553 c 0
 477 1553 593 1461 593 1305 c 0xf0
 593 1221 559 1152 498 1112 c 1
 569 1072 613 1003 613 899 c 0
 613 733 493 631 350 631 c 0
 266 631 189 667 132 735 c 1
 187 838 l 1
 237 783 291 753 346 753 c 0
 430 753 498 810 498 903 c 0xe8
 498 1009 426 1046 308 1046 c 2
 260 1046 l 1
 260 1174 l 1
 304 1174 l 2
 405 1174 478 1206 478 1303 c 0
 478 1387 425 1424 352 1424 c 0
 289 1424 236 1389 185 1339 c 1xf0
EndSplineSet
EndChar

StartChar: tilde
Encoding: 732 732 320
Width: 885
VWidth: 0
GlyphClass: 2
Flags: W
PickledData: "(dp1
S'com.fontlab.hintData'
p2
(dp3
S'vhints'
p4
((dp5
S'position'
p6
I-10
sS'width'
p7
I119
s(dp8
g6
I562
sg7
I122
stp9
sS'hhints'
p10
((dp11
g6
I1279
sg7
I141
s(dp12
g6
I1393
sg7
I142
stp13
ss."
HStem: 1279 141<479.389 635.296> 1393 142<251.042 411.291>
VStem: 134 107<1292 1382.25> 648 109<1429.19 1523>
LayerCount: 2
Fore
SplineSet
134 1292 m 1x70
 138 1429 199 1535 324 1535 c 0x70
 432 1535 496 1420 582 1420 c 0
 632 1420 646 1477 648 1523 c 1
 757 1523 l 1
 753 1391 695 1279 570 1279 c 0xb0
 477 1279 382 1393 314 1393 c 0
 261 1393 243 1347 241 1292 c 1
 134 1292 l 1x70
EndSplineSet
EndChar

StartChar: trademark
Encoding: 8482 8482 321
Width: 1812
VWidth: 0
GlyphClass: 2
Flags: W
PickledData: "(dp1
S'com.fontlab.hintData'
p2
(dp3
S'vhints'
p4
((dp5
S'position'
p6
I316
sS'width'
p7
I120
s(dp8
g6
I802
sg7
I117
s(dp9
g6
I1518
sg7
I120
stp10
sS'hhints'
p11
((dp12
g6
I1453
sg7
I108
stp13
ss."
HStem: 1453 108<90 314 422 694>
VStem: 314 108<739 1453> 810 105<739 1379> 1553 108<739 1379>
LayerCount: 2
Fore
SplineSet
810 1561 m 1
 989 1561 l 1
 1234 969 l 1
 1490 1561 l 1
 1661 1561 l 1
 1661 739 l 1
 1553 739 l 1
 1553 1379 l 1
 1267 739 l 1
 1186 739 l 1
 915 1379 l 1
 915 739 l 1
 810 739 l 1
 810 1561 l 1
90 1561 m 1
 694 1561 l 1
 694 1453 l 1
 422 1453 l 1
 422 739 l 1
 314 739 l 1
 314 1453 l 1
 90 1453 l 1
 90 1561 l 1
EndSplineSet
EndChar

StartChar: two
Encoding: 50 50 322
Width: 1102
VWidth: 0
GlyphClass: 2
Flags: W
PickledData: "(dp1
S'com.fontlab.hintData'
p2
(dp3
S'vhints'
p4
((dp5
S'position'
p6
I795
sS'width'
p7
I214
stp8
sS'hhints'
p9
((dp10
g6
I0
sg7
I154
s(dp11
g6
I1323
sg7
I166
stp12
ss."
HStem: 0 154<301 968> 1323 166<305.052 683.294>
VStem: 787 193<897.506 1220.23>
LayerCount: 2
Fore
SplineSet
514 1489 m 0
 793 1489 980 1334 980 1077 c 0
 980 890 869 745 707 569 c 1
 301 154 l 1
 968 154 l 1
 968 0 l 1
 126 0 l 1
 126 189 l 1
 590 700 l 1
 715 822 787 943 787 1061 c 0
 787 1234 682 1323 509 1323 c 0
 384 1323 272 1282 188 1197 c 1
 130 1354 l 1
 214 1431 326 1489 514 1489 c 0
EndSplineSet
EndChar

StartChar: twosuperior
Encoding: 178 178 323
Width: 763
VWidth: 0
GlyphClass: 2
Flags: W
PickledData: "(dp1
S'com.fontlab.hintData'
p2
(dp3
S'vhints'
p4
((dp5
S'position'
p6
I686
sS'width'
p7
I126
stp8
sS'hhints'
p9
((dp10
g6
I650
sg7
I128
s(dp11
g6
I1424
sg7
I127
stp12
ss."
HStem: 650 128<297 615> 1424 127<275.779 479.136>
VStem: 504 113<1173.04 1400.56>
LayerCount: 2
Fore
SplineSet
615 650 m 1
 134 650 l 1
 134 769 l 1
 348 1009 504 1184 504 1303 c 0
 504 1376 458 1424 380 1424 c 0
 305 1424 251 1371 217 1282 c 1
 143 1367 l 1
 183 1484 276 1551 387 1551 c 0
 517 1551 617 1455 617 1305 c 0
 617 1121 476 965 297 778 c 1
 615 778 l 1
 615 650 l 1
EndSplineSet
EndChar

StartChar: u
Encoding: 117 117 324
Width: 1147
VWidth: 0
GlyphClass: 2
Flags: W
PickledData: "(dp1
S'com.fontlab.hintData'
p2
(dp3
S'vhints'
p4
((dp5
S'position'
p6
I164
sS'width'
p7
I190
s(dp8
g6
I844
sg7
I187
stp9
sS'hhints'
p10
((dp11
g6
I-25
sg7
I155
s(dp12
g6
I1078
sg7
I20
stp13
ss."
HStem: -25 155<413.367 716.84> 1078 20G<137 308 829 998>
VStem: 137 171<247.35 1098> 829 169<247.35 1098>
LayerCount: 2
Fore
SplineSet
569 -25 m 0
 337 -25 137 124 137 421 c 2
 137 1098 l 1
 308 1098 l 1
 308 419 l 2
 308 205 438 130 569 130 c 0
 700 130 829 207 829 419 c 2
 829 1098 l 1
 998 1098 l 1
 998 421 l 2
 998 124 801 -25 569 -25 c 0
EndSplineSet
EndChar

StartChar: u.alt
Encoding: 65545 -1 325
Width: 1183
VWidth: 0
GlyphClass: 2
Flags: W
PickledData: "(dp1
S'com.fontlab.hintData'
p2
(dp3
S'vhints'
p4
((dp5
S'position'
p6
I135
sS'width'
p7
I188
s(dp8
g6
I839
sg7
I189
s(dp9
g6
I856
sg7
I174
stp10
sS'hhints'
p11
((dp12
g6
I-25
sg7
I164
s(dp13
g6
I0
sg7
I21
s(dp14
g6
I1078
sg7
I20
stp15
ss."
HStem: -25 164<390.098 686.466> 0 21G<872.795 1030> 1078 20G<141 310 858 1028>
VStem: 141 169<234.226 1098> 858 170<294.152 1098> 874 156<0 166>
LayerCount: 2
Fore
SplineSet
141 444 m 2xb4
 141 1098 l 1
 310 1098 l 1
 310 549 l 2
 310 273 343 139 528 139 c 0
 694 139 831 277 858 381 c 1
 858 1098 l 1
 1028 1098 l 1
 1028 270 l 2xb8
 1028 160 1030 46 1030 0 c 1
 874 0 l 1x74
 864 166 l 1
 775 36 652 -25 494 -25 c 0
 250 -25 141 143 141 444 c 2xb4
EndSplineSet
EndChar

StartChar: underscore
Encoding: 95 95 330
Width: 1252
VWidth: 0
GlyphClass: 2
Flags: W
PickledData: "(dp1
S'com.fontlab.hintData'
p2
(dp3
S'hhints'
p4
((dp5
S'position'
p6
I-292
sS'width'
p7
I136
stp8
ss."
HStem: -292 136<150 1102>
LayerCount: 2
Fore
SplineSet
1102 -156 m 1
 1102 -292 l 1
 150 -292 l 1
 150 -156 l 1
 1102 -156 l 1
EndSplineSet
EndChar

StartChar: uni00AF
Encoding: 175 175 332
Width: 1062
VWidth: 0
GlyphClass: 2
Flags: W
PickledData: "(dp1
S'com.fontlab.hintData'
p2
(dp3
S'hhints'
p4
((dp5
S'position'
p6
I1486
sS'width'
p7
I139
stp8
ss."
HStem: 1486 139<133 933>
LayerCount: 2
Fore
SplineSet
933 1625 m 1
 933 1486 l 1
 133 1486 l 1
 133 1625 l 1
 933 1625 l 1
EndSplineSet
EndChar

StartChar: uni030F
Encoding: 783 783 361
Width: 855
VWidth: 0
GlyphClass: 2
Flags: W
PickledData: "(dp1
S'com.fontlab.hintData'
p2
(dp3
S'hhints'
p4
((dp5
S'position'
p6
I1259
sS'width'
p7
I335
stp8
ss."
HStem: 1259 335
VStem: 109 620
LayerCount: 2
Fore
SplineSet
359 1259 m 1
 109 1594 l 1
 259 1594 l 1
 461 1259 l 1
 359 1259 l 1
627 1259 m 1
 380 1594 l 1
 531 1594 l 1
 729 1259 l 1
 627 1259 l 1
EndSplineSet
EndChar

StartChar: uni0311
Encoding: 785 785 362
Width: 767
VWidth: 0
GlyphClass: 2
Flags: W
PickledData: "(dp1
S'com.fontlab.hintData'
p2
(dp3
S'vhints'
p4
((dp5
S'position'
p6
I44
sS'width'
p7
I129
s(dp8
g6
I472
sg7
I130
stp9
sS'hhints'
p10
((dp11
g6
I1440
sg7
I117
stp12
ss."
HStem: 1440 117<280.947 486.328>
VStem: 134 116<1299 1405.77> 519 117<1299 1405.77>
LayerCount: 2
Fore
SplineSet
383 1557 m 0
 506 1557 636 1471 636 1299 c 1
 519 1299 l 1
 519 1394 456 1440 383 1440 c 0
 310 1440 250 1394 250 1299 c 1
 134 1299 l 1
 134 1471 260 1557 383 1557 c 0
EndSplineSet
EndChar

StartChar: uni0326
Encoding: 806 806 363
Width: 555
VWidth: 0
GlyphClass: 2
Flags: W
PickledData: "(dp1
S'com.fontlab.hintData'
p2
(dp3
S'vhints'
p4
((dp5
S'position'
p6
I75
sS'width'
p7
I288
stp8
sS'hhints'
p9
((dp10
g6
I-672
sg7
I498
stp11
ss."
HStem: -672 498<238 261>
VStem: 144 260
LayerCount: 2
Fore
SplineSet
144 -672 m 1
 238 -174 l 1
 404 -174 l 1
 261 -672 l 1
 144 -672 l 1
EndSplineSet
EndChar

StartChar: uni0403
Encoding: 1027 1027 365
Width: 1094
VWidth: 0
GlyphClass: 2
Flags: W
PickledData: "(dp1
S'com.fontlab.hintData'
p2
(dp3
S'vhints'
p4
((dp5
S'position'
p6
I184
sS'width'
p7
I196
stp8
sS'hhints'
p9
((dp10
g6
I0
sg7
I21
s(dp11
g6
I1308
sg7
I154
stp12
ss."
HStem: 0 21G<160 336> 1308 154<336 1016>
VStem: 160 176<0 1308>
LayerCount: 2
Fore
SplineSet
1016 1308 m 1
 336 1308 l 1
 336 0 l 1
 160 0 l 1
 160 1462 l 1
 1016 1462 l 1
 1016 1308 l 1
EndSplineSet
EndChar

StartChar: uni0406
Encoding: 1030 1030 367
Width: 499
VWidth: 0
GlyphClass: 2
Flags: W
PickledData: "(dp1
S'com.fontlab.hintData'
p2
(dp3
S'vhints'
p4
((dp5
S'position'
p6
I190
sS'width'
p7
I199
stp8
sS'hhints'
p9
((dp10
g6
I0
sg7
I21
s(dp11
g6
I1442
sg7
I20
stp12
ss."
HStem: 0 21G<160 339> 1442 20G<160 339>
VStem: 160 179<0 1462>
LayerCount: 2
Fore
SplineSet
339 1462 m 1
 339 0 l 1
 160 0 l 1
 160 1462 l 1
 339 1462 l 1
EndSplineSet
EndChar

StartChar: uni0408
Encoding: 1032 1032 368
Width: 673
VWidth: 0
GlyphClass: 2
Flags: W
PickledData: "(dp1
S'com.fontlab.hintData'
p2
(dp3
S'vhints'
p4
((dp5
S'position'
p6
I320
sS'width'
p7
I199
stp8
sS'hhints'
p9
((dp10
g6
I-26
sg7
I157
s(dp11
g6
I1442
sg7
I20
stp12
ss."
HStem: -26 157<102 285.838> 1442 20G<339 518>
VStem: 339 179<181.408 1462>
LayerCount: 2
Fore
SplineSet
339 384 m 2
 339 1462 l 1
 518 1462 l 1
 518 433 l 2
 518 125 483 -26 131 -26 c 2
 102 -26 l 1
 102 131 l 1
 149 131 l 1
 330 137 339 236 339 384 c 2
EndSplineSet
EndChar

StartChar: uni0409
Encoding: 1033 1033 369
Width: 1942
VWidth: 0
GlyphClass: 2
Flags: W
PickledData: "(dp1
S'com.fontlab.hintData'
p2
(dp3
S'vhints'
p4
((dp5
S'position'
p6
I321
sS'width'
p7
I198
s(dp8
g6
I879
sg7
I196
s(dp9
g6
I1624
sg7
I185
stp10
sS'hhints'
p11
((dp12
g6
I-26
sg7
I157
s(dp13
g6
I0
sg7
I160
s(dp14
g6
I696
sg7
I159
s(dp15
g6
I1300
sg7
I162
stp16
ss."
HStem: -26 157<102 284.838> 0 160<1077 1508.51> 696 159<1076 1470.79> 1300 162<517 899>
VStem: 339 178<190.063 1300> 899 177<160 696 855 1300> 1660 166<288.315 539.251>
LayerCount: 2
Fore
SplineSet
1076 1462 m 1xbe
 1076 855 l 1
 1233 855 l 2
 1525 855 1737 717 1826 428 c 0
 1826 139 1607 0 1262 0 c 2
 899 0 l 1x7e
 899 1300 l 1
 517 1300 l 1
 517 433 l 2
 517 125 482 -26 130 -26 c 2
 102 -26 l 1
 102 131 l 1
 148 131 l 1
 329 137 339 236 339 384 c 2
 339 1462 l 1
 1076 1462 l 1xbe
1251 696 m 2
 1076 696 l 1
 1077 160 l 1
 1283 160 l 2
 1515 160 1660 255 1660 431 c 0
 1660 600 1448 696 1251 696 c 2
EndSplineSet
EndChar

StartChar: uni040A
Encoding: 1034 1034 370
Width: 1765
VWidth: 0
GlyphClass: 2
Flags: W
PickledData: "(dp1
S'com.fontlab.hintData'
p2
(dp3
S'vhints'
p4
((dp5
S'position'
p6
I321
sS'width'
p7
I198
s(dp8
g6
I879
sg7
I196
s(dp9
g6
I1624
sg7
I185
stp10
sS'hhints'
p11
((dp12
g6
I0
sg7
I160
s(dp13
g6
I696
sg7
I159
s(dp14
g6
I1442
sg7
I20
stp15
ss."
HStem: 0 160<898 1330.51> 696 159<339 722 898 1293.57> 1442 20G<160 339 722 898>
VStem: 160 179<0 696 855 1462> 722 176<160 696 855 1462> 1481 167<288.315 539.251>
LayerCount: 2
Fore
SplineSet
898 1462 m 1
 898 855 l 1
 1056 855 l 2
 1348 855 1559 717 1648 428 c 0
 1648 139 1429 0 1084 0 c 2
 722 0 l 1
 722 696 l 1
 339 696 l 1
 339 0 l 1
 160 0 l 1
 160 1462 l 1
 339 1462 l 1
 339 855 l 1
 722 855 l 1
 722 1462 l 1
 898 1462 l 1
1074 696 m 2
 898 696 l 1
 898 160 l 1
 1105 160 l 2
 1337 160 1481 255 1481 431 c 0
 1481 600 1271 696 1074 696 c 2
EndSplineSet
EndChar

StartChar: uni0411
Encoding: 1041 1041 372
Width: 1334
VWidth: 0
GlyphClass: 2
Flags: W
PickledData: "(dp1
S'com.fontlab.hintData'
p2
(dp3
S'vhints'
p4
((dp5
S'position'
p6
I176
sS'width'
p7
I196
s(dp8
g6
I1033
sg7
I188
stp9
sS'hhints'
p10
((dp11
g6
I0
sg7
I160
s(dp12
g6
I696
sg7
I159
s(dp13
g6
I1300
sg7
I162
stp14
ss."
HStem: 0 160<337 890.508> 696 159<337 890.508> 1300 162<337 1136>
VStem: 160 177<160 696 855 1300> 1039 169<288.315 568.334>
LayerCount: 2
Fore
SplineSet
662 696 m 2
 337 696 l 1
 337 160 l 1
 662 160 l 2
 894 160 1039 255 1039 431 c 0
 1039 600 894 696 662 696 c 2
160 1462 m 1
 1136 1462 l 1
 1136 1300 l 1
 337 1300 l 1
 337 855 l 1
 644 855 l 2
 989 855 1208 717 1208 428 c 0
 1208 139 989 0 644 0 c 2
 160 0 l 1
 160 1462 l 1
EndSplineSet
EndChar

StartChar: uni0412
Encoding: 1042 1042 373
Width: 1344
VWidth: 0
GlyphClass: 2
Flags: W
PickledData: "(dp1
S'com.fontlab.hintData'
p2
(dp3
S'vhints'
p4
((dp5
S'position'
p6
I176
sS'width'
p7
I196
s(dp8
g6
I1016
sg7
I188
s(dp9
g6
I1033
sg7
I188
stp10
sS'hhints'
p11
((dp12
g6
I0
sg7
I160
s(dp13
g6
I675
sg7
I160
s(dp14
g6
I1300
sg7
I162
stp15
ss."
HStem: 0 160<337 890.508> 675 160<337 896.257> 1300 162<337 890.824>
VStem: 160 177<160 675 835 1300> 1020 169<938.564 1195.38> 1039 169<283.046 555.517>
LayerCount: 2
Fore
SplineSet
160 0 m 1xf4
 160 1462 l 1
 636 1462 l 2
 976 1462 1189 1334 1189 1075 c 0xf8
 1189 929 1117 824 985 757 c 1
 1122 688 1208 577 1208 419 c 0
 1208 136 989 0 644 0 c 2
 160 0 l 1xf4
662 675 m 2
 337 675 l 1
 337 160 l 1
 662 160 l 2
 894 160 1039 252 1039 421 c 0xf4
 1039 584 894 675 662 675 c 2
337 835 m 1
 662 835 l 2
 891 835 1020 918 1020 1070 c 0xf8
 1020 1218 885 1300 656 1300 c 2
 337 1300 l 1
 337 835 l 1
EndSplineSet
EndChar

StartChar: uni0413
Encoding: 1043 1043 374
Width: 1094
VWidth: 0
GlyphClass: 2
Flags: W
PickledData: "(dp1
S'com.fontlab.hintData'
p2
(dp3
S'vhints'
p4
((dp5
S'position'
p6
I184
sS'width'
p7
I196
stp8
sS'hhints'
p9
((dp10
g6
I0
sg7
I21
s(dp11
g6
I1308
sg7
I154
stp12
ss."
HStem: 0 21G<160 336> 1308 154<336 1016>
VStem: 160 176<0 1308>
LayerCount: 2
Fore
SplineSet
1016 1308 m 1
 336 1308 l 1
 336 0 l 1
 160 0 l 1
 160 1462 l 1
 1016 1462 l 1
 1016 1308 l 1
EndSplineSet
EndChar

StartChar: uni0414
Encoding: 1044 1044 375
Width: 1546
VWidth: 0
GlyphClass: 2
Flags: W
PickledData: "(dp1
S'com.fontlab.hintData'
p2
(dp3
S'vhints'
p4
((dp5
S'position'
p6
I38
sS'width'
p7
I196
s(dp8
g6
I1022
sg7
I199
s(dp9
g6
I1153
sg7
I197
stp10
sS'hhints'
p11
((dp12
g6
I-265
sg7
I417
s(dp13
g6
I0
sg7
I152
s(dp14
g6
I1308
sg7
I154
stp15
ss."
HStem: -265 417<105 262 1284 1400> 0 152<458 1105> 1308 154<784 1105>
VStem: 105 176<-265 0> 1105 179<152 1308> 1223 177<-265 0>
LayerCount: 2
Fore
SplineSet
614 1462 m 1xb4
 1284 1462 l 1
 1284 152 l 1xb8
 1400 152 l 1
 1400 -265 l 1
 1223 -265 l 1xb4
 1223 0 l 1
 281 0 l 1x74
 281 -265 l 1
 105 -265 l 1
 105 152 l 1
 262 152 l 1
 614 1462 l 1xb4
1105 152 m 1x78
 1105 1308 l 1
 784 1308 l 1
 458 152 l 1
 1105 152 l 1x78
EndSplineSet
EndChar

StartChar: uni041B
Encoding: 1051 1051 377
Width: 1333
VWidth: 0
GlyphClass: 2
Flags: W
PickledData: "(dp1
S'com.fontlab.hintData'
p2
(dp3
S'vhints'
p4
((dp5
S'position'
p6
I974
sS'width'
p7
I199
stp8
sS'hhints'
p9
((dp10
g6
I0
sg7
I21
s(dp11
g6
I1308
sg7
I154
stp12
ss."
HStem: 0 21G<124 309.658 994 1173> 1308 154<674 994>
VStem: 994 179<0 1308>
LayerCount: 2
Fore
SplineSet
503 1462 m 1
 1173 1462 l 1
 1173 0 l 1
 994 0 l 1
 994 1308 l 1
 674 1308 l 1
 304 0 l 1
 124 0 l 1
 503 1462 l 1
EndSplineSet
EndChar

StartChar: uni041F
Encoding: 1055 1055 381
Width: 1489
VWidth: 0
GlyphClass: 2
Flags: W
PickledData: "(dp1
S'com.fontlab.hintData'
p2
(dp3
S'vhints'
p4
((dp5
S'position'
p6
I176
sS'width'
p7
I196
s(dp8
g6
I1141
sg7
I195
stp9
sS'hhints'
p10
((dp11
g6
I0
sg7
I21
s(dp12
g6
I1308
sg7
I154
stp13
ss."
HStem: 0 21G<160 336 1153 1329> 1308 154<336 1153>
VStem: 160 176<0 1308> 1153 176<0 1308>
LayerCount: 2
Fore
SplineSet
1153 1308 m 1
 336 1308 l 1
 336 0 l 1
 160 0 l 1
 160 1462 l 1
 1329 1462 l 1
 1329 0 l 1
 1153 0 l 1
 1153 1308 l 1
EndSplineSet
EndChar

StartChar: uni0424
Encoding: 1060 1060 385
Width: 1786
VWidth: 0
GlyphClass: 2
Flags: W
PickledData: "(dp1
S'com.fontlab.hintData'
p2
(dp3
S'vhints'
p4
((dp5
S'position'
p6
I103
sS'width'
p7
I211
s(dp8
g6
I1419
sg7
I211
stp9
sS'hhints'
p10
((dp11
g6
I103
sg7
I167
s(dp12
g6
I1195
sg7
I167
stp13
ss."
HStem: 0 21G<804 967> 103 167<633.22 804 967 1154.37> 1195 167<633.22 804 967 1154.37> 1442 20G<804 967>
VStem: 131 190<542.521 923.337> 804 163<0 104.388 270 1195 1360.61 1462> 1466 190<537.484 928.47>
LayerCount: 2
Fore
SplineSet
967 1462 m 1
 967 1364 l 1
 1393 1334 1656 1108 1656 733 c 0
 1656 358 1393 131 967 101 c 1
 967 0 l 1
 804 0 l 1
 804 103 l 1
 372 141 131 379 131 733 c 0
 131 1087 372 1324 804 1362 c 1
 804 1462 l 1
 967 1462 l 1
967 1197 m 1
 967 269 l 1
 1273 301 1466 476 1466 733 c 0
 1466 990 1273 1165 967 1197 c 1
804 1195 m 1
 514 1161 321 988 321 733 c 0
 321 478 514 304 804 270 c 1
 804 1195 l 1
EndSplineSet
EndChar

StartChar: uni0428
Encoding: 1064 1064 387
Width: 1457
VWidth: 0
GlyphClass: 2
Flags: W
PickledData: "(dp1
S'com.fontlab.hintData'
p2
(dp3
S'vhints'
p4
((dp5
S'position'
p6
I176
sS'width'
p7
I196
s(dp8
g6
I665
sg7
I197
s(dp9
g6
I1141
sg7
I195
stp10
sS'hhints'
p11
((dp12
g6
I0
sg7
I152
s(dp13
g6
I1442
sg7
I20
stp14
ss."
HStem: 0 152<336 648 825 1121> 1442 20G<160 336 648 825 1121 1297>
VStem: 160 176<152 1462> 648 177<152 1462> 1121 176<152 1462>
LayerCount: 2
Fore
SplineSet
336 152 m 1
 648 152 l 1
 648 1462 l 1
 825 1462 l 1
 825 152 l 1
 1121 152 l 1
 1121 1462 l 1
 1297 1462 l 1
 1297 0 l 1
 160 0 l 1
 160 1462 l 1
 336 1462 l 1
 336 152 l 1
EndSplineSet
EndChar

StartChar: uni042A
Encoding: 1066 1066 388
Width: 1491
VWidth: 0
GlyphClass: 2
Flags: W
PickledData: "(dp1
S'com.fontlab.hintData'
p2
(dp3
S'vhints'
p4
((dp5
S'position'
p6
I879
sS'width'
p7
I196
s(dp8
g6
I879
sg7
I163
s(dp9
g6
I1624
sg7
I185
stp10
sS'hhints'
p11
((dp12
g6
I0
sg7
I160
s(dp13
g6
I696
sg7
I159
s(dp14
g6
I1300
sg7
I162
stp15
ss."
HStem: 0 160<621 1054.51> 696 159<621 1054.51> 1300 162<60 592>
VStem: 445 176<160 696 855 1300> 445 147<1300 1462> 1206 166<288.315 568.334>
LayerCount: 2
Fore
SplineSet
829 696 m 2xf4
 621 696 l 1
 621 160 l 1
 829 160 l 2
 1061 160 1206 255 1206 431 c 0
 1206 600 1061 696 829 696 c 2xf4
621 1462 m 1
 621 855 l 1xf4
 808 855 l 2
 1153 855 1372 717 1372 428 c 0
 1372 139 1153 0 808 0 c 2
 445 0 l 1
 445 1462 l 1xec
 621 1462 l 1
60 1300 m 1
 60 1462 l 1
 592 1462 l 1
 592 1300 l 1xec
 60 1300 l 1
EndSplineSet
EndChar

StartChar: uni042B
Encoding: 1067 1067 389
Width: 1609
VWidth: 0
GlyphClass: 2
Flags: W
PickledData: "(dp1
S'com.fontlab.hintData'
p2
(dp3
S'vhints'
p4
((dp5
S'position'
p6
I879
sS'width'
p7
I196
s(dp8
g6
I1578
sg7
I184
s(dp9
g6
I1955
sg7
I198
stp10
sS'hhints'
p11
((dp12
g6
I0
sg7
I160
s(dp13
g6
I696
sg7
I159
s(dp14
g6
I1442
sg7
I20
stp15
ss."
HStem: 0 160<336 719.334> 696 159<336 721.931> 1442 20G<160 336 1271 1449>
VStem: 160 176<160 696 855 1462> 871 165<292.222 563.7> 1271 178<0 1462>
LayerCount: 2
Fore
SplineSet
493 696 m 2
 336 696 l 1
 336 160 l 1
 493 160 l 2
 725 160 871 255 871 431 c 0
 871 600 725 696 493 696 c 2
336 1462 m 1
 336 855 l 1
 473 855 l 2
 818 855 1066 717 1036 428 c 0
 1036 139 818 0 473 0 c 2
 160 0 l 1
 160 1462 l 1
 336 1462 l 1
1449 1462 m 1
 1449 0 l 1
 1271 0 l 1
 1271 1462 l 1
 1449 1462 l 1
EndSplineSet
EndChar

StartChar: uni042C
Encoding: 1068 1068 390
Width: 1204
VWidth: 0
GlyphClass: 2
Flags: W
PickledData: "(dp1
S'com.fontlab.hintData'
p2
(dp3
S'vhints'
p4
((dp5
S'position'
p6
I879
sS'width'
p7
I196
s(dp8
g6
I1624
sg7
I185
stp9
sS'hhints'
p10
((dp11
g6
I0
sg7
I160
s(dp12
g6
I696
sg7
I159
s(dp13
g6
I1442
sg7
I20
stp14
ss."
HStem: 0 160<336 767.508> 696 159<336 767.508> 1442 20G<160 336>
VStem: 160 176<160 696 855 1462> 919 166<288.315 568.334>
LayerCount: 2
Fore
SplineSet
542 696 m 2
 336 696 l 1
 336 160 l 1
 542 160 l 2
 774 160 919 255 919 431 c 0
 919 600 774 696 542 696 c 2
336 1462 m 1
 336 855 l 1
 521 855 l 2
 866 855 1085 717 1085 428 c 0
 1085 139 866 0 521 0 c 2
 160 0 l 1
 160 1462 l 1
 336 1462 l 1
EndSplineSet
EndChar

StartChar: uni042E
Encoding: 1070 1070 391
Width: 2086
VWidth: 0
GlyphClass: 2
Flags: W
PickledData: "(dp1
S'com.fontlab.hintData'
p2
(dp3
S'vhints'
p4
((dp5
S'position'
p6
I176
sS'width'
p7
I196
s(dp8
g6
I667
sg7
I210
s(dp9
g6
I1749
sg7
I210
stp10
sS'hhints'
p11
((dp12
g6
I-23
sg7
I166
s(dp13
g6
I0
sg7
I21
s(dp14
g6
I677
sg7
I151
s(dp15
g6
I1323
sg7
I166
s(dp16
g6
I1442
sg7
I20
stp17
ss."
HStem: -23 166<1107.03 1491.88> 0 21G<160 337> 677 151<337 650> 1323 166<1106.05 1497.15> 1442 20G<160 337>
VStem: 160 177<0 677 828 1462> 650 189<459.409 677 828 1005.26> 1765 189<456.969 1007.13>
LayerCount: 2
Fore
SplineSet
1302 -23 m 0xb7
 884 -23 666 265 650 677 c 1
 337 677 l 1
 337 0 l 1
 160 0 l 1
 160 1462 l 1
 337 1462 l 1x6f
 337 828 l 1
 653 828 l 1
 684 1231 916 1489 1302 1489 c 0
 1720 1489 1954 1193 1954 731 c 0
 1954 292 1736 -23 1302 -23 c 0xb7
1302 1323 m 0xb7
 994 1323 839 1064 839 737 c 0
 839 403 992 143 1302 143 c 0
 1612 143 1765 403 1765 737 c 0
 1765 1064 1610 1323 1302 1323 c 0xb7
EndSplineSet
EndChar

StartChar: uni042F
Encoding: 1071 1071 392
Width: 1396
VWidth: 0
GlyphClass: 2
Flags: W
PickledData: "(dp1
S'com.fontlab.hintData'
p2
(dp3
S'vhints'
p4
((dp5
S'position'
p6
I176
sS'width'
p7
I189
s(dp8
g6
I1022
sg7
I199
stp9
sS'hhints'
p10
((dp11
g6
I0
sg7
I21
s(dp12
g6
I605
sg7
I161
s(dp13
g6
I1300
sg7
I162
stp14
ss."
HStem: 0 21G<116 310.016 1057 1236> 605 161<636.783 1057> 1300 162<500.727 1057>
VStem: 180 170<891.94 1172.97> 1057 179<0 605 766 1300>
LayerCount: 2
Fore
SplineSet
1057 0 m 1
 1057 605 l 1
 754 605 l 2
 714 605 673 608 635 610 c 1
 299 0 l 1
 116 0 l 1
 437 654 l 1
 269 718 180 842 180 1033 c 0
 180 1322 401 1462 750 1462 c 2
 1236 1462 l 1
 1236 0 l 1
 1057 0 l 1
729 766 m 2
 1057 766 l 1
 1057 1300 l 1
 729 1300 l 2
 493 1300 350 1207 350 1031 c 0
 350 862 493 766 729 766 c 2
EndSplineSet
EndChar

StartChar: uni0433
Encoding: 1075 1075 394
Width: 737
VWidth: 0
GlyphClass: 2
Flags: W
PickledData: "(dp1
S'com.fontlab.hintData'
p2
(dp3
S'vhints'
p4
((dp5
S'position'
p6
I196
sS'width'
p7
I188
stp8
sS'hhints'
p9
((dp10
g6
I0
sg7
I21
s(dp11
g6
I939
sg7
I159
stp12
ss."
HStem: 0 21G<152 322> 939 159<322 609>
VStem: 152 170<0 939>
LayerCount: 2
Fore
SplineSet
152 1098 m 1
 609 1098 l 1
 609 939 l 1
 322 939 l 1
 322 0 l 1
 152 0 l 1
 152 1098 l 1
EndSplineSet
EndChar

StartChar: uni0434
Encoding: 1076 1076 395
Width: 1280
VWidth: 0
GlyphClass: 2
Flags: W
PickledData: "(dp1
S'com.fontlab.hintData'
p2
(dp3
S'vhints'
p4
((dp5
S'position'
p6
I-26
sS'width'
p7
I178
s(dp8
g6
I209
sg7
I188
s(dp9
g6
I758
sg7
I189
s(dp10
g6
I852
sg7
I192
stp11
sS'hhints'
p12
((dp13
g6
I-197
sg7
I349
s(dp14
g6
I0
sg7
I152
s(dp15
g6
I935
sg7
I163
stp16
ss."
HStem: -197 349<110 268.71 1044 1131> 0 152<270 299 444 874> 935 163<490 874>
VStem: 110 160<-197 0> 321 169<190.002 935> 874 170<152 935> 959 172<-197 0>
LayerCount: 2
Fore
SplineSet
270 0 m 1x7a
 270 -197 l 1
 110 -197 l 1
 110 152 l 1
 206 152 l 2
 299 152 321 277 321 409 c 2
 321 1098 l 1
 1044 1098 l 1
 1044 152 l 1xbc
 1131 152 l 1
 1131 -197 l 1
 959 -197 l 1xba
 959 0 l 1
 270 0 l 1x7a
444 152 m 1x7c
 874 152 l 1
 874 935 l 1
 490 935 l 1
 490 462 l 2
 490 332 476 229 444 152 c 1x7c
EndSplineSet
EndChar

StartChar: uni0438
Encoding: 1080 1080 397
Width: 1194
VWidth: 0
GlyphClass: 2
Flags: W
PickledData: "(dp1
S'com.fontlab.hintData'
p2
(dp3
S'vhints'
p4
((dp5
S'position'
p6
I155
sS'width'
p7
I176
s(dp8
g6
I864
sg7
I182
stp9
sS'hhints'
p10
((dp11
g6
I0
sg7
I21
s(dp12
g6
I1078
sg7
I20
stp13
ss."
HStem: 0 21G<152 324.42 876 1039> 1078 20G<152 310 882 1039>
VStem: 152 158<270 1098> 876 163<0 785 1055 1098>
LayerCount: 2
Fore
SplineSet
1039 0 m 1
 876 0 l 1
 876 785 l 1
 310 0 l 1
 152 0 l 1
 152 1098 l 1
 310 1098 l 1
 310 270 l 1
 882 1055 l 1
 882 1098 l 1
 1039 1098 l 1
 1039 0 l 1
EndSplineSet
EndChar

StartChar: uni043B
Encoding: 1083 1083 399
Width: 1302
VWidth: 0
GlyphClass: 2
Flags: W
PickledData: "(dp1
S'com.fontlab.hintData'
p2
(dp3
S'vhints'
p4
((dp5
S'position'
p6
I188
sS'width'
p7
I187
s(dp8
g6
I862
sg7
I188
stp9
sS'hhints'
p10
((dp11
g6
I-25
sg7
I166
s(dp12
g6
I0
sg7
I21
s(dp13
g6
I935
sg7
I163
stp14
ss."
HStem: -25 166<114 238.046> 0 21G<978 1147> 935 163<461 978>
VStem: 292 169<195.123 935> 978 169<0 935>
LayerCount: 2
Fore
SplineSet
292 1098 m 1xb8
 1147 1098 l 1
 1147 0 l 1
 978 0 l 1x78
 978 935 l 1
 461 935 l 1
 461 462 l 2
 461 134 438 21 121 -25 c 1
 114 -25 l 1
 114 141 l 1
 121 141 l 1
 290 166 292 251 292 409 c 2
 292 1098 l 1xb8
EndSplineSet
EndChar

StartChar: uni043C
Encoding: 1084 1084 400
Width: 1231
VWidth: 0
GlyphClass: 2
Flags: W
PickledData: "(dp1
S'com.fontlab.hintData'
p2
(dp3
S'vhints'
p4
((dp5
S'position'
p6
I155
sS'width'
p7
I165
s(dp8
g6
I910
sg7
I165
stp9
sS'hhints'
p10
((dp11
g6
I0
sg7
I21
s(dp12
g6
I1078
sg7
I20
stp13
ss."
HStem: 0 21G<152 301 927 1076> 1078 20G<152 311.242 916.68 1076>
VStem: 152 149<0 778> 927 149<0 778>
LayerCount: 2
Fore
SplineSet
649 337 m 1
 576 337 l 1
 301 778 l 1
 301 0 l 1
 152 0 l 1
 152 1098 l 1
 299 1098 l 1
 613 585 l 1
 929 1098 l 1
 1076 1098 l 1
 1076 0 l 1
 927 0 l 1
 927 778 l 1
 649 337 l 1
EndSplineSet
EndChar

StartChar: uni043D
Encoding: 1085 1085 401
Width: 1194
VWidth: 0
GlyphClass: 2
Flags: W
PickledData: "(dp1
S'com.fontlab.hintData'
p2
(dp3
S'vhints'
p4
((dp5
S'position'
p6
I157
sS'width'
p7
I189
s(dp8
g6
I862
sg7
I188
stp9
sS'hhints'
p10
((dp11
g6
I0
sg7
I21
s(dp12
g6
I504
sg7
I161
s(dp13
g6
I1078
sg7
I20
stp14
ss."
HStem: 0 21G<152 322 870 1039> 504 161<322 870> 1078 20G<152 322 870 1039>
VStem: 152 170<0 504 665 1098> 870 169<0 504 665 1098>
LayerCount: 2
Fore
SplineSet
152 1098 m 1
 322 1098 l 1
 322 665 l 1
 870 665 l 1
 870 1098 l 1
 1039 1098 l 1
 1039 0 l 1
 870 0 l 1
 870 504 l 1
 322 504 l 1
 322 0 l 1
 152 0 l 1
 152 1098 l 1
EndSplineSet
EndChar

StartChar: uni043F
Encoding: 1087 1087 403
Width: 1194
VWidth: 0
GlyphClass: 2
Flags: W
PickledData: "(dp1
S'com.fontlab.hintData'
p2
(dp3
S'vhints'
p4
((dp5
S'position'
p6
I157
sS'width'
p7
I189
s(dp8
g6
I862
sg7
I188
stp9
sS'hhints'
p10
((dp11
g6
I0
sg7
I21
s(dp12
g6
I935
sg7
I163
stp13
ss."
HStem: 0 21G<152 322 870 1039> 935 163<322 870>
VStem: 152 170<0 935> 870 169<0 935>
LayerCount: 2
Fore
SplineSet
152 1098 m 1
 1039 1098 l 1
 1039 0 l 1
 870 0 l 1
 870 935 l 1
 322 935 l 1
 322 0 l 1
 152 0 l 1
 152 1098 l 1
EndSplineSet
EndChar

StartChar: uni0442
Encoding: 1090 1090 406
Width: 994
VWidth: 0
GlyphClass: 2
Flags: W
PickledData: "(dp1
S'com.fontlab.hintData'
p2
(dp3
S'vhints'
p4
((dp5
S'position'
p6
I331
sS'width'
p7
I189
stp8
sS'hhints'
p9
((dp10
g6
I0
sg7
I21
s(dp11
g6
I939
sg7
I159
stp12
ss."
HStem: 0 21G<400 570> 939 159<103 400 570 866>
VStem: 400 170<0 939>
LayerCount: 2
Fore
SplineSet
103 1098 m 1
 866 1098 l 1
 866 939 l 1
 570 939 l 1
 570 0 l 1
 400 0 l 1
 400 939 l 1
 103 939 l 1
 103 1098 l 1
EndSplineSet
EndChar

StartChar: uni0443
Encoding: 1091 1091 407
Width: 1218
VWidth: 0
GlyphClass: 2
Flags: W
PickledData: "(dp1
S'com.fontlab.hintData'
p2
(dp3
S'hhints'
p4
((dp5
S'position'
p6
I-415
sS'width'
p7
I170
s(dp8
g6
I1078
sg7
I20
stp9
ss."
HStem: -415 170<174 377.985> 1078 20G<99 291.413 903.933 1094>
LayerCount: 2
Fore
SplineSet
605 232 m 1
 911 1098 l 1
 1094 1098 l 1
 715 22 l 1
 670 -210 563 -415 174 -415 c 1
 174 -245 l 1
 430 -245 500 -118 508 30 c 1
 99 1098 l 1
 284 1098 l 1
 605 232 l 1
EndSplineSet
EndChar

StartChar: uni0444
Encoding: 1092 1092 408
Width: 1487
VWidth: 0
GlyphClass: 2
Flags: W
PickledData: "(dp1
S'com.fontlab.hintData'
p2
(dp3
S'vhints'
p4
((dp5
S'position'
p6
I79
sS'width'
p7
I193
s(dp8
g6
I612
sg7
I188
s(dp9
g6
I1139
sg7
I193
stp10
sS'hhints'
p11
((dp12
g6
I32
sg7
I155
s(dp13
g6
I932
sg7
I160
stp14
ss."
HStem: 32 155<415.748 658.773 833.225 1075.23> 932 160<414.667 658.704 833.293 1076.61>
VStem: 128 173<331.924 788.599> 661 170<-195 57 202.804 913.855 1061 1312> 1192 173<331.924 788.599>
LayerCount: 2
Fore
SplineSet
661 1312 m 1
 831 1312 l 1
 831 1061 l 1
 878 1080 924 1092 969 1092 c 0
 1207 1092 1365 844 1365 558 c 0
 1365 274 1204 32 970 32 c 0
 925 32 878 38 831 57 c 1
 831 -195 l 1
 661 -195 l 1
 661 57 l 1
 614 38 565 32 520 32 c 0
 287 32 128 274 128 558 c 0
 128 844 284 1092 522 1092 c 0
 564 1092 614 1080 661 1061 c 1
 661 1312 l 1
969 932 m 0
 924 932 882 920 831 895 c 1
 831 222 l 1
 879 197 924 187 966 187 c 0
 1108 187 1192 359 1192 556 c 0
 1192 755 1111 932 969 932 c 0
525 187 m 0
 567 187 613 198 661 220 c 1
 661 899 l 1
 610 924 564 932 522 932 c 0
 380 932 301 755 301 556 c 0
 301 359 383 187 525 187 c 0
EndSplineSet
EndChar

StartChar: uni0447
Encoding: 1095 1095 410
Width: 1126
VWidth: 0
GlyphClass: 2
Flags: W
PickledData: "(dp1
S'com.fontlab.hintData'
p2
(dp3
S'vhints'
p4
((dp5
S'position'
p6
I79
sS'width'
p7
I187
s(dp8
g6
I740
sg7
I187
stp9
sS'hhints'
p10
((dp11
g6
I0
sg7
I21
s(dp12
g6
I403
sg7
I163
s(dp13
g6
I1078
sg7
I20
stp14
ss."
HStem: 0 21G<802 971> 403 163<376.01 653.695> 1078 20G<130 299 802 971>
VStem: 130 169<654.437 1098> 802 169<0 587 714.037 1098>
LayerCount: 2
Fore
SplineSet
802 812 m 1
 802 1098 l 1
 971 1098 l 1
 971 0 l 1
 802 0 l 1
 802 587 l 1
 722 461 621 403 482 403 c 0
 238 403 130 560 130 840 c 2
 130 1098 l 1
 299 1098 l 1
 299 945 l 2
 299 691 331 566 516 566 c 0
 660 566 781 708 802 812 c 1
EndSplineSet
EndChar

StartChar: uni0448
Encoding: 1096 1096 411
Width: 1166
VWidth: 0
GlyphClass: 2
Flags: W
PickledData: "(dp1
S'com.fontlab.hintData'
p2
(dp3
S'vhints'
p4
((dp5
S'position'
p6
I157
sS'width'
p7
I189
s(dp8
g6
I520
sg7
I172
s(dp9
g6
I862
sg7
I188
stp10
sS'hhints'
p11
((dp12
g6
I0
sg7
I164
s(dp13
g6
I1078
sg7
I20
stp14
ss."
HStem: 0 164<322 506 661 842> 1078 20G<152 322 506 661 842 1011>
VStem: 152 170<164 1098> 506 155<164 1098> 842 169<164 1098>
LayerCount: 2
Fore
SplineSet
322 164 m 1
 506 164 l 1
 506 1098 l 1
 661 1098 l 1
 661 164 l 1
 842 164 l 1
 842 1098 l 1
 1011 1098 l 1
 1011 0 l 1
 152 0 l 1
 152 1098 l 1
 322 1098 l 1
 322 164 l 1
EndSplineSet
EndChar

StartChar: uni044A
Encoding: 1098 1098 412
Width: 1305
VWidth: 0
GlyphClass: 2
Flags: W
PickledData: "(dp1
S'com.fontlab.hintData'
p2
(dp3
S'vhints'
p4
((dp5
S'position'
p6
I155
sS'width'
p7
I195
s(dp8
g6
I822
sg7
I180
stp9
sS'hhints'
p10
((dp11
g6
I0
sg7
I158
s(dp12
g6
I504
sg7
I159
s(dp13
g6
I939
sg7
I159
stp14
ss."
HStem: 0 158<515 950.663> 504 159<515 950.663> 939 159<105 339>
VStem: 339 176<158 504 663 939> 1016 162<219.919 444.342>
LayerCount: 2
Fore
SplineSet
515 1098 m 1
 515 663 l 1
 797 663 l 2
 1064 663 1178 501 1178 337 c 0
 1178 167 1064 0 797 0 c 2
 339 0 l 1
 339 939 l 1
 105 939 l 1
 105 1098 l 1
 515 1098 l 1
818 504 m 2
 515 504 l 1
 515 158 l 1
 818 158 l 2
 951 158 1016 246 1016 337 c 0
 1016 421 951 504 818 504 c 2
EndSplineSet
EndChar

StartChar: uni044E
Encoding: 1102 1102 413
Width: 1545
VWidth: 0
GlyphClass: 2
Flags: W
PickledData: "(dp1
S'com.fontlab.hintData'
p2
(dp3
S'vhints'
p4
((dp5
S'position'
p6
I155
sS'width'
p7
I187
s(dp8
g6
I504
sg7
I193
s(dp9
g6
I1240
sg7
I194
stp10
sS'hhints'
p11
((dp12
g6
I-25
sg7
I162
s(dp13
g6
I0
sg7
I21
s(dp14
g6
I474
sg7
I149
s(dp15
g6
I961
sg7
I163
s(dp16
g6
I1078
sg7
I20
stp17
ss."
HStem: -25 162<817.711 1095.85> 0 21G<152 320> 474 149<320 496.78> 961 163<819.201 1097.42> 1078 20G<152 320>
VStem: 152 168<0 474 623 1098> 493 174<323.975 474 623 773.209> 1243 175<312.487 784.364>
LayerCount: 2
Fore
SplineSet
1418 549 m 0x37
 1418 244 1272 -25 956 -25 c 0xb7
 660 -25 514 194 493 474 c 1
 320 474 l 1
 320 0 l 1
 152 0 l 1
 152 1098 l 1
 320 1098 l 1x6f
 320 623 l 1
 493 623 l 1
 516 903 664 1124 961 1124 c 0
 1278 1124 1418 865 1418 549 c 0x37
1243 547 m 0
 1243 769 1155 961 956 961 c 0
 766 961 667 758 667 544 c 0
 667 330 765 137 961 137 c 0
 1155 137 1243 333 1243 547 c 0
EndSplineSet
EndChar

StartChar: uni0456
Encoding: 1110 1110 417
Width: 489
VWidth: 0
GlyphClass: 2
Flags: W
PickledData: "(dp1
S'com.fontlab.hintData'
p2
(dp3
S'vhints'
p4
((dp5
S'position'
p6
I174
sS'width'
p7
I189
stp8
sS'hhints'
p9
((dp10
g6
I0
sg7
I21
s(dp11
g6
I1078
sg7
I20
s(dp12
g6
I1359
sg7
I198
stp13
ss."
HStem: 0 21G<160 329> 1078 20G<160 329> 1292 198<160 329>
VStem: 160 169<0 1098 1292 1490>
LayerCount: 2
Fore
SplineSet
329 1098 m 1
 329 0 l 1
 160 0 l 1
 160 1098 l 1
 329 1098 l 1
329 1490 m 1
 329 1292 l 1
 160 1292 l 1
 160 1490 l 1
 329 1490 l 1
EndSplineSet
EndChar

StartChar: uni2206
Encoding: 8710 8710 418
Width: 1339
VWidth: 0
GlyphClass: 2
Flags: W
PickledData: "(dp1
S'com.fontlab.hintData'
p2
(dp3
S'hhints'
p4
((dp5
S'position'
p6
I0
sS'width'
p7
I174
stp8
ss."
HStem: 0 174<284 1062>
LayerCount: 2
Fore
SplineSet
1263 86 m 1
 1263 0 l 1
 83 0 l 1
 83 86 l 1
 578 1541 l 1
 768 1541 l 1
 1263 86 l 1
284 174 m 1
 1062 174 l 1
 704 1195 l 1
 668 1312 l 1
 636 1195 l 1
 284 174 l 1
EndSplineSet
EndChar

StartChar: v
Encoding: 118 118 419
Width: 1202
VWidth: 0
GlyphClass: 2
Flags: W
PickledData: "(dp1
S'com.fontlab.hintData'
p2
(dp3
S'hhints'
p4
((dp5
S'position'
p6
I0
sS'width'
p7
I21
s(dp8
g6
I1078
sg7
I20
stp9
ss."
HStem: 0 21G<478.787 672.869> 1078 20G<90 287.2 904.985 1097>
LayerCount: 2
Fore
SplineSet
486 0 m 1
 90 1098 l 1
 280 1098 l 1
 514 448 l 1
 581 224 l 1
 684 448 l 1
 912 1098 l 1
 1097 1098 l 1
 665 0 l 1
 486 0 l 1
EndSplineSet
EndChar

StartChar: w
Encoding: 119 119 420
Width: 1753
VWidth: 0
GlyphClass: 2
Flags: W
PickledData: "(dp1
S'com.fontlab.hintData'
p2
(dp3
S'hhints'
p4
((dp5
S'position'
p6
I0
sS'width'
p7
I21
s(dp8
g6
I1078
sg7
I20
stp9
ss."
HStem: 0 21G<411.171 592.495 1141.91 1319.9> 1078 20G<97 285.135 773.874 989.747 1452.05 1638>
LayerCount: 2
Fore
SplineSet
97 1098 m 1
 280 1098 l 1
 508 210 l 5
 780 1098 l 1
 984 1098 l 1
 1238 214 l 5
 1457 1098 l 1
 1638 1098 l 1
 1314 0 l 1
 1148 0 l 1
 876 893 l 1
 586 0 l 1
 417 0 l 1
 97 1098 l 1
EndSplineSet
EndChar

StartChar: x
Encoding: 120 120 421
Width: 1170
VWidth: 0
GlyphClass: 2
Flags: W
PickledData: "(dp1
S'com.fontlab.hintData'
p2
(dp3
S'hhints'
p4
((dp5
S'position'
p6
I0
sS'width'
p7
I21
s(dp8
g6
I1078
sg7
I20
stp9
ss."
HStem: 0 21G<86 301.226 862.774 1068> 1078 20G<96 309.08 852.774 1068>
LayerCount: 2
Back
SplineSet
107 0 m 5
 483 554 l 5
 124 1098 l 5
 326 1098 l 5
 606 641 l 5
 903 1098 l 5
 1086 1098 l 5
 734 558 l 5
 1099 0 l 5
 902 0 l 5
 608 471 l 5
 302 0 l 5
 107 0 l 5
EndSplineSet
Fore
SplineSet
867 1098 m 1
 1068 1098 l 1
 679.511 551.826 l 1
 1068 0 l 1
 877 0 l 1
 582 414.737 l 1
 287 0 l 1
 86 0 l 1
 481.5 556.029 l 1
 96 1098 l 1
 295 1098 l 1
 579.527 693.846 l 1
 867 1098 l 1
EndSplineSet
EndChar

StartChar: y
Encoding: 121 121 422
Width: 1171
VWidth: 0
GlyphClass: 2
Flags: W
PickledData: "(dp1
S'com.fontlab.hintData'
p2
(dp3
S'hhints'
p4
((dp5
S'position'
p6
I-415
sS'width'
p7
I170
s(dp8
g6
I1078
sg7
I20
stp9
ss."
HStem: -510 167<165 352.622> 1078 20G<88 275.425 906.043 1086>
LayerCount: 2
Fore
SplineSet
601 201 m 5
 913 1098 l 1
 1086 1098 l 1
 684 -15 l 2
 584 -292 538 -510 165 -510 c 1
 165 -343 l 1
 421 -343 451 -208.72 499 30 c 1
 88 1098 l 1
 268 1098 l 1
 601 201 l 5
EndSplineSet
EndChar

StartChar: y.alt
Encoding: 65546 -1 423
Width: 1189
VWidth: 0
GlyphClass: 2
Flags: W
PickledData: "(dp1
S'com.fontlab.hintData'
p2
(dp3
S'hhints'
p4
((dp5
S'position'
p6
I1078
sS'width'
p7
I20
stp8
ss."
HStem: -472 21G<258.62 345.5> 1078 20G<87 279.707 891.653 1082>
LayerCount: 2
Fore
SplineSet
593 265 m 1
 899 1098 l 1
 1082 1098 l 1
 673 -46 l 1
 596 -236 419 -377 272 -472 c 1
 177 -330 l 1
 314 -241 428 -107 473 -14 c 1
 495 30 l 1
 87 1098 l 1
 272 1098 l 1
 593 265 l 1
EndSplineSet
EndChar

StartChar: yen
Encoding: 165 165 426
Width: 1270
VWidth: 0
GlyphClass: 2
Flags: W
PickledData: "(dp1
S'com.fontlab.hintData'
p2
(dp3
S'vhints'
p4
((dp5
S'position'
p6
I496
sS'width'
p7
I169
stp8
sS'hhints'
p9
((dp10
g6
I0
sg7
I21
s(dp11
g6
I305
sg7
I151
s(dp12
g6
I617
sg7
I154
stp13
ss."
HStem: 0 21G<565 717> 305 151<182 564 717 1094> 617 154<177 528 742 1091>
VStem: 565 152<0 305 456 617>
LayerCount: 2
Fore
SplineSet
717 305 m 1
 717 0 l 1
 565 0 l 1
 565 305 l 1
 182 305 l 1
 174 456 l 1
 564 456 l 1
 564 617 l 1
 177 617 l 1
 177 771 l 1
 528 771 l 1
 111 1527 l 1
 290 1527 l 1
 577 1011 l 1
 648 858 l 1
 1007 1527 l 1
 1172 1527 l 1
 742 771 l 1
 1091 771 l 1
 1091 617 l 1
 716 617 l 1
 716 456 l 1
 1094 456 l 1
 1094 305 l 1
 717 305 l 1
EndSplineSet
EndChar

StartChar: z
Encoding: 122 122 427
Width: 956
VWidth: 0
GlyphClass: 2
Flags: W
PickledData: "(dp1
S'com.fontlab.hintData'
p2
(dp3
S'hhints'
p4
((dp5
S'position'
p6
I0
sS'width'
p7
I153
s(dp8
g6
I945
sg7
I153
stp9
ss."
HStem: 0 153<326 823> 945 153<146 611>
LayerCount: 2
Fore
SplineSet
611 945 m 1
 146 945 l 1
 146 1098 l 1
 809 1098 l 1
 809 964 l 1
 326 153 l 1
 823 153 l 1
 823 0 l 1
 132 0 l 1
 132 139 l 1
 611 945 l 1
EndSplineSet
EndChar

StartChar: zero
Encoding: 48 48 431
Width: 1275
VWidth: 0
GlyphClass: 2
Flags: W
PickledData: "(dp1
S'com.fontlab.hintData'
p2
(dp3
S'vhints'
p4
((dp5
S'position'
p6
I137
sS'width'
p7
I213
s(dp8
g6
I954
sg7
I210
stp9
sS'hhints'
p10
((dp11
g6
I-23
sg7
I167
s(dp12
g6
I1323
sg7
I166
stp13
ss."
HStem: -23 167<499.551 778.368> 1323 166<501.888 776.031>
VStem: 126 192<406.336 1063.94> 960 189<406.336 1063.94>
LayerCount: 2
Fore
SplineSet
639 -23 m 0
 275 -23 126 292 126 731 c 0
 126 1191 290 1489 639 1489 c 0
 988 1489 1149 1191 1149 731 c 0
 1149 292 1003 -23 639 -23 c 0
639 1323 m 0
 431 1323 318 1093 318 737 c 0
 318 374 431 144 639 144 c 0
 847 144 960 374 960 737 c 0
 960 1093 847 1323 639 1323 c 0
EndSplineSet
EndChar
